<svg xmlns="http://www.w3.org/2000/svg" width="960" height="906" viewBox="0 0 960 906"><rect width="100%" height="100%" fill="#101114"/><text x="24" y="34" fill="#d7dae0" font-family="ui-monospace, SFMono-Regular, Menlo, monospace" font-size="18" font-weight="700">tako-feature-workflow-enqueue-c1000</text><text x="24" y="54" fill="#9ea3ad" font-family="ui-monospace, SFMono-Regular, Menlo, monospace" font-size="12">200 rps 5239.4 | total rps 5239.4 | p99 242.86 ms | non-200 0% | errors 0</text><text x="24" y="72.0" fill="#9ea3ad" font-family="ui-monospace, SFMono-Regular, Menlo, monospace" font-size="13">CPU (% total VM)</text><line x1="70.0" y1="82.0" x2="932.0" y2="82.0" stroke="#343843" stroke-width="1"/><text x="62.0" y="86.0" fill="#9ea3ad" font-family="ui-monospace, SFMono-Regular, Menlo, monospace" font-size="11" text-anchor="end">100.0</text><line x1="70.0" y1="119.5" x2="932.0" y2="119.5" stroke="#343843" stroke-width="1"/><text x="62.0" y="123.5" fill="#9ea3ad" font-family="ui-monospace, SFMono-Regular, Menlo, monospace" font-size="11" text-anchor="end">75.0</text><line x1="70.0" y1="157.0" x2="932.0" y2="157.0" stroke="#343843" stroke-width="1"/><text x="62.0" y="161.0" fill="#9ea3ad" font-family="ui-monospace, SFMono-Regular, Menlo, monospace" font-size="11" text-anchor="end">50.0</text><line x1="70.0" y1="194.5" x2="932.0" y2="194.5" stroke="#343843" stroke-width="1"/><text x="62.0" y="198.5" fill="#9ea3ad" font-family="ui-monospace, SFMono-Regular, Menlo, monospace" font-size="11" text-anchor="end">25.0</text><line x1="70.0" y1="232.0" x2="932.0" y2="232.0" stroke="#343843" stroke-width="1"/><text x="62.0" y="236.0" fill="#9ea3ad" font-family="ui-monospace, SFMono-Regular, Menlo, monospace" font-size="11" text-anchor="end">0.0</text><line x1="70.0" y1="82.0" x2="70.0" y2="232.0" stroke="#343843" stroke-width="1"/><text x="70.0" y="250.0" fill="#9ea3ad" font-family="ui-monospace, SFMono-Regular, Menlo, monospace" font-size="11" text-anchor="middle">0s</text><line x1="285.5" y1="82.0" x2="285.5" y2="232.0" stroke="#343843" stroke-width="1"/><text x="285.5" y="250.0" fill="#9ea3ad" font-family="ui-monospace, SFMono-Regular, Menlo, monospace" font-size="11" text-anchor="middle">10s</text><line x1="501.0" y1="82.0" x2="501.0" y2="232.0" stroke="#343843" stroke-width="1"/><text x="501.0" y="250.0" fill="#9ea3ad" font-family="ui-monospace, SFMono-Regular, Menlo, monospace" font-size="11" text-anchor="middle">20s</text><line x1="716.5" y1="82.0" x2="716.5" y2="232.0" stroke="#343843" stroke-width="1"/><text x="716.5" y="250.0" fill="#9ea3ad" font-family="ui-monospace, SFMono-Regular, Menlo, monospace" font-size="11" text-anchor="middle">29s</text><line x1="932.0" y1="82.0" x2="932.0" y2="232.0" stroke="#343843" stroke-width="1"/><text x="932.0" y="250.0" fill="#9ea3ad" font-family="ui-monospace, SFMono-Regular, Menlo, monospace" font-size="11" text-anchor="middle">39s</text><line x1="70.0" y1="52.0" x2="88.0" y2="52.0" stroke="#4ea1ff" stroke-width="3" stroke-linecap="round"/><text x="94.0" y="56.0" fill="#9ea3ad" font-family="ui-monospace, SFMono-Regular, Menlo, monospace" font-size="11">total</text><line x1="146.0" y1="52.0" x2="164.0" y2="52.0" stroke="#ff7b72" stroke-width="3" stroke-linecap="round"/><text x="170.0" y="56.0" fill="#9ea3ad" font-family="ui-monospace, SFMono-Regular, Menlo, monospace" font-size="11">proxy</text><line x1="222.0" y1="52.0" x2="240.0" y2="52.0" stroke="#7ee787" stroke-width="3" stroke-linecap="round"/><text x="246.0" y="56.0" fill="#9ea3ad" font-family="ui-monospace, SFMono-Regular, Menlo, monospace" font-size="11">app</text><line x1="298.0" y1="52.0" x2="316.0" y2="52.0" stroke="#f6c177" stroke-width="3" stroke-linecap="round"/><text x="322.0" y="56.0" fill="#9ea3ad" font-family="ui-monospace, SFMono-Regular, Menlo, monospace" font-size="11">loadgen</text><path d="M 70.0 154.2 L 158.4 114.9 L 224.7 123.4 L 291.0 123.4 L 357.3 115.8 L 423.6 123.1 L 489.9 123.8 L 556.3 124.7 L 622.6 125.1 L 688.9 122.4 L 755.2 122.2 L 821.5 124.4 L 887.8 123.7 L 932.0 123.4" fill="none" stroke="#4ea1ff" stroke-width="2.5" stroke-linejoin="round" stroke-linecap="round"/><path d="M 70.0 161.3 L 158.4 194.7 L 224.7 194.3 L 291.0 192.7 L 357.3 184.7 L 423.6 193.4 L 489.9 192.0 L 556.3 195.8 L 622.6 189.4 L 688.9 191.3 L 755.2 193.5 L 821.5 192.1 L 887.8 195.0 L 932.0 195.2" fill="none" stroke="#ff7b72" stroke-width="2.5" stroke-linejoin="round" stroke-linecap="round"/><path d="M 70.0 215.4 L 158.4 209.3 L 224.7 211.2 L 291.0 211.9 L 357.3 213.8 L 423.6 212.2 L 489.9 211.7 L 556.3 213.0 L 622.6 213.7 L 688.9 212.2 L 755.2 212.9 L 821.5 211.8 L 887.8 212.2 L 932.0 212.9" fill="none" stroke="#7ee787" stroke-width="2.5" stroke-linejoin="round" stroke-linecap="round"/><path d="M 70.0 208.9 L 158.4 215.3 L 224.7 213.9 L 291.0 214.3 L 357.3 209.6 L 423.6 213.4 L 489.9 214.9 L 556.3 216.2 L 622.6 211.9 L 688.9 213.9 L 755.2 213.8 L 821.5 213.8 L 887.8 214.8 L 932.0 232.0" fill="none" stroke="#f6c177" stroke-width="2.5" stroke-linejoin="round" stroke-linecap="round"/><text x="24" y="280.0" fill="#9ea3ad" font-family="ui-monospace, SFMono-Regular, Menlo, monospace" font-size="13">Process RSS (GiB)</text><line x1="70.0" y1="290.0" x2="932.0" y2="290.0" stroke="#343843" stroke-width="1"/><text x="62.0" y="294.0" fill="#9ea3ad" font-family="ui-monospace, SFMono-Regular, Menlo, monospace" font-size="11" text-anchor="end">0.5</text><line x1="70.0" y1="327.5" x2="932.0" y2="327.5" stroke="#343843" stroke-width="1"/><text x="62.0" y="331.5" fill="#9ea3ad" font-family="ui-monospace, SFMono-Regular, Menlo, monospace" font-size="11" text-anchor="end">0.4</text><line x1="70.0" y1="365.0" x2="932.0" y2="365.0" stroke="#343843" stroke-width="1"/><text x="62.0" y="369.0" fill="#9ea3ad" font-family="ui-monospace, SFMono-Regular, Menlo, monospace" font-size="11" text-anchor="end">0.2</text><line x1="70.0" y1="402.5" x2="932.0" y2="402.5" stroke="#343843" stroke-width="1"/><text x="62.0" y="406.5" fill="#9ea3ad" font-family="ui-monospace, SFMono-Regular, Menlo, monospace" font-size="11" text-anchor="end">0.1</text><line x1="70.0" y1="440.0" x2="932.0" y2="440.0" stroke="#343843" stroke-width="1"/><text x="62.0" y="444.0" fill="#9ea3ad" font-family="ui-monospace, SFMono-Regular, Menlo, monospace" font-size="11" text-anchor="end">0.0</text><line x1="70.0" y1="290.0" x2="70.0" y2="440.0" stroke="#343843" stroke-width="1"/><text x="70.0" y="458.0" fill="#9ea3ad" font-family="ui-monospace, SFMono-Regular, Menlo, monospace" font-size="11" text-anchor="middle">0s</text><line x1="285.5" y1="290.0" x2="285.5" y2="440.0" stroke="#343843" stroke-width="1"/><text x="285.5" y="458.0" fill="#9ea3ad" font-family="ui-monospace, SFMono-Regular, Menlo, monospace" font-size="11" text-anchor="middle">10s</text><line x1="501.0" y1="290.0" x2="501.0" y2="440.0" stroke="#343843" stroke-width="1"/><text x="501.0" y="458.0" fill="#9ea3ad" font-family="ui-monospace, SFMono-Regular, Menlo, monospace" font-size="11" text-anchor="middle">20s</text><line x1="716.5" y1="290.0" x2="716.5" y2="440.0" stroke="#343843" stroke-width="1"/><text x="716.5" y="458.0" fill="#9ea3ad" font-family="ui-monospace, SFMono-Regular, Menlo, monospace" font-size="11" text-anchor="middle">29s</text><line x1="932.0" y1="290.0" x2="932.0" y2="440.0" stroke="#343843" stroke-width="1"/><text x="932.0" y="458.0" fill="#9ea3ad" font-family="ui-monospace, SFMono-Regular, Menlo, monospace" font-size="11" text-anchor="middle">39s</text><line x1="70.0" y1="260.0" x2="88.0" y2="260.0" stroke="#ff7b72" stroke-width="3" stroke-linecap="round"/><text x="94.0" y="264.0" fill="#9ea3ad" font-family="ui-monospace, SFMono-Regular, Menlo, monospace" font-size="11">proxy</text><line x1="146.0" y1="260.0" x2="164.0" y2="260.0" stroke="#7ee787" stroke-width="3" stroke-linecap="round"/><text x="170.0" y="264.0" fill="#9ea3ad" font-family="ui-monospace, SFMono-Regular, Menlo, monospace" font-size="11">app</text><line x1="222.0" y1="260.0" x2="240.0" y2="260.0" stroke="#f6c177" stroke-width="3" stroke-linecap="round"/><text x="246.0" y="264.0" fill="#9ea3ad" font-family="ui-monospace, SFMono-Regular, Menlo, monospace" font-size="11">loadgen</text><path d="M 70.0 392.6 L 158.4 392.6 L 224.7 392.6 L 291.0 381.6 L 357.3 375.2 L 423.6 375.3 L 489.9 375.1 L 556.3 375.2 L 622.6 375.2 L 688.9 375.2 L 755.2 374.9 L 821.5 375.0 L 887.8 374.9 L 932.0 374.9" fill="none" stroke="#ff7b72" stroke-width="2.5" stroke-linejoin="round" stroke-linecap="round"/><path d="M 70.0 396.0 L 158.4 378.0 L 224.7 378.7 L 291.0 386.8 L 357.3 386.4 L 423.6 379.8 L 489.9 380.0 L 556.3 379.7 L 622.6 379.2 L 688.9 378.8 L 755.2 378.4 L 821.5 378.1 L 887.8 377.4 L 932.0 376.9" fill="none" stroke="#7ee787" stroke-width="2.5" stroke-linejoin="round" stroke-linecap="round"/><path d="M 70.0 414.0 L 158.4 412.4 L 224.7 411.8 L 291.0 413.8 L 357.3 413.7 L 423.6 412.1 L 489.9 411.8 L 556.3 411.8 L 622.6 411.8 L 688.9 411.5 L 755.2 411.5 L 821.5 411.5 L 887.8 411.5 L 932.0 440.0" fill="none" stroke="#f6c177" stroke-width="2.5" stroke-linejoin="round" stroke-linecap="round"/><text x="24" y="488.0" fill="#9ea3ad" font-family="ui-monospace, SFMono-Regular, Menlo, monospace" font-size="13">Memory used (GiB)</text><line x1="70.0" y1="498.0" x2="932.0" y2="498.0" stroke="#343843" stroke-width="1"/><text x="62.0" y="502.0" fill="#9ea3ad" font-family="ui-monospace, SFMono-Regular, Menlo, monospace" font-size="11" text-anchor="end">1.0</text><line x1="70.0" y1="535.5" x2="932.0" y2="535.5" stroke="#343843" stroke-width="1"/><text x="62.0" y="539.5" fill="#9ea3ad" font-family="ui-monospace, SFMono-Regular, Menlo, monospace" font-size="11" text-anchor="end">0.8</text><line x1="70.0" y1="573.0" x2="932.0" y2="573.0" stroke="#343843" stroke-width="1"/><text x="62.0" y="577.0" fill="#9ea3ad" font-family="ui-monospace, SFMono-Regular, Menlo, monospace" font-size="11" text-anchor="end">0.5</text><line x1="70.0" y1="610.5" x2="932.0" y2="610.5" stroke="#343843" stroke-width="1"/><text x="62.0" y="614.5" fill="#9ea3ad" font-family="ui-monospace, SFMono-Regular, Menlo, monospace" font-size="11" text-anchor="end">0.2</text><line x1="70.0" y1="648.0" x2="932.0" y2="648.0" stroke="#343843" stroke-width="1"/><text x="62.0" y="652.0" fill="#9ea3ad" font-family="ui-monospace, SFMono-Regular, Menlo, monospace" font-size="11" text-anchor="end">0.0</text><line x1="70.0" y1="498.0" x2="70.0" y2="648.0" stroke="#343843" stroke-width="1"/><text x="70.0" y="666.0" fill="#9ea3ad" font-family="ui-monospace, SFMono-Regular, Menlo, monospace" font-size="11" text-anchor="middle">0s</text><line x1="285.5" y1="498.0" x2="285.5" y2="648.0" stroke="#343843" stroke-width="1"/><text x="285.5" y="666.0" fill="#9ea3ad" font-family="ui-monospace, SFMono-Regular, Menlo, monospace" font-size="11" text-anchor="middle">10s</text><line x1="501.0" y1="498.0" x2="501.0" y2="648.0" stroke="#343843" stroke-width="1"/><text x="501.0" y="666.0" fill="#9ea3ad" font-family="ui-monospace, SFMono-Regular, Menlo, monospace" font-size="11" text-anchor="middle">20s</text><line x1="716.5" y1="498.0" x2="716.5" y2="648.0" stroke="#343843" stroke-width="1"/><text x="716.5" y="666.0" fill="#9ea3ad" font-family="ui-monospace, SFMono-Regular, Menlo, monospace" font-size="11" text-anchor="middle">29s</text><line x1="932.0" y1="498.0" x2="932.0" y2="648.0" stroke="#343843" stroke-width="1"/><text x="932.0" y="666.0" fill="#9ea3ad" font-family="ui-monospace, SFMono-Regular, Menlo, monospace" font-size="11" text-anchor="middle">39s</text><path d="M 70.0 554.9 L 158.4 542.9 L 224.7 543.0 L 291.0 536.1 L 357.3 538.9 L 423.6 535.0 L 489.9 535.0 L 556.3 534.3 L 622.6 534.4 L 688.9 533.5 L 755.2 533.9 L 821.5 533.4 L 887.8 533.1 L 932.0 545.3" fill="none" stroke="#a371f7" stroke-width="2.5" stroke-linejoin="round" stroke-linecap="round"/><text x="24" y="696.0" fill="#9ea3ad" font-family="ui-monospace, SFMono-Regular, Menlo, monospace" font-size="13">TLS connections</text><line x1="70.0" y1="706.0" x2="932.0" y2="706.0" stroke="#343843" stroke-width="1"/><text x="62.0" y="710.0" fill="#9ea3ad" font-family="ui-monospace, SFMono-Regular, Menlo, monospace" font-size="11" text-anchor="end">1000.0</text><line x1="70.0" y1="743.5" x2="932.0" y2="743.5" stroke="#343843" stroke-width="1"/><text x="62.0" y="747.5" fill="#9ea3ad" font-family="ui-monospace, SFMono-Regular, Menlo, monospace" font-size="11" text-anchor="end">750.0</text><line x1="70.0" y1="781.0" x2="932.0" y2="781.0" stroke="#343843" stroke-width="1"/><text x="62.0" y="785.0" fill="#9ea3ad" font-family="ui-monospace, SFMono-Regular, Menlo, monospace" font-size="11" text-anchor="end">500.0</text><line x1="70.0" y1="818.5" x2="932.0" y2="818.5" stroke="#343843" stroke-width="1"/><text x="62.0" y="822.5" fill="#9ea3ad" font-family="ui-monospace, SFMono-Regular, Menlo, monospace" font-size="11" text-anchor="end">250.0</text><line x1="70.0" y1="856.0" x2="932.0" y2="856.0" stroke="#343843" stroke-width="1"/><text x="62.0" y="860.0" fill="#9ea3ad" font-family="ui-monospace, SFMono-Regular, Menlo, monospace" font-size="11" text-anchor="end">0.0</text><line x1="70.0" y1="706.0" x2="70.0" y2="856.0" stroke="#343843" stroke-width="1"/><text x="70.0" y="874.0" fill="#9ea3ad" font-family="ui-monospace, SFMono-Regular, Menlo, monospace" font-size="11" text-anchor="middle">0s</text><line x1="285.5" y1="706.0" x2="285.5" y2="856.0" stroke="#343843" stroke-width="1"/><text x="285.5" y="874.0" fill="#9ea3ad" font-family="ui-monospace, SFMono-Regular, Menlo, monospace" font-size="11" text-anchor="middle">10s</text><line x1="501.0" y1="706.0" x2="501.0" y2="856.0" stroke="#343843" stroke-width="1"/><text x="501.0" y="874.0" fill="#9ea3ad" font-family="ui-monospace, SFMono-Regular, Menlo, monospace" font-size="11" text-anchor="middle">20s</text><line x1="716.5" y1="706.0" x2="716.5" y2="856.0" stroke="#343843" stroke-width="1"/><text x="716.5" y="874.0" fill="#9ea3ad" font-family="ui-monospace, SFMono-Regular, Menlo, monospace" font-size="11" text-anchor="middle">29s</text><line x1="932.0" y1="706.0" x2="932.0" y2="856.0" stroke="#343843" stroke-width="1"/><text x="932.0" y="874.0" fill="#9ea3ad" font-family="ui-monospace, SFMono-Regular, Menlo, monospace" font-size="11" text-anchor="middle">39s</text><path d="M 70.0 706.0 L 158.4 706.0 L 224.7 706.0 L 291.0 706.0 L 357.3 706.0 L 423.6 706.0 L 489.9 706.0 L 556.3 706.0 L 622.6 706.0 L 688.9 706.0 L 755.2 706.0 L 821.5 706.0 L 887.8 706.0 L 932.0 856.0" fill="none" stroke="#f6c177" stroke-width="2.5" stroke-linejoin="round" stroke-linecap="round"/></svg>