<svg xmlns="http://www.w3.org/2000/svg" width="960" height="560" viewBox="0 0 960 560"><rect width="100%" height="100%" fill="#101114"/><text x="24" y="34" fill="#d7dae0" font-family="ui-monospace, SFMono-Regular, Menlo, monospace" font-size="18" font-weight="700">p99 latency by concurrency</text><text x="24" y="56" fill="#9ea3ad" font-family="ui-monospace, SFMono-Regular, Menlo, monospace" font-size="12">Lower is better. Same HTTPS route, app, certificate, and VM-local load generator.</text><line x1="86.0" y1="76.0" x2="750.0" y2="76.0" stroke="#343843" stroke-width="1"/><text x="76.0" y="80.0" fill="#9ea3ad" font-family="ui-monospace, SFMono-Regular, Menlo, monospace" font-size="11" text-anchor="end">10k</text><line x1="86.0" y1="157.2" x2="750.0" y2="157.2" stroke="#343843" stroke-width="1"/><text x="76.0" y="161.2" fill="#9ea3ad" font-family="ui-monospace, SFMono-Regular, Menlo, monospace" font-size="11" text-anchor="end">8k</text><line x1="86.0" y1="238.4" x2="750.0" y2="238.4" stroke="#343843" stroke-width="1"/><text x="76.0" y="242.4" fill="#9ea3ad" font-family="ui-monospace, SFMono-Regular, Menlo, monospace" font-size="11" text-anchor="end">6k</text><line x1="86.0" y1="319.6" x2="750.0" y2="319.6" stroke="#343843" stroke-width="1"/><text x="76.0" y="323.6" fill="#9ea3ad" font-family="ui-monospace, SFMono-Regular, Menlo, monospace" font-size="11" text-anchor="end">4k</text><line x1="86.0" y1="400.8" x2="750.0" y2="400.8" stroke="#343843" stroke-width="1"/><text x="76.0" y="404.8" fill="#9ea3ad" font-family="ui-monospace, SFMono-Regular, Menlo, monospace" font-size="11" text-anchor="end">2k</text><line x1="86.0" y1="482.0" x2="750.0" y2="482.0" stroke="#343843" stroke-width="1"/><text x="76.0" y="486.0" fill="#9ea3ad" font-family="ui-monospace, SFMono-Regular, Menlo, monospace" font-size="11" text-anchor="end">0.0</text><line x1="86.0" y1="76.0" x2="86.0" y2="482.0" stroke="#343843" stroke-width="1"/><text x="86.0" y="502.0" fill="#9ea3ad" font-family="ui-monospace, SFMono-Regular, Menlo, monospace" font-size="11" text-anchor="middle">500</text><line x1="130.3" y1="76.0" x2="130.3" y2="482.0" stroke="#343843" stroke-width="1"/><text x="130.3" y="502.0" fill="#9ea3ad" font-family="ui-monospace, SFMono-Regular, Menlo, monospace" font-size="11" text-anchor="middle">1000</text><line x1="218.8" y1="76.0" x2="218.8" y2="482.0" stroke="#343843" stroke-width="1"/><text x="218.8" y="502.0" fill="#9ea3ad" font-family="ui-monospace, SFMono-Regular, Menlo, monospace" font-size="11" text-anchor="middle">2000</text><line x1="395.9" y1="76.0" x2="395.9" y2="482.0" stroke="#343843" stroke-width="1"/><text x="395.9" y="502.0" fill="#9ea3ad" font-family="ui-monospace, SFMono-Regular, Menlo, monospace" font-size="11" text-anchor="middle">4000</text><line x1="750.0" y1="76.0" x2="750.0" y2="482.0" stroke="#343843" stroke-width="1"/><text x="750.0" y="502.0" fill="#9ea3ad" font-family="ui-monospace, SFMono-Regular, Menlo, monospace" font-size="11" text-anchor="middle">8000</text><path d="M 86.0 476.1 L 130.3 470.6 L 218.8 440.3 L 395.9 340.6 L 750.0 93.7" fill="none" stroke="#7ee787" stroke-width="2.8" stroke-linejoin="round" stroke-linecap="round"/><circle cx="86.0" cy="476.1" r="3.5" fill="#7ee787"/><circle cx="130.3" cy="470.6" r="3.5" fill="#7ee787"/><circle cx="218.8" cy="440.3" r="3.5" fill="#7ee787"/><circle cx="395.9" cy="340.6" r="3.5" fill="#7ee787"/><circle cx="750.0" cy="93.7" r="3.5" fill="#7ee787"/><path d="M 86.0 474.5 L 130.3 467.6 L 218.8 417.6 L 395.9 320.8 L 750.0 114.2" fill="none" stroke="#f6c177" stroke-width="2.8" stroke-linejoin="round" stroke-linecap="round"/><circle cx="86.0" cy="474.5" r="3.5" fill="#f6c177"/><circle cx="130.3" cy="467.6" r="3.5" fill="#f6c177"/><circle cx="218.8" cy="417.6" r="3.5" fill="#f6c177"/><circle cx="395.9" cy="320.8" r="3.5" fill="#f6c177"/><circle cx="750.0" cy="114.2" r="3.5" fill="#f6c177"/><text x="774.0" y="76.0" fill="#9ea3ad" font-family="ui-monospace, SFMono-Regular, Menlo, monospace" font-size="12" font-weight="700">series</text><line x1="774.0" y1="96.0" x2="798.0" y2="96.0" stroke="#7ee787" stroke-width="3" stroke-linecap="round"/><text x="808.0" y="100.0" fill="#d7dae0" font-family="ui-monospace, SFMono-Regular, Menlo, monospace" font-size="12">channel publish</text><line x1="774.0" y1="120.0" x2="798.0" y2="120.0" stroke="#f6c177" stroke-width="3" stroke-linecap="round"/><text x="808.0" y="124.0" fill="#d7dae0" font-family="ui-monospace, SFMono-Regular, Menlo, monospace" font-size="12">workflow enqueue</text><text x="418.0" y="538.0" fill="#9ea3ad" font-family="ui-monospace, SFMono-Regular, Menlo, monospace" font-size="12" text-anchor="middle">concurrency</text><text x="20" y="279.0" fill="#9ea3ad" font-family="ui-monospace, SFMono-Regular, Menlo, monospace" font-size="12" transform="rotate(-90 20 279.0)" text-anchor="middle">p99 latency (ms)</text></svg>