<svg xmlns="http://www.w3.org/2000/svg" width="960" height="560" viewBox="0 0 960 560"><rect width="100%" height="100%" fill="#101114"/><text x="24" y="34" fill="#d7dae0" font-family="ui-monospace, SFMono-Regular, Menlo, monospace" font-size="18" font-weight="700">Client error rate by concurrency</text><text x="24" y="56" fill="#9ea3ad" font-family="ui-monospace, SFMono-Regular, Menlo, monospace" font-size="12">Lower is better. Client-side/load-generator errors as a share of attempted outcomes.</text><line x1="86.0" y1="76.0" x2="750.0" y2="76.0" stroke="#343843" stroke-width="1"/><text x="76.0" y="80.0" fill="#9ea3ad" font-family="ui-monospace, SFMono-Regular, Menlo, monospace" font-size="11" text-anchor="end">100</text><line x1="86.0" y1="157.2" x2="750.0" y2="157.2" stroke="#343843" stroke-width="1"/><text x="76.0" y="161.2" fill="#9ea3ad" font-family="ui-monospace, SFMono-Regular, Menlo, monospace" font-size="11" text-anchor="end">80</text><line x1="86.0" y1="238.4" x2="750.0" y2="238.4" stroke="#343843" stroke-width="1"/><text x="76.0" y="242.4" fill="#9ea3ad" font-family="ui-monospace, SFMono-Regular, Menlo, monospace" font-size="11" text-anchor="end">60</text><line x1="86.0" y1="319.6" x2="750.0" y2="319.6" stroke="#343843" stroke-width="1"/><text x="76.0" y="323.6" fill="#9ea3ad" font-family="ui-monospace, SFMono-Regular, Menlo, monospace" font-size="11" text-anchor="end">40</text><line x1="86.0" y1="400.8" x2="750.0" y2="400.8" stroke="#343843" stroke-width="1"/><text x="76.0" y="404.8" fill="#9ea3ad" font-family="ui-monospace, SFMono-Regular, Menlo, monospace" font-size="11" text-anchor="end">20</text><line x1="86.0" y1="482.0" x2="750.0" y2="482.0" stroke="#343843" stroke-width="1"/><text x="76.0" y="486.0" fill="#9ea3ad" font-family="ui-monospace, SFMono-Regular, Menlo, monospace" font-size="11" text-anchor="end">0.0</text><line x1="86.0" y1="76.0" x2="86.0" y2="482.0" stroke="#343843" stroke-width="1"/><text x="86.0" y="502.0" fill="#9ea3ad" font-family="ui-monospace, SFMono-Regular, Menlo, monospace" font-size="11" text-anchor="middle">2500</text><line x1="218.8" y1="76.0" x2="218.8" y2="482.0" stroke="#343843" stroke-width="1"/><text x="218.8" y="502.0" fill="#9ea3ad" font-family="ui-monospace, SFMono-Regular, Menlo, monospace" font-size="11" text-anchor="middle">5000</text><line x1="351.6" y1="76.0" x2="351.6" y2="482.0" stroke="#343843" stroke-width="1"/><text x="351.6" y="502.0" fill="#9ea3ad" font-family="ui-monospace, SFMono-Regular, Menlo, monospace" font-size="11" text-anchor="middle">7500</text><line x1="484.4" y1="76.0" x2="484.4" y2="482.0" stroke="#343843" stroke-width="1"/><text x="484.4" y="502.0" fill="#9ea3ad" font-family="ui-monospace, SFMono-Regular, Menlo, monospace" font-size="11" text-anchor="middle">10000</text><line x1="750.0" y1="76.0" x2="750.0" y2="482.0" stroke="#343843" stroke-width="1"/><text x="750.0" y="502.0" fill="#9ea3ad" font-family="ui-monospace, SFMono-Regular, Menlo, monospace" font-size="11" text-anchor="middle">15000</text><path d="M 86.0 482.0 L 218.8 482.0 L 351.6 482.0 L 484.4 474.2 L 750.0 448.0" fill="none" stroke="#4ea1ff" stroke-width="2.8" stroke-linejoin="round" stroke-linecap="round"/><circle cx="86.0" cy="482.0" r="3.5" fill="#4ea1ff"/><circle cx="218.8" cy="482.0" r="3.5" fill="#4ea1ff"/><circle cx="351.6" cy="482.0" r="3.5" fill="#4ea1ff"/><circle cx="484.4" cy="474.2" r="3.5" fill="#4ea1ff"/><circle cx="750.0" cy="448.0" r="3.5" fill="#4ea1ff"/><path d="M 86.0 482.0 L 218.8 482.0 L 351.6 482.0 L 484.4 482.0 L 750.0 452.8" fill="none" stroke="#85bfff" stroke-width="2.8" stroke-linejoin="round" stroke-linecap="round"/><circle cx="86.0" cy="482.0" r="3.5" fill="#85bfff"/><circle cx="218.8" cy="482.0" r="3.5" fill="#85bfff"/><circle cx="351.6" cy="482.0" r="3.5" fill="#85bfff"/><circle cx="484.4" cy="482.0" r="3.5" fill="#85bfff"/><circle cx="750.0" cy="452.8" r="3.5" fill="#85bfff"/><path d="M 86.0 482.0 L 218.8 482.0 L 351.6 482.0 L 484.4 481.6 L 750.0 99.1" fill="none" stroke="#7ee787" stroke-width="2.8" stroke-linejoin="round" stroke-linecap="round"/><circle cx="86.0" cy="482.0" r="3.5" fill="#7ee787"/><circle cx="218.8" cy="482.0" r="3.5" fill="#7ee787"/><circle cx="351.6" cy="482.0" r="3.5" fill="#7ee787"/><circle cx="484.4" cy="481.6" r="3.5" fill="#7ee787"/><circle cx="750.0" cy="99.1" r="3.5" fill="#7ee787"/><path d="M 86.0 482.0 L 218.8 482.0 L 351.6 480.4 L 484.4 467.2 L 750.0 174.5" fill="none" stroke="#3fb950" stroke-width="2.8" stroke-linejoin="round" stroke-linecap="round"/><circle cx="86.0" cy="482.0" r="3.5" fill="#3fb950"/><circle cx="218.8" cy="482.0" r="3.5" fill="#3fb950"/><circle cx="351.6" cy="480.4" r="3.5" fill="#3fb950"/><circle cx="484.4" cy="467.2" r="3.5" fill="#3fb950"/><circle cx="750.0" cy="174.5" r="3.5" fill="#3fb950"/><path d="M 86.0 482.0 L 218.8 482.0 L 351.6 482.0 L 484.4 289.0 L 750.0 163.2" fill="none" stroke="#f6c177" stroke-width="2.8" stroke-linejoin="round" stroke-linecap="round"/><circle cx="86.0" cy="482.0" r="3.5" fill="#f6c177"/><circle cx="218.8" cy="482.0" r="3.5" fill="#f6c177"/><circle cx="351.6" cy="482.0" r="3.5" fill="#f6c177"/><circle cx="484.4" cy="289.0" r="3.5" fill="#f6c177"/><circle cx="750.0" cy="163.2" r="3.5" fill="#f6c177"/><path d="M 86.0 482.0 L 218.8 482.0 L 351.6 468.8 L 484.4 315.5 L 750.0 166.5" fill="none" stroke="#f0883e" stroke-width="2.8" stroke-linejoin="round" stroke-linecap="round"/><circle cx="86.0" cy="482.0" r="3.5" fill="#f0883e"/><circle cx="218.8" cy="482.0" r="3.5" fill="#f0883e"/><circle cx="351.6" cy="468.8" r="3.5" fill="#f0883e"/><circle cx="484.4" cy="315.5" r="3.5" fill="#f0883e"/><circle cx="750.0" cy="166.5" r="3.5" fill="#f0883e"/><text x="774.0" y="76.0" fill="#9ea3ad" font-family="ui-monospace, SFMono-Regular, Menlo, monospace" font-size="12" font-weight="700">series</text><line x1="774.0" y1="96.0" x2="798.0" y2="96.0" stroke="#4ea1ff" stroke-width="3" stroke-linecap="round"/><text x="808.0" y="100.0" fill="#d7dae0" font-family="ui-monospace, SFMono-Regular, Menlo, monospace" font-size="12">nginx single</text><line x1="774.0" y1="120.0" x2="798.0" y2="120.0" stroke="#85bfff" stroke-width="3" stroke-linecap="round"/><text x="808.0" y="124.0" fill="#d7dae0" font-family="ui-monospace, SFMono-Regular, Menlo, monospace" font-size="12">nginx lb</text><line x1="774.0" y1="144.0" x2="798.0" y2="144.0" stroke="#7ee787" stroke-width="3" stroke-linecap="round"/><text x="808.0" y="148.0" fill="#d7dae0" font-family="ui-monospace, SFMono-Regular, Menlo, monospace" font-size="12">tako single</text><line x1="774.0" y1="168.0" x2="798.0" y2="168.0" stroke="#3fb950" stroke-width="3" stroke-linecap="round"/><text x="808.0" y="172.0" fill="#d7dae0" font-family="ui-monospace, SFMono-Regular, Menlo, monospace" font-size="12">tako lb</text><line x1="774.0" y1="192.0" x2="798.0" y2="192.0" stroke="#f6c177" stroke-width="3" stroke-linecap="round"/><text x="808.0" y="196.0" fill="#d7dae0" font-family="ui-monospace, SFMono-Regular, Menlo, monospace" font-size="12">caddy single</text><line x1="774.0" y1="216.0" x2="798.0" y2="216.0" stroke="#f0883e" stroke-width="3" stroke-linecap="round"/><text x="808.0" y="220.0" fill="#d7dae0" font-family="ui-monospace, SFMono-Regular, Menlo, monospace" font-size="12">caddy lb</text><text x="418.0" y="538.0" fill="#9ea3ad" font-family="ui-monospace, SFMono-Regular, Menlo, monospace" font-size="12" text-anchor="middle">concurrency</text><text x="20" y="279.0" fill="#9ea3ad" font-family="ui-monospace, SFMono-Regular, Menlo, monospace" font-size="12" transform="rotate(-90 20 279.0)" text-anchor="middle">client errors (%)</text></svg>