<svg xmlns="http://www.w3.org/2000/svg" width="960" height="906" viewBox="0 0 960 906"><rect width="100%" height="100%" fill="#101114"/><text x="24" y="34" fill="#d7dae0" font-family="ui-monospace, SFMono-Regular, Menlo, monospace" font-size="18" font-weight="700">envoy-single-plaintext-c5000</text><text x="24" y="54" fill="#9ea3ad" font-family="ui-monospace, SFMono-Regular, Menlo, monospace" font-size="12">200 rps 4760.97 | total rps 4760.97 | p99 2749.27 ms | non-200 0% | errors 800</text><text x="24" y="72.0" fill="#9ea3ad" font-family="ui-monospace, SFMono-Regular, Menlo, monospace" font-size="13">CPU (% total VM)</text><line x1="70.0" y1="82.0" x2="932.0" y2="82.0" stroke="#343843" stroke-width="1"/><text x="62.0" y="86.0" fill="#9ea3ad" font-family="ui-monospace, SFMono-Regular, Menlo, monospace" font-size="11" text-anchor="end">100.0</text><line x1="70.0" y1="119.5" x2="932.0" y2="119.5" stroke="#343843" stroke-width="1"/><text x="62.0" y="123.5" fill="#9ea3ad" font-family="ui-monospace, SFMono-Regular, Menlo, monospace" font-size="11" text-anchor="end">75.0</text><line x1="70.0" y1="157.0" x2="932.0" y2="157.0" stroke="#343843" stroke-width="1"/><text x="62.0" y="161.0" fill="#9ea3ad" font-family="ui-monospace, SFMono-Regular, Menlo, monospace" font-size="11" text-anchor="end">50.0</text><line x1="70.0" y1="194.5" x2="932.0" y2="194.5" stroke="#343843" stroke-width="1"/><text x="62.0" y="198.5" fill="#9ea3ad" font-family="ui-monospace, SFMono-Regular, Menlo, monospace" font-size="11" text-anchor="end">25.0</text><line x1="70.0" y1="232.0" x2="932.0" y2="232.0" stroke="#343843" stroke-width="1"/><text x="62.0" y="236.0" fill="#9ea3ad" font-family="ui-monospace, SFMono-Regular, Menlo, monospace" font-size="11" text-anchor="end">0.0</text><line x1="70.0" y1="82.0" x2="70.0" y2="232.0" stroke="#343843" stroke-width="1"/><text x="70.0" y="250.0" fill="#9ea3ad" font-family="ui-monospace, SFMono-Regular, Menlo, monospace" font-size="11" text-anchor="middle">0s</text><line x1="285.5" y1="82.0" x2="285.5" y2="232.0" stroke="#343843" stroke-width="1"/><text x="285.5" y="250.0" fill="#9ea3ad" font-family="ui-monospace, SFMono-Regular, Menlo, monospace" font-size="11" text-anchor="middle">34s</text><line x1="501.0" y1="82.0" x2="501.0" y2="232.0" stroke="#343843" stroke-width="1"/><text x="501.0" y="250.0" fill="#9ea3ad" font-family="ui-monospace, SFMono-Regular, Menlo, monospace" font-size="11" text-anchor="middle">67s</text><line x1="716.5" y1="82.0" x2="716.5" y2="232.0" stroke="#343843" stroke-width="1"/><text x="716.5" y="250.0" fill="#9ea3ad" font-family="ui-monospace, SFMono-Regular, Menlo, monospace" font-size="11" text-anchor="middle">100s</text><line x1="932.0" y1="82.0" x2="932.0" y2="232.0" stroke="#343843" stroke-width="1"/><text x="932.0" y="250.0" fill="#9ea3ad" font-family="ui-monospace, SFMono-Regular, Menlo, monospace" font-size="11" text-anchor="middle">134s</text><line x1="70.0" y1="52.0" x2="88.0" y2="52.0" stroke="#4ea1ff" stroke-width="3" stroke-linecap="round"/><text x="94.0" y="56.0" fill="#9ea3ad" font-family="ui-monospace, SFMono-Regular, Menlo, monospace" font-size="11">total</text><line x1="146.0" y1="52.0" x2="164.0" y2="52.0" stroke="#ff7b72" stroke-width="3" stroke-linecap="round"/><text x="170.0" y="56.0" fill="#9ea3ad" font-family="ui-monospace, SFMono-Regular, Menlo, monospace" font-size="11">proxy</text><line x1="222.0" y1="52.0" x2="240.0" y2="52.0" stroke="#7ee787" stroke-width="3" stroke-linecap="round"/><text x="246.0" y="56.0" fill="#9ea3ad" font-family="ui-monospace, SFMono-Regular, Menlo, monospace" font-size="11">app</text><line x1="298.0" y1="52.0" x2="316.0" y2="52.0" stroke="#f6c177" stroke-width="3" stroke-linecap="round"/><text x="322.0" y="56.0" fill="#9ea3ad" font-family="ui-monospace, SFMono-Regular, Menlo, monospace" font-size="11">loadgen</text><path d="M 70.0 199.9 L 108.6 83.4 L 127.9 115.8 L 147.2 176.6 L 166.5 176.9 L 185.8 176.8 L 198.7 186.6 L 218.0 183.8 L 237.3 178.1 L 256.6 176.1 L 275.9 177.7 L 288.7 185.0 L 308.0 184.8 L 327.3 184.3 L 346.6 178.1 L 365.9 177.7 L 385.2 178.4 L 404.5 177.6 L 430.2 177.5 L 456.0 173.7 L 481.7 172.6 L 520.3 110.8 L 565.3 83.9 L 603.9 82.5 L 649.0 82.8 L 674.7 84.0 L 694.0 130.9 L 713.3 174.6 L 732.6 182.3 L 751.9 177.1 L 771.2 177.4 L 790.5 181.3 L 803.3 178.0 L 829.1 182.2 L 854.8 173.1 L 874.1 176.8 L 893.4 173.5 L 912.7 178.2 L 932.0 175.5" fill="none" stroke="#4ea1ff" stroke-width="2.5" stroke-linejoin="round" stroke-linecap="round"/><path d="M 70.0 195.2 L 108.6 137.4 L 127.9 198.3 L 147.2 232.0 L 166.5 232.0 L 185.8 231.5 L 198.7 232.0 L 218.0 232.0 L 237.3 231.8 L 256.6 232.0 L 275.9 231.8 L 288.7 232.0 L 308.0 232.0 L 327.3 231.7 L 346.6 232.0 L 365.9 231.8 L 385.2 231.8 L 404.5 232.0 L 430.2 231.8 L 456.0 232.0 L 481.7 230.4 L 520.3 152.0 L 565.3 158.7 L 603.9 154.9 L 649.0 156.2 L 674.7 152.8 L 694.0 211.4 L 713.3 232.0 L 732.6 231.7 L 751.9 232.0 L 771.2 232.0 L 790.5 231.7 L 803.3 231.8 L 829.1 232.0 L 854.8 232.0 L 874.1 230.8 L 893.4 231.1 L 912.7 232.0 L 932.0 231.8" fill="none" stroke="#ff7b72" stroke-width="2.5" stroke-linejoin="round" stroke-linecap="round"/><path d="M 70.0 232.0 L 108.6 218.7 L 127.9 219.2 L 147.2 232.0 L 166.5 232.0 L 185.8 232.0 L 198.7 232.0 L 218.0 232.0 L 237.3 232.0 L 256.6 232.0 L 275.9 232.0 L 288.7 232.0 L 308.0 232.0 L 327.3 232.0 L 346.6 232.0 L 365.9 232.0 L 385.2 232.0 L 404.5 232.0 L 430.2 232.0 L 456.0 232.0 L 481.7 232.0 L 520.3 230.3 L 565.3 211.7 L 603.9 212.2 L 649.0 211.8 L 674.7 212.2 L 694.0 222.2 L 713.3 232.0 L 732.6 232.0 L 751.9 232.0 L 771.2 232.0 L 790.5 232.0 L 803.3 232.0 L 829.1 232.0 L 854.8 232.0 L 874.1 232.0 L 893.4 232.0 L 912.7 232.0 L 932.0 230.1" fill="none" stroke="#7ee787" stroke-width="2.5" stroke-linejoin="round" stroke-linecap="round"/><path d="M 70.0 188.7 L 108.6 194.0 L 127.9 221.5 L 147.2 232.0 L 166.5 232.0 L 185.8 232.0 L 198.7 232.0 L 218.0 232.0 L 237.3 232.0 L 256.6 232.0 L 275.9 232.0 L 288.7 232.0 L 308.0 232.0 L 327.3 232.0 L 346.6 232.0 L 365.9 232.0 L 385.2 232.0 L 404.5 232.0 L 430.2 232.0 L 456.0 232.0 L 481.7 231.4 L 520.3 191.4 L 565.3 199.1 L 603.9 196.6 L 649.0 198.5 L 674.7 197.8 L 694.0 223.6 L 713.3 232.0 L 732.6 232.0 L 751.9 232.0 L 771.2 232.0 L 790.5 232.0 L 803.3 232.0 L 829.1 232.0 L 854.8 232.0 L 874.1 231.5 L 893.4 231.6 L 912.7 232.0 L 932.0 232.0" fill="none" stroke="#f6c177" stroke-width="2.5" stroke-linejoin="round" stroke-linecap="round"/><text x="24" y="280.0" fill="#9ea3ad" font-family="ui-monospace, SFMono-Regular, Menlo, monospace" font-size="13">Process RSS (GiB)</text><line x1="70.0" y1="290.0" x2="932.0" y2="290.0" stroke="#343843" stroke-width="1"/><text x="62.0" y="294.0" fill="#9ea3ad" font-family="ui-monospace, SFMono-Regular, Menlo, monospace" font-size="11" text-anchor="end">0.5</text><line x1="70.0" y1="327.5" x2="932.0" y2="327.5" stroke="#343843" stroke-width="1"/><text x="62.0" y="331.5" fill="#9ea3ad" font-family="ui-monospace, SFMono-Regular, Menlo, monospace" font-size="11" text-anchor="end">0.4</text><line x1="70.0" y1="365.0" x2="932.0" y2="365.0" stroke="#343843" stroke-width="1"/><text x="62.0" y="369.0" fill="#9ea3ad" font-family="ui-monospace, SFMono-Regular, Menlo, monospace" font-size="11" text-anchor="end">0.2</text><line x1="70.0" y1="402.5" x2="932.0" y2="402.5" stroke="#343843" stroke-width="1"/><text x="62.0" y="406.5" fill="#9ea3ad" font-family="ui-monospace, SFMono-Regular, Menlo, monospace" font-size="11" text-anchor="end">0.1</text><line x1="70.0" y1="440.0" x2="932.0" y2="440.0" stroke="#343843" stroke-width="1"/><text x="62.0" y="444.0" fill="#9ea3ad" font-family="ui-monospace, SFMono-Regular, Menlo, monospace" font-size="11" text-anchor="end">0.0</text><line x1="70.0" y1="290.0" x2="70.0" y2="440.0" stroke="#343843" stroke-width="1"/><text x="70.0" y="458.0" fill="#9ea3ad" font-family="ui-monospace, SFMono-Regular, Menlo, monospace" font-size="11" text-anchor="middle">0s</text><line x1="285.5" y1="290.0" x2="285.5" y2="440.0" stroke="#343843" stroke-width="1"/><text x="285.5" y="458.0" fill="#9ea3ad" font-family="ui-monospace, SFMono-Regular, Menlo, monospace" font-size="11" text-anchor="middle">34s</text><line x1="501.0" y1="290.0" x2="501.0" y2="440.0" stroke="#343843" stroke-width="1"/><text x="501.0" y="458.0" fill="#9ea3ad" font-family="ui-monospace, SFMono-Regular, Menlo, monospace" font-size="11" text-anchor="middle">67s</text><line x1="716.5" y1="290.0" x2="716.5" y2="440.0" stroke="#343843" stroke-width="1"/><text x="716.5" y="458.0" fill="#9ea3ad" font-family="ui-monospace, SFMono-Regular, Menlo, monospace" font-size="11" text-anchor="middle">100s</text><line x1="932.0" y1="290.0" x2="932.0" y2="440.0" stroke="#343843" stroke-width="1"/><text x="932.0" y="458.0" fill="#9ea3ad" font-family="ui-monospace, SFMono-Regular, Menlo, monospace" font-size="11" text-anchor="middle">134s</text><line x1="70.0" y1="260.0" x2="88.0" y2="260.0" stroke="#ff7b72" stroke-width="3" stroke-linecap="round"/><text x="94.0" y="264.0" fill="#9ea3ad" font-family="ui-monospace, SFMono-Regular, Menlo, monospace" font-size="11">proxy</text><line x1="146.0" y1="260.0" x2="164.0" y2="260.0" stroke="#7ee787" stroke-width="3" stroke-linecap="round"/><text x="170.0" y="264.0" fill="#9ea3ad" font-family="ui-monospace, SFMono-Regular, Menlo, monospace" font-size="11">app</text><line x1="222.0" y1="260.0" x2="240.0" y2="260.0" stroke="#f6c177" stroke-width="3" stroke-linecap="round"/><text x="246.0" y="264.0" fill="#9ea3ad" font-family="ui-monospace, SFMono-Regular, Menlo, monospace" font-size="11">loadgen</text><path d="M 70.0 387.1 L 108.6 344.8 L 127.9 344.8 L 147.2 344.8 L 166.5 344.8 L 185.8 344.8 L 198.7 344.8 L 218.0 344.8 L 237.3 344.8 L 256.6 344.8 L 275.9 344.8 L 288.7 344.8 L 308.0 344.8 L 327.3 344.8 L 346.6 344.8 L 365.9 344.8 L 385.2 344.8 L 404.5 344.8 L 430.2 344.8 L 456.0 344.8 L 481.7 344.8 L 520.3 344.0 L 565.3 343.8 L 603.9 343.5 L 649.0 343.5 L 674.7 343.5 L 694.0 343.5 L 713.3 343.5 L 732.6 343.5 L 751.9 343.5 L 771.2 343.5 L 790.5 343.5 L 803.3 343.5 L 829.1 343.5 L 854.8 343.5 L 874.1 343.5 L 893.4 343.5 L 912.7 343.5 L 932.0 343.5" fill="none" stroke="#ff7b72" stroke-width="2.5" stroke-linejoin="round" stroke-linecap="round"/><path d="M 70.0 437.3 L 108.6 402.6 L 127.9 401.6 L 147.2 401.6 L 166.5 401.6 L 185.8 401.6 L 198.7 401.6 L 218.0 401.6 L 237.3 401.6 L 256.6 401.6 L 275.9 401.6 L 288.7 401.6 L 308.0 401.6 L 327.3 401.6 L 346.6 401.6 L 365.9 401.6 L 385.2 401.6 L 404.5 401.6 L 430.2 401.6 L 456.0 401.6 L 481.7 401.6 L 520.3 401.3 L 565.3 401.3 L 603.9 401.3 L 649.0 401.2 L 674.7 401.2 L 694.0 401.2 L 713.3 401.2 L 732.6 401.2 L 751.9 401.2 L 771.2 401.2 L 790.5 401.2 L 803.3 401.2 L 829.1 401.2 L 854.8 401.2 L 874.1 401.2 L 893.4 401.2 L 912.7 401.2 L 932.0 401.2" fill="none" stroke="#7ee787" stroke-width="2.5" stroke-linejoin="round" stroke-linecap="round"/><path d="M 70.0 341.7 L 108.6 330.7 L 127.9 330.7 L 147.2 330.7 L 166.5 330.7 L 185.8 330.7 L 198.7 330.7 L 218.0 330.7 L 237.3 330.7 L 256.6 330.7 L 275.9 330.7 L 288.7 330.7 L 308.0 330.7 L 327.3 330.7 L 346.6 330.7 L 365.9 330.7 L 385.2 330.7 L 404.5 330.7 L 430.2 330.7 L 456.0 330.7 L 481.7 328.7 L 520.3 335.6 L 565.3 330.2 L 603.9 327.6 L 649.0 327.8 L 674.7 327.7 L 694.0 327.7 L 713.3 327.7 L 732.6 327.7 L 751.9 327.7 L 771.2 327.7 L 790.5 327.7 L 803.3 327.7 L 829.1 327.7 L 854.8 327.7 L 874.1 327.7 L 893.4 327.7 L 912.7 327.7 L 932.0 440.0" fill="none" stroke="#f6c177" stroke-width="2.5" stroke-linejoin="round" stroke-linecap="round"/><text x="24" y="488.0" fill="#9ea3ad" font-family="ui-monospace, SFMono-Regular, Menlo, monospace" font-size="13">Memory used (GiB)</text><line x1="70.0" y1="498.0" x2="932.0" y2="498.0" stroke="#343843" stroke-width="1"/><text x="62.0" y="502.0" fill="#9ea3ad" font-family="ui-monospace, SFMono-Regular, Menlo, monospace" font-size="11" text-anchor="end">2.0</text><line x1="70.0" y1="535.5" x2="932.0" y2="535.5" stroke="#343843" stroke-width="1"/><text x="62.0" y="539.5" fill="#9ea3ad" font-family="ui-monospace, SFMono-Regular, Menlo, monospace" font-size="11" text-anchor="end">1.5</text><line x1="70.0" y1="573.0" x2="932.0" y2="573.0" stroke="#343843" stroke-width="1"/><text x="62.0" y="577.0" fill="#9ea3ad" font-family="ui-monospace, SFMono-Regular, Menlo, monospace" font-size="11" text-anchor="end">1.0</text><line x1="70.0" y1="610.5" x2="932.0" y2="610.5" stroke="#343843" stroke-width="1"/><text x="62.0" y="614.5" fill="#9ea3ad" font-family="ui-monospace, SFMono-Regular, Menlo, monospace" font-size="11" text-anchor="end">0.5</text><line x1="70.0" y1="648.0" x2="932.0" y2="648.0" stroke="#343843" stroke-width="1"/><text x="62.0" y="652.0" fill="#9ea3ad" font-family="ui-monospace, SFMono-Regular, Menlo, monospace" font-size="11" text-anchor="end">0.0</text><line x1="70.0" y1="498.0" x2="70.0" y2="648.0" stroke="#343843" stroke-width="1"/><text x="70.0" y="666.0" fill="#9ea3ad" font-family="ui-monospace, SFMono-Regular, Menlo, monospace" font-size="11" text-anchor="middle">0s</text><line x1="285.5" y1="498.0" x2="285.5" y2="648.0" stroke="#343843" stroke-width="1"/><text x="285.5" y="666.0" fill="#9ea3ad" font-family="ui-monospace, SFMono-Regular, Menlo, monospace" font-size="11" text-anchor="middle">34s</text><line x1="501.0" y1="498.0" x2="501.0" y2="648.0" stroke="#343843" stroke-width="1"/><text x="501.0" y="666.0" fill="#9ea3ad" font-family="ui-monospace, SFMono-Regular, Menlo, monospace" font-size="11" text-anchor="middle">67s</text><line x1="716.5" y1="498.0" x2="716.5" y2="648.0" stroke="#343843" stroke-width="1"/><text x="716.5" y="666.0" fill="#9ea3ad" font-family="ui-monospace, SFMono-Regular, Menlo, monospace" font-size="11" text-anchor="middle">100s</text><line x1="932.0" y1="498.0" x2="932.0" y2="648.0" stroke="#343843" stroke-width="1"/><text x="932.0" y="666.0" fill="#9ea3ad" font-family="ui-monospace, SFMono-Regular, Menlo, monospace" font-size="11" text-anchor="middle">134s</text><path d="M 70.0 596.3 L 108.6 564.1 L 127.9 559.4 L 147.2 560.8 L 166.5 558.7 L 185.8 559.0 L 198.7 552.8 L 218.0 556.2 L 237.3 555.2 L 256.6 556.1 L 275.9 556.9 L 288.7 555.8 L 308.0 559.7 L 327.3 558.0 L 346.6 557.7 L 365.9 562.6 L 385.2 562.2 L 404.5 560.0 L 430.2 558.7 L 456.0 558.2 L 481.7 559.5 L 520.3 566.0 L 565.3 564.7 L 603.9 562.8 L 649.0 562.6 L 674.7 562.4 L 694.0 561.4 L 713.3 559.7 L 732.6 560.2 L 751.9 561.0 L 771.2 557.6 L 790.5 555.0 L 803.3 558.8 L 829.1 558.0 L 854.8 555.4 L 874.1 562.0 L 893.4 561.6 L 912.7 561.6 L 932.0 562.1" fill="none" stroke="#a371f7" stroke-width="2.5" stroke-linejoin="round" stroke-linecap="round"/><text x="24" y="696.0" fill="#9ea3ad" font-family="ui-monospace, SFMono-Regular, Menlo, monospace" font-size="13">TLS connections</text><line x1="70.0" y1="706.0" x2="932.0" y2="706.0" stroke="#343843" stroke-width="1"/><text x="62.0" y="710.0" fill="#9ea3ad" font-family="ui-monospace, SFMono-Regular, Menlo, monospace" font-size="11" text-anchor="end">5000.0</text><line x1="70.0" y1="743.5" x2="932.0" y2="743.5" stroke="#343843" stroke-width="1"/><text x="62.0" y="747.5" fill="#9ea3ad" font-family="ui-monospace, SFMono-Regular, Menlo, monospace" font-size="11" text-anchor="end">3750.0</text><line x1="70.0" y1="781.0" x2="932.0" y2="781.0" stroke="#343843" stroke-width="1"/><text x="62.0" y="785.0" fill="#9ea3ad" font-family="ui-monospace, SFMono-Regular, Menlo, monospace" font-size="11" text-anchor="end">2500.0</text><line x1="70.0" y1="818.5" x2="932.0" y2="818.5" stroke="#343843" stroke-width="1"/><text x="62.0" y="822.5" fill="#9ea3ad" font-family="ui-monospace, SFMono-Regular, Menlo, monospace" font-size="11" text-anchor="end">1250.0</text><line x1="70.0" y1="856.0" x2="932.0" y2="856.0" stroke="#343843" stroke-width="1"/><text x="62.0" y="860.0" fill="#9ea3ad" font-family="ui-monospace, SFMono-Regular, Menlo, monospace" font-size="11" text-anchor="end">0.0</text><line x1="70.0" y1="706.0" x2="70.0" y2="856.0" stroke="#343843" stroke-width="1"/><text x="70.0" y="874.0" fill="#9ea3ad" font-family="ui-monospace, SFMono-Regular, Menlo, monospace" font-size="11" text-anchor="middle">0s</text><line x1="285.5" y1="706.0" x2="285.5" y2="856.0" stroke="#343843" stroke-width="1"/><text x="285.5" y="874.0" fill="#9ea3ad" font-family="ui-monospace, SFMono-Regular, Menlo, monospace" font-size="11" text-anchor="middle">34s</text><line x1="501.0" y1="706.0" x2="501.0" y2="856.0" stroke="#343843" stroke-width="1"/><text x="501.0" y="874.0" fill="#9ea3ad" font-family="ui-monospace, SFMono-Regular, Menlo, monospace" font-size="11" text-anchor="middle">67s</text><line x1="716.5" y1="706.0" x2="716.5" y2="856.0" stroke="#343843" stroke-width="1"/><text x="716.5" y="874.0" fill="#9ea3ad" font-family="ui-monospace, SFMono-Regular, Menlo, monospace" font-size="11" text-anchor="middle">100s</text><line x1="932.0" y1="706.0" x2="932.0" y2="856.0" stroke="#343843" stroke-width="1"/><text x="932.0" y="874.0" fill="#9ea3ad" font-family="ui-monospace, SFMono-Regular, Menlo, monospace" font-size="11" text-anchor="middle">134s</text><path d="M 70.0 706.0 L 108.6 706.0 L 127.9 706.0 L 147.2 706.0 L 166.5 706.0 L 185.8 706.0 L 198.7 706.0 L 218.0 706.0 L 237.3 706.0 L 256.6 706.0 L 275.9 706.0 L 288.7 706.0 L 308.0 706.0 L 327.3 706.0 L 346.6 706.0 L 365.9 706.0 L 385.2 706.0 L 404.5 706.0 L 430.2 706.0 L 456.0 723.9 L 481.7 706.0 L 520.3 706.0 L 565.3 706.0 L 603.9 706.0 L 649.0 706.0 L 674.7 706.0 L 694.0 706.0 L 713.3 706.0 L 732.6 706.0 L 751.9 706.0 L 771.2 706.0 L 790.5 706.0 L 803.3 706.0 L 829.1 706.0 L 854.8 706.0 L 874.1 717.6 L 893.4 727.2 L 912.7 727.2 L 932.0 856.0" fill="none" stroke="#f6c177" stroke-width="2.5" stroke-linejoin="round" stroke-linecap="round"/></svg>