<svg xmlns="http://www.w3.org/2000/svg" width="960" height="906" viewBox="0 0 960 906"><rect width="100%" height="100%" fill="#101114"/><text x="24" y="34" fill="#d7dae0" font-family="ui-monospace, SFMono-Regular, Menlo, monospace" font-size="18" font-weight="700">envoy-single-plaintext-c20000</text><text x="24" y="54" fill="#9ea3ad" font-family="ui-monospace, SFMono-Regular, Menlo, monospace" font-size="12">200 rps 623.5 | total rps 1204.69 | p99 20396.77 ms | non-200 48.24% | errors 488</text><text x="24" y="72.0" fill="#9ea3ad" font-family="ui-monospace, SFMono-Regular, Menlo, monospace" font-size="13">CPU (% total VM)</text><line x1="70.0" y1="82.0" x2="932.0" y2="82.0" stroke="#343843" stroke-width="1"/><text x="62.0" y="86.0" fill="#9ea3ad" font-family="ui-monospace, SFMono-Regular, Menlo, monospace" font-size="11" text-anchor="end">100.0</text><line x1="70.0" y1="119.5" x2="932.0" y2="119.5" stroke="#343843" stroke-width="1"/><text x="62.0" y="123.5" fill="#9ea3ad" font-family="ui-monospace, SFMono-Regular, Menlo, monospace" font-size="11" text-anchor="end">75.0</text><line x1="70.0" y1="157.0" x2="932.0" y2="157.0" stroke="#343843" stroke-width="1"/><text x="62.0" y="161.0" fill="#9ea3ad" font-family="ui-monospace, SFMono-Regular, Menlo, monospace" font-size="11" text-anchor="end">50.0</text><line x1="70.0" y1="194.5" x2="932.0" y2="194.5" stroke="#343843" stroke-width="1"/><text x="62.0" y="198.5" fill="#9ea3ad" font-family="ui-monospace, SFMono-Regular, Menlo, monospace" font-size="11" text-anchor="end">25.0</text><line x1="70.0" y1="232.0" x2="932.0" y2="232.0" stroke="#343843" stroke-width="1"/><text x="62.0" y="236.0" fill="#9ea3ad" font-family="ui-monospace, SFMono-Regular, Menlo, monospace" font-size="11" text-anchor="end">0.0</text><line x1="70.0" y1="82.0" x2="70.0" y2="232.0" stroke="#343843" stroke-width="1"/><text x="70.0" y="250.0" fill="#9ea3ad" font-family="ui-monospace, SFMono-Regular, Menlo, monospace" font-size="11" text-anchor="middle">0s</text><line x1="285.5" y1="82.0" x2="285.5" y2="232.0" stroke="#343843" stroke-width="1"/><text x="285.5" y="250.0" fill="#9ea3ad" font-family="ui-monospace, SFMono-Regular, Menlo, monospace" font-size="11" text-anchor="middle">31s</text><line x1="501.0" y1="82.0" x2="501.0" y2="232.0" stroke="#343843" stroke-width="1"/><text x="501.0" y="250.0" fill="#9ea3ad" font-family="ui-monospace, SFMono-Regular, Menlo, monospace" font-size="11" text-anchor="middle">62s</text><line x1="716.5" y1="82.0" x2="716.5" y2="232.0" stroke="#343843" stroke-width="1"/><text x="716.5" y="250.0" fill="#9ea3ad" font-family="ui-monospace, SFMono-Regular, Menlo, monospace" font-size="11" text-anchor="middle">93s</text><line x1="932.0" y1="82.0" x2="932.0" y2="232.0" stroke="#343843" stroke-width="1"/><text x="932.0" y="250.0" fill="#9ea3ad" font-family="ui-monospace, SFMono-Regular, Menlo, monospace" font-size="11" text-anchor="middle">124s</text><line x1="70.0" y1="52.0" x2="88.0" y2="52.0" stroke="#4ea1ff" stroke-width="3" stroke-linecap="round"/><text x="94.0" y="56.0" fill="#9ea3ad" font-family="ui-monospace, SFMono-Regular, Menlo, monospace" font-size="11">total</text><line x1="146.0" y1="52.0" x2="164.0" y2="52.0" stroke="#ff7b72" stroke-width="3" stroke-linecap="round"/><text x="170.0" y="56.0" fill="#9ea3ad" font-family="ui-monospace, SFMono-Regular, Menlo, monospace" font-size="11">proxy</text><line x1="222.0" y1="52.0" x2="240.0" y2="52.0" stroke="#7ee787" stroke-width="3" stroke-linecap="round"/><text x="246.0" y="56.0" fill="#9ea3ad" font-family="ui-monospace, SFMono-Regular, Menlo, monospace" font-size="11">app</text><line x1="298.0" y1="52.0" x2="316.0" y2="52.0" stroke="#f6c177" stroke-width="3" stroke-linecap="round"/><text x="322.0" y="56.0" fill="#9ea3ad" font-family="ui-monospace, SFMono-Regular, Menlo, monospace" font-size="11">loadgen</text><path d="M 70.0 199.2 L 111.7 83.1 L 139.5 82.3 L 160.4 137.0 L 181.2 177.9 L 202.1 177.3 L 222.9 181.4 L 236.8 178.5 L 250.7 187.3 L 271.6 182.7 L 292.5 180.6 L 313.3 183.4 L 327.2 178.3 L 348.1 186.0 L 368.9 181.7 L 382.8 169.1 L 403.7 187.0 L 417.6 174.9 L 445.4 184.8 L 466.2 173.6 L 487.1 172.4 L 508.0 181.4 L 542.7 178.1 L 584.4 87.0 L 640.0 82.0 L 702.6 82.3 L 744.3 82.2 L 765.2 113.6 L 786.0 175.3 L 813.8 174.7 L 834.7 176.5 L 855.5 175.5 L 883.3 176.3 L 911.1 174.6 L 932.0 172.9" fill="none" stroke="#4ea1ff" stroke-width="2.5" stroke-linejoin="round" stroke-linecap="round"/><path d="M 70.0 197.3 L 111.7 146.9 L 139.5 136.1 L 160.4 215.5 L 181.2 231.8 L 202.1 231.8 L 222.9 232.0 L 236.8 231.7 L 250.7 232.0 L 271.6 231.7 L 292.5 232.0 L 313.3 232.0 L 327.2 231.8 L 348.1 232.0 L 368.9 231.7 L 382.8 232.0 L 403.7 232.0 L 417.6 232.0 L 445.4 231.7 L 466.2 231.8 L 487.1 226.7 L 508.0 232.0 L 542.7 226.0 L 584.4 144.9 L 640.0 133.7 L 702.6 90.1 L 744.3 113.3 L 765.2 191.7 L 786.0 231.8 L 813.8 231.8 L 834.7 232.0 L 855.5 232.0 L 883.3 231.5 L 911.1 232.0 L 932.0 231.8" fill="none" stroke="#ff7b72" stroke-width="2.5" stroke-linejoin="round" stroke-linecap="round"/><path d="M 70.0 232.0 L 111.7 230.9 L 139.5 230.0 L 160.4 228.0 L 181.2 232.0 L 202.1 232.0 L 222.9 232.0 L 236.8 232.0 L 250.7 232.0 L 271.6 232.0 L 292.5 232.0 L 313.3 232.0 L 327.2 232.0 L 348.1 232.0 L 368.9 232.0 L 382.8 232.0 L 403.7 232.0 L 417.6 232.0 L 445.4 232.0 L 466.2 232.0 L 487.1 232.0 L 508.0 232.0 L 542.7 232.0 L 584.4 232.0 L 640.0 231.7 L 702.6 230.2 L 744.3 230.8 L 765.2 225.1 L 786.0 232.0 L 813.8 232.0 L 834.7 232.0 L 855.5 231.8 L 883.3 232.0 L 911.1 232.0 L 932.0 232.0" fill="none" stroke="#7ee787" stroke-width="2.5" stroke-linejoin="round" stroke-linecap="round"/><path d="M 70.0 184.6 L 111.7 183.3 L 139.5 204.1 L 160.4 228.0 L 181.2 232.0 L 202.1 232.0 L 222.9 232.0 L 236.8 232.0 L 250.7 232.0 L 271.6 232.0 L 292.5 232.0 L 313.3 232.0 L 327.2 232.0 L 348.1 232.0 L 368.9 232.0 L 382.8 232.0 L 403.7 232.0 L 417.6 232.0 L 445.4 232.0 L 466.2 232.0 L 487.1 228.2 L 508.0 232.0 L 542.7 218.2 L 584.4 178.4 L 640.0 204.3 L 702.6 220.0 L 744.3 223.2 L 765.2 226.5 L 786.0 232.0 L 813.8 232.0 L 834.7 232.0 L 855.5 232.0 L 883.3 232.0 L 911.1 232.0 L 932.0 232.0" fill="none" stroke="#f6c177" stroke-width="2.5" stroke-linejoin="round" stroke-linecap="round"/><text x="24" y="280.0" fill="#9ea3ad" font-family="ui-monospace, SFMono-Regular, Menlo, monospace" font-size="13">Process RSS (GiB)</text><line x1="70.0" y1="290.0" x2="932.0" y2="290.0" stroke="#343843" stroke-width="1"/><text x="62.0" y="294.0" fill="#9ea3ad" font-family="ui-monospace, SFMono-Regular, Menlo, monospace" font-size="11" text-anchor="end">2.0</text><line x1="70.0" y1="327.5" x2="932.0" y2="327.5" stroke="#343843" stroke-width="1"/><text x="62.0" y="331.5" fill="#9ea3ad" font-family="ui-monospace, SFMono-Regular, Menlo, monospace" font-size="11" text-anchor="end">1.5</text><line x1="70.0" y1="365.0" x2="932.0" y2="365.0" stroke="#343843" stroke-width="1"/><text x="62.0" y="369.0" fill="#9ea3ad" font-family="ui-monospace, SFMono-Regular, Menlo, monospace" font-size="11" text-anchor="end">1.0</text><line x1="70.0" y1="402.5" x2="932.0" y2="402.5" stroke="#343843" stroke-width="1"/><text x="62.0" y="406.5" fill="#9ea3ad" font-family="ui-monospace, SFMono-Regular, Menlo, monospace" font-size="11" text-anchor="end">0.5</text><line x1="70.0" y1="440.0" x2="932.0" y2="440.0" stroke="#343843" stroke-width="1"/><text x="62.0" y="444.0" fill="#9ea3ad" font-family="ui-monospace, SFMono-Regular, Menlo, monospace" font-size="11" text-anchor="end">0.0</text><line x1="70.0" y1="290.0" x2="70.0" y2="440.0" stroke="#343843" stroke-width="1"/><text x="70.0" y="458.0" fill="#9ea3ad" font-family="ui-monospace, SFMono-Regular, Menlo, monospace" font-size="11" text-anchor="middle">0s</text><line x1="285.5" y1="290.0" x2="285.5" y2="440.0" stroke="#343843" stroke-width="1"/><text x="285.5" y="458.0" fill="#9ea3ad" font-family="ui-monospace, SFMono-Regular, Menlo, monospace" font-size="11" text-anchor="middle">31s</text><line x1="501.0" y1="290.0" x2="501.0" y2="440.0" stroke="#343843" stroke-width="1"/><text x="501.0" y="458.0" fill="#9ea3ad" font-family="ui-monospace, SFMono-Regular, Menlo, monospace" font-size="11" text-anchor="middle">62s</text><line x1="716.5" y1="290.0" x2="716.5" y2="440.0" stroke="#343843" stroke-width="1"/><text x="716.5" y="458.0" fill="#9ea3ad" font-family="ui-monospace, SFMono-Regular, Menlo, monospace" font-size="11" text-anchor="middle">93s</text><line x1="932.0" y1="290.0" x2="932.0" y2="440.0" stroke="#343843" stroke-width="1"/><text x="932.0" y="458.0" fill="#9ea3ad" font-family="ui-monospace, SFMono-Regular, Menlo, monospace" font-size="11" text-anchor="middle">124s</text><line x1="70.0" y1="260.0" x2="88.0" y2="260.0" stroke="#ff7b72" stroke-width="3" stroke-linecap="round"/><text x="94.0" y="264.0" fill="#9ea3ad" font-family="ui-monospace, SFMono-Regular, Menlo, monospace" font-size="11">proxy</text><line x1="146.0" y1="260.0" x2="164.0" y2="260.0" stroke="#7ee787" stroke-width="3" stroke-linecap="round"/><text x="170.0" y="264.0" fill="#9ea3ad" font-family="ui-monospace, SFMono-Regular, Menlo, monospace" font-size="11">app</text><line x1="222.0" y1="260.0" x2="240.0" y2="260.0" stroke="#f6c177" stroke-width="3" stroke-linecap="round"/><text x="246.0" y="264.0" fill="#9ea3ad" font-family="ui-monospace, SFMono-Regular, Menlo, monospace" font-size="11">loadgen</text><path d="M 70.0 419.1 L 111.7 409.1 L 139.5 387.7 L 160.4 386.6 L 181.2 386.6 L 202.1 386.6 L 222.9 386.6 L 236.8 386.6 L 250.7 386.6 L 271.6 386.6 L 292.5 386.6 L 313.3 386.6 L 327.2 386.6 L 348.1 386.6 L 368.9 386.6 L 382.8 386.6 L 403.7 386.6 L 417.6 386.6 L 445.4 386.6 L 466.2 386.6 L 487.1 386.6 L 508.0 386.6 L 542.7 386.6 L 584.4 386.6 L 640.0 381.4 L 702.6 372.2 L 744.3 366.0 L 765.2 366.0 L 786.0 366.0 L 813.8 366.0 L 834.7 366.0 L 855.5 366.0 L 883.3 366.0 L 911.1 366.0 L 932.0 366.0" fill="none" stroke="#ff7b72" stroke-width="2.5" stroke-linejoin="round" stroke-linecap="round"/><path d="M 70.0 439.4 L 111.7 438.3 L 139.5 434.4 L 160.4 432.6 L 181.2 432.6 L 202.1 432.6 L 222.9 432.6 L 236.8 432.6 L 250.7 432.6 L 271.6 432.6 L 292.5 432.6 L 313.3 432.6 L 327.2 432.6 L 348.1 432.6 L 368.9 432.6 L 382.8 432.6 L 403.7 432.6 L 417.6 432.6 L 445.4 432.6 L 466.2 432.6 L 487.1 432.6 L 508.0 432.6 L 542.7 432.6 L 584.4 432.6 L 640.0 432.3 L 702.6 431.7 L 744.3 430.3 L 765.2 430.3 L 786.0 430.3 L 813.8 430.3 L 834.7 430.3 L 855.5 430.3 L 883.3 430.3 L 911.1 430.3 L 932.0 430.3" fill="none" stroke="#7ee787" stroke-width="2.5" stroke-linejoin="round" stroke-linecap="round"/><path d="M 70.0 381.6 L 111.7 368.7 L 139.5 359.6 L 160.4 359.6 L 181.2 359.6 L 202.1 359.6 L 222.9 359.6 L 236.8 359.6 L 250.7 359.6 L 271.6 359.6 L 292.5 359.6 L 313.3 359.6 L 327.2 359.6 L 348.1 359.6 L 368.9 359.6 L 382.8 359.6 L 403.7 359.6 L 417.6 359.6 L 445.4 359.6 L 466.2 359.6 L 487.1 359.6 L 508.0 359.6 L 542.7 344.3 L 584.4 340.3 L 640.0 349.8 L 702.6 349.1 L 744.3 348.9 L 765.2 348.9 L 786.0 348.9 L 813.8 348.9 L 834.7 348.9 L 855.5 348.9 L 883.3 348.9 L 911.1 348.9 L 932.0 348.9" fill="none" stroke="#f6c177" stroke-width="2.5" stroke-linejoin="round" stroke-linecap="round"/><text x="24" y="488.0" fill="#9ea3ad" font-family="ui-monospace, SFMono-Regular, Menlo, monospace" font-size="13">Memory used (GiB)</text><line x1="70.0" y1="498.0" x2="932.0" y2="498.0" stroke="#343843" stroke-width="1"/><text x="62.0" y="502.0" fill="#9ea3ad" font-family="ui-monospace, SFMono-Regular, Menlo, monospace" font-size="11" text-anchor="end">5.0</text><line x1="70.0" y1="535.5" x2="932.0" y2="535.5" stroke="#343843" stroke-width="1"/><text x="62.0" y="539.5" fill="#9ea3ad" font-family="ui-monospace, SFMono-Regular, Menlo, monospace" font-size="11" text-anchor="end">3.8</text><line x1="70.0" y1="573.0" x2="932.0" y2="573.0" stroke="#343843" stroke-width="1"/><text x="62.0" y="577.0" fill="#9ea3ad" font-family="ui-monospace, SFMono-Regular, Menlo, monospace" font-size="11" text-anchor="end">2.5</text><line x1="70.0" y1="610.5" x2="932.0" y2="610.5" stroke="#343843" stroke-width="1"/><text x="62.0" y="614.5" fill="#9ea3ad" font-family="ui-monospace, SFMono-Regular, Menlo, monospace" font-size="11" text-anchor="end">1.2</text><line x1="70.0" y1="648.0" x2="932.0" y2="648.0" stroke="#343843" stroke-width="1"/><text x="62.0" y="652.0" fill="#9ea3ad" font-family="ui-monospace, SFMono-Regular, Menlo, monospace" font-size="11" text-anchor="end">0.0</text><line x1="70.0" y1="498.0" x2="70.0" y2="648.0" stroke="#343843" stroke-width="1"/><text x="70.0" y="666.0" fill="#9ea3ad" font-family="ui-monospace, SFMono-Regular, Menlo, monospace" font-size="11" text-anchor="middle">0s</text><line x1="285.5" y1="498.0" x2="285.5" y2="648.0" stroke="#343843" stroke-width="1"/><text x="285.5" y="666.0" fill="#9ea3ad" font-family="ui-monospace, SFMono-Regular, Menlo, monospace" font-size="11" text-anchor="middle">31s</text><line x1="501.0" y1="498.0" x2="501.0" y2="648.0" stroke="#343843" stroke-width="1"/><text x="501.0" y="666.0" fill="#9ea3ad" font-family="ui-monospace, SFMono-Regular, Menlo, monospace" font-size="11" text-anchor="middle">62s</text><line x1="716.5" y1="498.0" x2="716.5" y2="648.0" stroke="#343843" stroke-width="1"/><text x="716.5" y="666.0" fill="#9ea3ad" font-family="ui-monospace, SFMono-Regular, Menlo, monospace" font-size="11" text-anchor="middle">93s</text><line x1="932.0" y1="498.0" x2="932.0" y2="648.0" stroke="#343843" stroke-width="1"/><text x="932.0" y="666.0" fill="#9ea3ad" font-family="ui-monospace, SFMono-Regular, Menlo, monospace" font-size="11" text-anchor="middle">124s</text><path d="M 70.0 621.2 L 111.7 594.3 L 139.5 581.0 L 160.4 576.2 L 181.2 575.4 L 202.1 575.0 L 222.9 575.1 L 236.8 575.1 L 250.7 575.2 L 271.6 575.6 L 292.5 575.8 L 313.3 575.7 L 327.2 575.9 L 348.1 576.4 L 368.9 576.1 L 382.8 576.6 L 403.7 575.9 L 417.6 575.3 L 445.4 575.7 L 466.2 575.0 L 487.1 577.7 L 508.0 575.5 L 542.7 580.5 L 584.4 569.4 L 640.0 569.8 L 702.6 567.0 L 744.3 563.7 L 765.2 564.8 L 786.0 563.7 L 813.8 562.4 L 834.7 562.2 L 855.5 562.3 L 883.3 562.2 L 911.1 562.1 L 932.0 562.2" fill="none" stroke="#a371f7" stroke-width="2.5" stroke-linejoin="round" stroke-linecap="round"/><text x="24" y="696.0" fill="#9ea3ad" font-family="ui-monospace, SFMono-Regular, Menlo, monospace" font-size="13">TLS connections</text><line x1="70.0" y1="706.0" x2="932.0" y2="706.0" stroke="#343843" stroke-width="1"/><text x="62.0" y="710.0" fill="#9ea3ad" font-family="ui-monospace, SFMono-Regular, Menlo, monospace" font-size="11" text-anchor="end">50000.0</text><line x1="70.0" y1="743.5" x2="932.0" y2="743.5" stroke="#343843" stroke-width="1"/><text x="62.0" y="747.5" fill="#9ea3ad" font-family="ui-monospace, SFMono-Regular, Menlo, monospace" font-size="11" text-anchor="end">37500.0</text><line x1="70.0" y1="781.0" x2="932.0" y2="781.0" stroke="#343843" stroke-width="1"/><text x="62.0" y="785.0" fill="#9ea3ad" font-family="ui-monospace, SFMono-Regular, Menlo, monospace" font-size="11" text-anchor="end">25000.0</text><line x1="70.0" y1="818.5" x2="932.0" y2="818.5" stroke="#343843" stroke-width="1"/><text x="62.0" y="822.5" fill="#9ea3ad" font-family="ui-monospace, SFMono-Regular, Menlo, monospace" font-size="11" text-anchor="end">12500.0</text><line x1="70.0" y1="856.0" x2="932.0" y2="856.0" stroke="#343843" stroke-width="1"/><text x="62.0" y="860.0" fill="#9ea3ad" font-family="ui-monospace, SFMono-Regular, Menlo, monospace" font-size="11" text-anchor="end">0.0</text><line x1="70.0" y1="706.0" x2="70.0" y2="856.0" stroke="#343843" stroke-width="1"/><text x="70.0" y="874.0" fill="#9ea3ad" font-family="ui-monospace, SFMono-Regular, Menlo, monospace" font-size="11" text-anchor="middle">0s</text><line x1="285.5" y1="706.0" x2="285.5" y2="856.0" stroke="#343843" stroke-width="1"/><text x="285.5" y="874.0" fill="#9ea3ad" font-family="ui-monospace, SFMono-Regular, Menlo, monospace" font-size="11" text-anchor="middle">31s</text><line x1="501.0" y1="706.0" x2="501.0" y2="856.0" stroke="#343843" stroke-width="1"/><text x="501.0" y="874.0" fill="#9ea3ad" font-family="ui-monospace, SFMono-Regular, Menlo, monospace" font-size="11" text-anchor="middle">62s</text><line x1="716.5" y1="706.0" x2="716.5" y2="856.0" stroke="#343843" stroke-width="1"/><text x="716.5" y="874.0" fill="#9ea3ad" font-family="ui-monospace, SFMono-Regular, Menlo, monospace" font-size="11" text-anchor="middle">93s</text><line x1="932.0" y1="706.0" x2="932.0" y2="856.0" stroke="#343843" stroke-width="1"/><text x="932.0" y="874.0" fill="#9ea3ad" font-family="ui-monospace, SFMono-Regular, Menlo, monospace" font-size="11" text-anchor="middle">124s</text><path d="M 70.0 795.9 L 111.7 795.9 L 139.5 796.0 L 160.4 796.0 L 181.2 796.0 L 202.1 796.0 L 222.9 796.0 L 236.8 796.0 L 250.7 796.0 L 271.6 796.0 L 292.5 796.0 L 313.3 796.0 L 327.2 796.0 L 348.1 796.0 L 368.9 796.0 L 382.8 796.0 L 403.7 796.0 L 417.6 796.0 L 445.4 796.0 L 466.2 798.0 L 487.1 806.8 L 508.0 806.8 L 542.7 796.6 L 584.4 796.0 L 640.0 795.7 L 702.6 795.5 L 744.3 796.0 L 765.2 796.0 L 786.0 796.0 L 813.8 796.0 L 834.7 796.0 L 855.5 796.0 L 883.3 796.0 L 911.1 796.0 L 932.0 796.0" fill="none" stroke="#f6c177" stroke-width="2.5" stroke-linejoin="round" stroke-linecap="round"/></svg>