<svg xmlns="http://www.w3.org/2000/svg" width="960" height="906" viewBox="0 0 960 906"><rect width="100%" height="100%" fill="#101114"/><text x="24" y="34" fill="#d7dae0" font-family="ui-monospace, SFMono-Regular, Menlo, monospace" font-size="18" font-weight="700">caddy-single-plaintext-c2500</text><text x="24" y="54" fill="#9ea3ad" font-family="ui-monospace, SFMono-Regular, Menlo, monospace" font-size="12">200 rps 7004.48 | total rps 7004.48 | p99 2251.87 ms | non-200 0% | errors 0</text><text x="24" y="72.0" fill="#9ea3ad" font-family="ui-monospace, SFMono-Regular, Menlo, monospace" font-size="13">CPU (% total)</text><line x1="70.0" y1="82.0" x2="932.0" y2="82.0" stroke="#343843" stroke-width="1"/><text x="62.0" y="86.0" fill="#9ea3ad" font-family="ui-monospace, SFMono-Regular, Menlo, monospace" font-size="11" text-anchor="end">100.0</text><line x1="70.0" y1="119.5" x2="932.0" y2="119.5" stroke="#343843" stroke-width="1"/><text x="62.0" y="123.5" fill="#9ea3ad" font-family="ui-monospace, SFMono-Regular, Menlo, monospace" font-size="11" text-anchor="end">75.0</text><line x1="70.0" y1="157.0" x2="932.0" y2="157.0" stroke="#343843" stroke-width="1"/><text x="62.0" y="161.0" fill="#9ea3ad" font-family="ui-monospace, SFMono-Regular, Menlo, monospace" font-size="11" text-anchor="end">50.0</text><line x1="70.0" y1="194.5" x2="932.0" y2="194.5" stroke="#343843" stroke-width="1"/><text x="62.0" y="198.5" fill="#9ea3ad" font-family="ui-monospace, SFMono-Regular, Menlo, monospace" font-size="11" text-anchor="end">25.0</text><line x1="70.0" y1="232.0" x2="932.0" y2="232.0" stroke="#343843" stroke-width="1"/><text x="62.0" y="236.0" fill="#9ea3ad" font-family="ui-monospace, SFMono-Regular, Menlo, monospace" font-size="11" text-anchor="end">0.0</text><line x1="70.0" y1="82.0" x2="70.0" y2="232.0" stroke="#343843" stroke-width="1"/><text x="70.0" y="250.0" fill="#9ea3ad" font-family="ui-monospace, SFMono-Regular, Menlo, monospace" font-size="11" text-anchor="middle">0s</text><line x1="285.5" y1="82.0" x2="285.5" y2="232.0" stroke="#343843" stroke-width="1"/><text x="285.5" y="250.0" fill="#9ea3ad" font-family="ui-monospace, SFMono-Regular, Menlo, monospace" font-size="11" text-anchor="middle">11s</text><line x1="501.0" y1="82.0" x2="501.0" y2="232.0" stroke="#343843" stroke-width="1"/><text x="501.0" y="250.0" fill="#9ea3ad" font-family="ui-monospace, SFMono-Regular, Menlo, monospace" font-size="11" text-anchor="middle">22s</text><line x1="716.5" y1="82.0" x2="716.5" y2="232.0" stroke="#343843" stroke-width="1"/><text x="716.5" y="250.0" fill="#9ea3ad" font-family="ui-monospace, SFMono-Regular, Menlo, monospace" font-size="11" text-anchor="middle">32s</text><line x1="932.0" y1="82.0" x2="932.0" y2="232.0" stroke="#343843" stroke-width="1"/><text x="932.0" y="250.0" fill="#9ea3ad" font-family="ui-monospace, SFMono-Regular, Menlo, monospace" font-size="11" text-anchor="middle">43s</text><path d="M 70.0 231.2 L 90.0 225.0 L 110.1 90.3 L 130.1 86.2 L 150.2 82.7 L 170.2 88.3 L 210.3 86.0 L 230.4 83.3 L 250.4 84.0 L 270.5 84.6 L 290.5 84.1 L 310.6 84.6 L 330.6 83.4 L 350.7 84.6 L 390.7 83.3 L 410.8 82.0 L 430.8 85.3 L 450.9 82.0 L 470.9 82.6 L 491.0 83.9 L 531.1 88.4 L 551.1 82.6 L 571.2 82.0 L 591.2 85.3 L 611.3 83.4 L 631.3 90.6 L 651.3 83.9 L 671.4 87.5 L 711.5 89.9 L 731.5 83.3 L 751.6 82.0 L 771.6 84.6 L 791.7 83.3 L 811.7 83.8 L 851.8 82.6 L 871.9 82.0 L 891.9 83.3 L 912.0 138.9 L 932.0 225.6" fill="none" stroke="#4ea1ff" stroke-width="2.5" stroke-linejoin="round" stroke-linecap="round"/><text x="24" y="280.0" fill="#9ea3ad" font-family="ui-monospace, SFMono-Regular, Menlo, monospace" font-size="13">Process RSS (GiB)</text><line x1="70.0" y1="290.0" x2="932.0" y2="290.0" stroke="#343843" stroke-width="1"/><text x="62.0" y="294.0" fill="#9ea3ad" font-family="ui-monospace, SFMono-Regular, Menlo, monospace" font-size="11" text-anchor="end">0.5</text><line x1="70.0" y1="327.5" x2="932.0" y2="327.5" stroke="#343843" stroke-width="1"/><text x="62.0" y="331.5" fill="#9ea3ad" font-family="ui-monospace, SFMono-Regular, Menlo, monospace" font-size="11" text-anchor="end">0.4</text><line x1="70.0" y1="365.0" x2="932.0" y2="365.0" stroke="#343843" stroke-width="1"/><text x="62.0" y="369.0" fill="#9ea3ad" font-family="ui-monospace, SFMono-Regular, Menlo, monospace" font-size="11" text-anchor="end">0.2</text><line x1="70.0" y1="402.5" x2="932.0" y2="402.5" stroke="#343843" stroke-width="1"/><text x="62.0" y="406.5" fill="#9ea3ad" font-family="ui-monospace, SFMono-Regular, Menlo, monospace" font-size="11" text-anchor="end">0.1</text><line x1="70.0" y1="440.0" x2="932.0" y2="440.0" stroke="#343843" stroke-width="1"/><text x="62.0" y="444.0" fill="#9ea3ad" font-family="ui-monospace, SFMono-Regular, Menlo, monospace" font-size="11" text-anchor="end">0.0</text><line x1="70.0" y1="290.0" x2="70.0" y2="440.0" stroke="#343843" stroke-width="1"/><text x="70.0" y="458.0" fill="#9ea3ad" font-family="ui-monospace, SFMono-Regular, Menlo, monospace" font-size="11" text-anchor="middle">0s</text><line x1="285.5" y1="290.0" x2="285.5" y2="440.0" stroke="#343843" stroke-width="1"/><text x="285.5" y="458.0" fill="#9ea3ad" font-family="ui-monospace, SFMono-Regular, Menlo, monospace" font-size="11" text-anchor="middle">11s</text><line x1="501.0" y1="290.0" x2="501.0" y2="440.0" stroke="#343843" stroke-width="1"/><text x="501.0" y="458.0" fill="#9ea3ad" font-family="ui-monospace, SFMono-Regular, Menlo, monospace" font-size="11" text-anchor="middle">22s</text><line x1="716.5" y1="290.0" x2="716.5" y2="440.0" stroke="#343843" stroke-width="1"/><text x="716.5" y="458.0" fill="#9ea3ad" font-family="ui-monospace, SFMono-Regular, Menlo, monospace" font-size="11" text-anchor="middle">32s</text><line x1="932.0" y1="290.0" x2="932.0" y2="440.0" stroke="#343843" stroke-width="1"/><text x="932.0" y="458.0" fill="#9ea3ad" font-family="ui-monospace, SFMono-Regular, Menlo, monospace" font-size="11" text-anchor="middle">43s</text><line x1="70.0" y1="260.0" x2="88.0" y2="260.0" stroke="#ff7b72" stroke-width="3" stroke-linecap="round"/><text x="94.0" y="264.0" fill="#9ea3ad" font-family="ui-monospace, SFMono-Regular, Menlo, monospace" font-size="11">proxy</text><line x1="146.0" y1="260.0" x2="164.0" y2="260.0" stroke="#7ee787" stroke-width="3" stroke-linecap="round"/><text x="170.0" y="264.0" fill="#9ea3ad" font-family="ui-monospace, SFMono-Regular, Menlo, monospace" font-size="11">app</text><path d="M 70.0 424.8 L 90.0 424.8 L 110.1 405.6 L 130.1 382.5 L 150.2 347.8 L 170.2 334.2 L 210.3 339.8 L 230.4 340.7 L 250.4 337.6 L 270.5 339.0 L 290.5 344.8 L 310.6 341.8 L 330.6 344.4 L 350.7 342.4 L 390.7 337.7 L 410.8 343.8 L 430.8 345.6 L 450.9 339.1 L 470.9 346.6 L 491.0 345.9 L 531.1 341.5 L 551.1 338.7 L 571.2 344.2 L 591.2 347.4 L 611.3 346.9 L 631.3 341.1 L 651.3 338.6 L 671.4 336.4 L 711.5 347.4 L 731.5 343.3 L 751.6 328.9 L 771.6 333.5 L 791.7 338.9 L 811.7 342.9 L 851.8 347.7 L 871.9 347.7 L 891.9 344.1 L 912.0 340.7 L 932.0 340.8" fill="none" stroke="#ff7b72" stroke-width="2.5" stroke-linejoin="round" stroke-linecap="round"/><path d="M 70.0 436.7 L 90.0 436.7 L 110.1 434.6 L 130.1 429.3 L 150.2 420.7 L 170.2 412.8 L 210.3 412.4 L 230.4 410.7 L 250.4 409.6 L 270.5 409.5 L 290.5 411.1 L 310.6 411.1 L 330.6 411.1 L 350.7 414.3 L 390.7 411.9 L 410.8 412.0 L 430.8 411.1 L 450.9 411.0 L 470.9 411.1 L 491.0 411.1 L 531.1 411.0 L 551.1 410.0 L 571.2 413.6 L 591.2 412.9 L 611.3 414.2 L 631.3 413.0 L 651.3 412.8 L 671.4 412.7 L 711.5 411.2 L 731.5 410.6 L 751.6 410.6 L 771.6 411.2 L 791.7 411.2 L 811.7 410.7 L 851.8 410.2 L 871.9 410.1 L 891.9 410.2 L 912.0 412.2 L 932.0 412.2" fill="none" stroke="#7ee787" stroke-width="2.5" stroke-linejoin="round" stroke-linecap="round"/><text x="24" y="488.0" fill="#9ea3ad" font-family="ui-monospace, SFMono-Regular, Menlo, monospace" font-size="13">Memory used (GiB)</text><line x1="70.0" y1="498.0" x2="932.0" y2="498.0" stroke="#343843" stroke-width="1"/><text x="62.0" y="502.0" fill="#9ea3ad" font-family="ui-monospace, SFMono-Regular, Menlo, monospace" font-size="11" text-anchor="end">1.0</text><line x1="70.0" y1="535.5" x2="932.0" y2="535.5" stroke="#343843" stroke-width="1"/><text x="62.0" y="539.5" fill="#9ea3ad" font-family="ui-monospace, SFMono-Regular, Menlo, monospace" font-size="11" text-anchor="end">0.8</text><line x1="70.0" y1="573.0" x2="932.0" y2="573.0" stroke="#343843" stroke-width="1"/><text x="62.0" y="577.0" fill="#9ea3ad" font-family="ui-monospace, SFMono-Regular, Menlo, monospace" font-size="11" text-anchor="end">0.5</text><line x1="70.0" y1="610.5" x2="932.0" y2="610.5" stroke="#343843" stroke-width="1"/><text x="62.0" y="614.5" fill="#9ea3ad" font-family="ui-monospace, SFMono-Regular, Menlo, monospace" font-size="11" text-anchor="end">0.2</text><line x1="70.0" y1="648.0" x2="932.0" y2="648.0" stroke="#343843" stroke-width="1"/><text x="62.0" y="652.0" fill="#9ea3ad" font-family="ui-monospace, SFMono-Regular, Menlo, monospace" font-size="11" text-anchor="end">0.0</text><line x1="70.0" y1="498.0" x2="70.0" y2="648.0" stroke="#343843" stroke-width="1"/><text x="70.0" y="666.0" fill="#9ea3ad" font-family="ui-monospace, SFMono-Regular, Menlo, monospace" font-size="11" text-anchor="middle">0s</text><line x1="285.5" y1="498.0" x2="285.5" y2="648.0" stroke="#343843" stroke-width="1"/><text x="285.5" y="666.0" fill="#9ea3ad" font-family="ui-monospace, SFMono-Regular, Menlo, monospace" font-size="11" text-anchor="middle">11s</text><line x1="501.0" y1="498.0" x2="501.0" y2="648.0" stroke="#343843" stroke-width="1"/><text x="501.0" y="666.0" fill="#9ea3ad" font-family="ui-monospace, SFMono-Regular, Menlo, monospace" font-size="11" text-anchor="middle">22s</text><line x1="716.5" y1="498.0" x2="716.5" y2="648.0" stroke="#343843" stroke-width="1"/><text x="716.5" y="666.0" fill="#9ea3ad" font-family="ui-monospace, SFMono-Regular, Menlo, monospace" font-size="11" text-anchor="middle">32s</text><line x1="932.0" y1="498.0" x2="932.0" y2="648.0" stroke="#343843" stroke-width="1"/><text x="932.0" y="666.0" fill="#9ea3ad" font-family="ui-monospace, SFMono-Regular, Menlo, monospace" font-size="11" text-anchor="middle">43s</text><path d="M 70.0 604.1 L 90.0 603.7 L 110.1 572.7 L 130.1 554.9 L 150.2 530.2 L 170.2 515.9 L 210.3 517.2 L 230.4 516.4 L 250.4 513.1 L 270.5 513.1 L 290.5 517.8 L 310.6 518.3 L 330.6 521.6 L 350.7 522.3 L 390.7 517.4 L 410.8 519.2 L 430.8 519.3 L 450.9 515.8 L 470.9 520.1 L 491.0 519.9 L 531.1 516.8 L 551.1 514.8 L 571.2 520.2 L 591.2 521.7 L 611.3 521.1 L 631.3 516.9 L 651.3 515.8 L 671.4 515.6 L 711.5 517.5 L 731.5 516.9 L 751.6 509.3 L 771.6 513.0 L 791.7 516.1 L 811.7 517.8 L 851.8 519.6 L 871.9 518.8 L 891.9 517.4 L 912.0 549.9 L 932.0 549.6" fill="none" stroke="#a371f7" stroke-width="2.5" stroke-linejoin="round" stroke-linecap="round"/><text x="24" y="696.0" fill="#9ea3ad" font-family="ui-monospace, SFMono-Regular, Menlo, monospace" font-size="13">TLS connections</text><line x1="70.0" y1="706.0" x2="932.0" y2="706.0" stroke="#343843" stroke-width="1"/><text x="62.0" y="710.0" fill="#9ea3ad" font-family="ui-monospace, SFMono-Regular, Menlo, monospace" font-size="11" text-anchor="end">5000.0</text><line x1="70.0" y1="743.5" x2="932.0" y2="743.5" stroke="#343843" stroke-width="1"/><text x="62.0" y="747.5" fill="#9ea3ad" font-family="ui-monospace, SFMono-Regular, Menlo, monospace" font-size="11" text-anchor="end">3750.0</text><line x1="70.0" y1="781.0" x2="932.0" y2="781.0" stroke="#343843" stroke-width="1"/><text x="62.0" y="785.0" fill="#9ea3ad" font-family="ui-monospace, SFMono-Regular, Menlo, monospace" font-size="11" text-anchor="end">2500.0</text><line x1="70.0" y1="818.5" x2="932.0" y2="818.5" stroke="#343843" stroke-width="1"/><text x="62.0" y="822.5" fill="#9ea3ad" font-family="ui-monospace, SFMono-Regular, Menlo, monospace" font-size="11" text-anchor="end">1250.0</text><line x1="70.0" y1="856.0" x2="932.0" y2="856.0" stroke="#343843" stroke-width="1"/><text x="62.0" y="860.0" fill="#9ea3ad" font-family="ui-monospace, SFMono-Regular, Menlo, monospace" font-size="11" text-anchor="end">0.0</text><line x1="70.0" y1="706.0" x2="70.0" y2="856.0" stroke="#343843" stroke-width="1"/><text x="70.0" y="874.0" fill="#9ea3ad" font-family="ui-monospace, SFMono-Regular, Menlo, monospace" font-size="11" text-anchor="middle">0s</text><line x1="285.5" y1="706.0" x2="285.5" y2="856.0" stroke="#343843" stroke-width="1"/><text x="285.5" y="874.0" fill="#9ea3ad" font-family="ui-monospace, SFMono-Regular, Menlo, monospace" font-size="11" text-anchor="middle">11s</text><line x1="501.0" y1="706.0" x2="501.0" y2="856.0" stroke="#343843" stroke-width="1"/><text x="501.0" y="874.0" fill="#9ea3ad" font-family="ui-monospace, SFMono-Regular, Menlo, monospace" font-size="11" text-anchor="middle">22s</text><line x1="716.5" y1="706.0" x2="716.5" y2="856.0" stroke="#343843" stroke-width="1"/><text x="716.5" y="874.0" fill="#9ea3ad" font-family="ui-monospace, SFMono-Regular, Menlo, monospace" font-size="11" text-anchor="middle">32s</text><line x1="932.0" y1="706.0" x2="932.0" y2="856.0" stroke="#343843" stroke-width="1"/><text x="932.0" y="874.0" fill="#9ea3ad" font-family="ui-monospace, SFMono-Regular, Menlo, monospace" font-size="11" text-anchor="middle">43s</text><path d="M 70.0 856.0 L 90.0 848.8 L 110.1 780.5 L 130.1 774.2 L 150.2 773.2 L 170.2 773.2 L 210.3 773.2 L 230.4 773.2 L 250.4 773.2 L 270.5 773.2 L 290.5 773.2 L 310.6 781.0 L 330.6 780.7 L 350.7 778.3 L 390.7 778.3 L 410.8 778.3 L 430.8 778.3 L 450.9 778.3 L 470.9 778.3 L 491.0 778.3 L 531.1 778.3 L 551.1 778.3 L 571.2 778.3 L 591.2 778.3 L 611.3 778.3 L 631.3 778.3 L 651.3 778.3 L 671.4 778.3 L 711.5 778.3 L 731.5 778.3 L 751.6 778.3 L 771.6 778.3 L 791.7 778.3 L 811.7 778.3 L 851.8 778.3 L 871.9 778.3 L 891.9 778.3 L 912.0 856.0 L 932.0 856.0" fill="none" stroke="#f6c177" stroke-width="2.5" stroke-linejoin="round" stroke-linecap="round"/></svg>