<svg xmlns="http://www.w3.org/2000/svg" width="960" height="560" viewBox="0 0 960 560"><rect width="100%" height="100%" fill="#101114"/><text x="24" y="34" fill="#d7dae0" font-family="ui-monospace, SFMono-Regular, Menlo, monospace" font-size="18" font-weight="700">Client error rate by concurrency</text><text x="24" y="56" fill="#9ea3ad" font-family="ui-monospace, SFMono-Regular, Menlo, monospace" font-size="12">Lower is better. Client-side/load-generator errors as a share of attempted outcomes.</text><line x1="86.0" y1="76.0" x2="750.0" y2="76.0" stroke="#343843" stroke-width="1"/><text x="76.0" y="80.0" fill="#9ea3ad" font-family="ui-monospace, SFMono-Regular, Menlo, monospace" font-size="11" text-anchor="end">100</text><line x1="86.0" y1="157.2" x2="750.0" y2="157.2" stroke="#343843" stroke-width="1"/><text x="76.0" y="161.2" fill="#9ea3ad" font-family="ui-monospace, SFMono-Regular, Menlo, monospace" font-size="11" text-anchor="end">80</text><line x1="86.0" y1="238.4" x2="750.0" y2="238.4" stroke="#343843" stroke-width="1"/><text x="76.0" y="242.4" fill="#9ea3ad" font-family="ui-monospace, SFMono-Regular, Menlo, monospace" font-size="11" text-anchor="end">60</text><line x1="86.0" y1="319.6" x2="750.0" y2="319.6" stroke="#343843" stroke-width="1"/><text x="76.0" y="323.6" fill="#9ea3ad" font-family="ui-monospace, SFMono-Regular, Menlo, monospace" font-size="11" text-anchor="end">40</text><line x1="86.0" y1="400.8" x2="750.0" y2="400.8" stroke="#343843" stroke-width="1"/><text x="76.0" y="404.8" fill="#9ea3ad" font-family="ui-monospace, SFMono-Regular, Menlo, monospace" font-size="11" text-anchor="end">20</text><line x1="86.0" y1="482.0" x2="750.0" y2="482.0" stroke="#343843" stroke-width="1"/><text x="76.0" y="486.0" fill="#9ea3ad" font-family="ui-monospace, SFMono-Regular, Menlo, monospace" font-size="11" text-anchor="end">0.0</text><line x1="86.0" y1="76.0" x2="86.0" y2="482.0" stroke="#343843" stroke-width="1"/><text x="86.0" y="502.0" fill="#9ea3ad" font-family="ui-monospace, SFMono-Regular, Menlo, monospace" font-size="11" text-anchor="middle">1000</text><line x1="138.4" y1="76.0" x2="138.4" y2="482.0" stroke="#343843" stroke-width="1"/><text x="138.4" y="502.0" fill="#9ea3ad" font-family="ui-monospace, SFMono-Regular, Menlo, monospace" font-size="11" text-anchor="middle">2500</text><line x1="225.8" y1="76.0" x2="225.8" y2="482.0" stroke="#343843" stroke-width="1"/><text x="225.8" y="502.0" fill="#9ea3ad" font-family="ui-monospace, SFMono-Regular, Menlo, monospace" font-size="11" text-anchor="middle">5000</text><line x1="313.2" y1="76.0" x2="313.2" y2="482.0" stroke="#343843" stroke-width="1"/><text x="313.2" y="502.0" fill="#9ea3ad" font-family="ui-monospace, SFMono-Regular, Menlo, monospace" font-size="11" text-anchor="middle">7500</text><line x1="400.5" y1="76.0" x2="400.5" y2="482.0" stroke="#343843" stroke-width="1"/><text x="400.5" y="502.0" fill="#9ea3ad" font-family="ui-monospace, SFMono-Regular, Menlo, monospace" font-size="11" text-anchor="middle">10000</text><line x1="575.3" y1="76.0" x2="575.3" y2="482.0" stroke="#343843" stroke-width="1"/><text x="575.3" y="502.0" fill="#9ea3ad" font-family="ui-monospace, SFMono-Regular, Menlo, monospace" font-size="11" text-anchor="middle">15000</text><line x1="750.0" y1="76.0" x2="750.0" y2="482.0" stroke="#343843" stroke-width="1"/><text x="750.0" y="502.0" fill="#9ea3ad" font-family="ui-monospace, SFMono-Regular, Menlo, monospace" font-size="11" text-anchor="middle">20000</text><path d="M 86.0 482.0 L 138.4 482.0 L 225.8 482.0 L 313.2 482.0 L 400.5 482.0 L 575.3 396.7 L 750.0 403.9" fill="none" stroke="#4ea1ff" stroke-width="2.8" stroke-linejoin="round" stroke-linecap="round"/><circle cx="86.0" cy="482.0" r="3.5" fill="#4ea1ff"/><circle cx="138.4" cy="482.0" r="3.5" fill="#4ea1ff"/><circle cx="225.8" cy="482.0" r="3.5" fill="#4ea1ff"/><circle cx="313.2" cy="482.0" r="3.5" fill="#4ea1ff"/><circle cx="400.5" cy="482.0" r="3.5" fill="#4ea1ff"/><circle cx="575.3" cy="396.7" r="3.5" fill="#4ea1ff"/><circle cx="750.0" cy="403.9" r="3.5" fill="#4ea1ff"/><path d="M 86.0 482.0 L 138.4 482.0 L 225.8 482.0 L 313.2 482.0 L 400.5 482.0 L 575.3 361.7 L 750.0 358.2" fill="none" stroke="#7ee787" stroke-width="2.8" stroke-linejoin="round" stroke-linecap="round"/><circle cx="86.0" cy="482.0" r="3.5" fill="#7ee787"/><circle cx="138.4" cy="482.0" r="3.5" fill="#7ee787"/><circle cx="225.8" cy="482.0" r="3.5" fill="#7ee787"/><circle cx="313.2" cy="482.0" r="3.5" fill="#7ee787"/><circle cx="400.5" cy="482.0" r="3.5" fill="#7ee787"/><circle cx="575.3" cy="361.7" r="3.5" fill="#7ee787"/><circle cx="750.0" cy="358.2" r="3.5" fill="#7ee787"/><path d="M 86.0 482.0 L 138.4 482.0 L 225.8 482.0 L 313.2 480.1 L 400.5 451.1 L 575.3 165.4 L 750.0 110.9" fill="none" stroke="#f6c177" stroke-width="2.8" stroke-linejoin="round" stroke-linecap="round"/><circle cx="86.0" cy="482.0" r="3.5" fill="#f6c177"/><circle cx="138.4" cy="482.0" r="3.5" fill="#f6c177"/><circle cx="225.8" cy="482.0" r="3.5" fill="#f6c177"/><circle cx="313.2" cy="480.1" r="3.5" fill="#f6c177"/><circle cx="400.5" cy="451.1" r="3.5" fill="#f6c177"/><circle cx="575.3" cy="165.4" r="3.5" fill="#f6c177"/><circle cx="750.0" cy="110.9" r="3.5" fill="#f6c177"/><text x="774.0" y="76.0" fill="#9ea3ad" font-family="ui-monospace, SFMono-Regular, Menlo, monospace" font-size="12" font-weight="700">series</text><line x1="774.0" y1="96.0" x2="798.0" y2="96.0" stroke="#4ea1ff" stroke-width="3" stroke-linecap="round"/><text x="808.0" y="100.0" fill="#d7dae0" font-family="ui-monospace, SFMono-Regular, Menlo, monospace" font-size="12">nginx single</text><line x1="774.0" y1="120.0" x2="798.0" y2="120.0" stroke="#7ee787" stroke-width="3" stroke-linecap="round"/><text x="808.0" y="124.0" fill="#d7dae0" font-family="ui-monospace, SFMono-Regular, Menlo, monospace" font-size="12">tako single</text><line x1="774.0" y1="144.0" x2="798.0" y2="144.0" stroke="#f6c177" stroke-width="3" stroke-linecap="round"/><text x="808.0" y="148.0" fill="#d7dae0" font-family="ui-monospace, SFMono-Regular, Menlo, monospace" font-size="12">caddy single</text><text x="418.0" y="538.0" fill="#9ea3ad" font-family="ui-monospace, SFMono-Regular, Menlo, monospace" font-size="12" text-anchor="middle">concurrency</text><text x="20" y="279.0" fill="#9ea3ad" font-family="ui-monospace, SFMono-Regular, Menlo, monospace" font-size="12" transform="rotate(-90 20 279.0)" text-anchor="middle">client errors (%)</text></svg>