<svg xmlns="http://www.w3.org/2000/svg" width="960" height="560" viewBox="0 0 960 560"><rect width="100%" height="100%" fill="#101114"/><text x="24" y="34" fill="#d7dae0" font-family="ui-monospace, SFMono-Regular, Menlo, monospace" font-size="18" font-weight="700">p99 latency by concurrency</text><text x="24" y="56" fill="#9ea3ad" font-family="ui-monospace, SFMono-Regular, Menlo, monospace" font-size="12">Lower is better. Same HTTPS route, app, certificate, and VM-local load generator.</text><line x1="86.0" y1="76.0" x2="750.0" y2="76.0" stroke="#343843" stroke-width="1"/><text x="76.0" y="80.0" fill="#9ea3ad" font-family="ui-monospace, SFMono-Regular, Menlo, monospace" font-size="11" text-anchor="end">10k</text><line x1="86.0" y1="157.2" x2="750.0" y2="157.2" stroke="#343843" stroke-width="1"/><text x="76.0" y="161.2" fill="#9ea3ad" font-family="ui-monospace, SFMono-Regular, Menlo, monospace" font-size="11" text-anchor="end">8k</text><line x1="86.0" y1="238.4" x2="750.0" y2="238.4" stroke="#343843" stroke-width="1"/><text x="76.0" y="242.4" fill="#9ea3ad" font-family="ui-monospace, SFMono-Regular, Menlo, monospace" font-size="11" text-anchor="end">6k</text><line x1="86.0" y1="319.6" x2="750.0" y2="319.6" stroke="#343843" stroke-width="1"/><text x="76.0" y="323.6" fill="#9ea3ad" font-family="ui-monospace, SFMono-Regular, Menlo, monospace" font-size="11" text-anchor="end">4k</text><line x1="86.0" y1="400.8" x2="750.0" y2="400.8" stroke="#343843" stroke-width="1"/><text x="76.0" y="404.8" fill="#9ea3ad" font-family="ui-monospace, SFMono-Regular, Menlo, monospace" font-size="11" text-anchor="end">2k</text><line x1="86.0" y1="482.0" x2="750.0" y2="482.0" stroke="#343843" stroke-width="1"/><text x="76.0" y="486.0" fill="#9ea3ad" font-family="ui-monospace, SFMono-Regular, Menlo, monospace" font-size="11" text-anchor="end">0.0</text><line x1="86.0" y1="76.0" x2="86.0" y2="482.0" stroke="#343843" stroke-width="1"/><text x="86.0" y="502.0" fill="#9ea3ad" font-family="ui-monospace, SFMono-Regular, Menlo, monospace" font-size="11" text-anchor="middle">1000</text><line x1="138.4" y1="76.0" x2="138.4" y2="482.0" stroke="#343843" stroke-width="1"/><text x="138.4" y="502.0" fill="#9ea3ad" font-family="ui-monospace, SFMono-Regular, Menlo, monospace" font-size="11" text-anchor="middle">2500</text><line x1="225.8" y1="76.0" x2="225.8" y2="482.0" stroke="#343843" stroke-width="1"/><text x="225.8" y="502.0" fill="#9ea3ad" font-family="ui-monospace, SFMono-Regular, Menlo, monospace" font-size="11" text-anchor="middle">5000</text><line x1="313.2" y1="76.0" x2="313.2" y2="482.0" stroke="#343843" stroke-width="1"/><text x="313.2" y="502.0" fill="#9ea3ad" font-family="ui-monospace, SFMono-Regular, Menlo, monospace" font-size="11" text-anchor="middle">7500</text><line x1="400.5" y1="76.0" x2="400.5" y2="482.0" stroke="#343843" stroke-width="1"/><text x="400.5" y="502.0" fill="#9ea3ad" font-family="ui-monospace, SFMono-Regular, Menlo, monospace" font-size="11" text-anchor="middle">10000</text><line x1="575.3" y1="76.0" x2="575.3" y2="482.0" stroke="#343843" stroke-width="1"/><text x="575.3" y="502.0" fill="#9ea3ad" font-family="ui-monospace, SFMono-Regular, Menlo, monospace" font-size="11" text-anchor="middle">15000</text><line x1="750.0" y1="76.0" x2="750.0" y2="482.0" stroke="#343843" stroke-width="1"/><text x="750.0" y="502.0" fill="#9ea3ad" font-family="ui-monospace, SFMono-Regular, Menlo, monospace" font-size="11" text-anchor="middle">20000</text><path d="M 86.0 477.9 L 138.4 472.3 L 225.8 411.4 L 313.2 403.2 L 400.5 367.5 L 575.3 93.6 L 750.0 89.2" fill="none" stroke="#4ea1ff" stroke-width="2.8" stroke-linejoin="round" stroke-linecap="round"/><circle cx="86.0" cy="477.9" r="3.5" fill="#4ea1ff"/><circle cx="138.4" cy="472.3" r="3.5" fill="#4ea1ff"/><circle cx="225.8" cy="411.4" r="3.5" fill="#4ea1ff"/><circle cx="313.2" cy="403.2" r="3.5" fill="#4ea1ff"/><circle cx="400.5" cy="367.5" r="3.5" fill="#4ea1ff"/><circle cx="575.3" cy="93.6" r="3.5" fill="#4ea1ff"/><circle cx="750.0" cy="89.2" r="3.5" fill="#4ea1ff"/><path d="M 86.0 475.6 L 138.4 457.2 L 225.8 374.7 L 313.2 296.3 L 400.5 190.1 L 575.3 98.7 L 750.0 87.2" fill="none" stroke="#7ee787" stroke-width="2.8" stroke-linejoin="round" stroke-linecap="round"/><circle cx="86.0" cy="475.6" r="3.5" fill="#7ee787"/><circle cx="138.4" cy="457.2" r="3.5" fill="#7ee787"/><circle cx="225.8" cy="374.7" r="3.5" fill="#7ee787"/><circle cx="313.2" cy="296.3" r="3.5" fill="#7ee787"/><circle cx="400.5" cy="190.1" r="3.5" fill="#7ee787"/><circle cx="575.3" cy="98.7" r="3.5" fill="#7ee787"/><circle cx="750.0" cy="87.2" r="3.5" fill="#7ee787"/><path d="M 86.0 473.6 L 138.4 390.6 L 225.8 285.0 L 313.2 89.5 L 400.5 80.6 L 575.3 78.4 L 750.0 76.7" fill="none" stroke="#f6c177" stroke-width="2.8" stroke-linejoin="round" stroke-linecap="round"/><circle cx="86.0" cy="473.6" r="3.5" fill="#f6c177"/><circle cx="138.4" cy="390.6" r="3.5" fill="#f6c177"/><circle cx="225.8" cy="285.0" r="3.5" fill="#f6c177"/><circle cx="313.2" cy="89.5" r="3.5" fill="#f6c177"/><circle cx="400.5" cy="80.6" r="3.5" fill="#f6c177"/><circle cx="575.3" cy="78.4" r="3.5" fill="#f6c177"/><circle cx="750.0" cy="76.7" r="3.5" fill="#f6c177"/><text x="774.0" y="76.0" fill="#9ea3ad" font-family="ui-monospace, SFMono-Regular, Menlo, monospace" font-size="12" font-weight="700">series</text><line x1="774.0" y1="96.0" x2="798.0" y2="96.0" stroke="#4ea1ff" stroke-width="3" stroke-linecap="round"/><text x="808.0" y="100.0" fill="#d7dae0" font-family="ui-monospace, SFMono-Regular, Menlo, monospace" font-size="12">nginx single</text><line x1="774.0" y1="120.0" x2="798.0" y2="120.0" stroke="#7ee787" stroke-width="3" stroke-linecap="round"/><text x="808.0" y="124.0" fill="#d7dae0" font-family="ui-monospace, SFMono-Regular, Menlo, monospace" font-size="12">tako single</text><line x1="774.0" y1="144.0" x2="798.0" y2="144.0" stroke="#f6c177" stroke-width="3" stroke-linecap="round"/><text x="808.0" y="148.0" fill="#d7dae0" font-family="ui-monospace, SFMono-Regular, Menlo, monospace" font-size="12">caddy single</text><text x="418.0" y="538.0" fill="#9ea3ad" font-family="ui-monospace, SFMono-Regular, Menlo, monospace" font-size="12" text-anchor="middle">concurrency</text><text x="20" y="279.0" fill="#9ea3ad" font-family="ui-monospace, SFMono-Regular, Menlo, monospace" font-size="12" transform="rotate(-90 20 279.0)" text-anchor="middle">p99 latency (ms)</text></svg>