<svg xmlns="http://www.w3.org/2000/svg" width="960" height="360" viewBox="0 0 960 360"><rect width="100%" height="100%" fill="#101114"/><text x="24" y="34" fill="#d7dae0" font-family="ui-monospace, SFMono-Regular, Menlo, monospace" font-size="18" font-weight="700">caddy-lb-plaintext-c5000</text><text x="24" y="52.0" fill="#9ea3ad" font-family="ui-monospace, SFMono-Regular, Menlo, monospace" font-size="13">CPU (% total)</text><line x1="70.0" y1="62.0" x2="932.0" y2="62.0" stroke="#343843" stroke-width="1"/><text x="62.0" y="66.0" fill="#9ea3ad" font-family="ui-monospace, SFMono-Regular, Menlo, monospace" font-size="11" text-anchor="end">100.0</text><line x1="70.0" y1="99.5" x2="932.0" y2="99.5" stroke="#343843" stroke-width="1"/><text x="62.0" y="103.5" fill="#9ea3ad" font-family="ui-monospace, SFMono-Regular, Menlo, monospace" font-size="11" text-anchor="end">75.0</text><line x1="70.0" y1="137.0" x2="932.0" y2="137.0" stroke="#343843" stroke-width="1"/><text x="62.0" y="141.0" fill="#9ea3ad" font-family="ui-monospace, SFMono-Regular, Menlo, monospace" font-size="11" text-anchor="end">50.0</text><line x1="70.0" y1="174.5" x2="932.0" y2="174.5" stroke="#343843" stroke-width="1"/><text x="62.0" y="178.5" fill="#9ea3ad" font-family="ui-monospace, SFMono-Regular, Menlo, monospace" font-size="11" text-anchor="end">25.0</text><line x1="70.0" y1="212.0" x2="932.0" y2="212.0" stroke="#343843" stroke-width="1"/><text x="62.0" y="216.0" fill="#9ea3ad" font-family="ui-monospace, SFMono-Regular, Menlo, monospace" font-size="11" text-anchor="end">0.0</text><line x1="70.0" y1="62.0" x2="70.0" y2="212.0" stroke="#343843" stroke-width="1"/><text x="70.0" y="230.0" fill="#9ea3ad" font-family="ui-monospace, SFMono-Regular, Menlo, monospace" font-size="11" text-anchor="middle">0s</text><line x1="285.5" y1="62.0" x2="285.5" y2="212.0" stroke="#343843" stroke-width="1"/><text x="285.5" y="230.0" fill="#9ea3ad" font-family="ui-monospace, SFMono-Regular, Menlo, monospace" font-size="11" text-anchor="middle">8s</text><line x1="501.0" y1="62.0" x2="501.0" y2="212.0" stroke="#343843" stroke-width="1"/><text x="501.0" y="230.0" fill="#9ea3ad" font-family="ui-monospace, SFMono-Regular, Menlo, monospace" font-size="11" text-anchor="middle">15s</text><line x1="716.5" y1="62.0" x2="716.5" y2="212.0" stroke="#343843" stroke-width="1"/><text x="716.5" y="230.0" fill="#9ea3ad" font-family="ui-monospace, SFMono-Regular, Menlo, monospace" font-size="11" text-anchor="middle">22s</text><line x1="932.0" y1="62.0" x2="932.0" y2="212.0" stroke="#343843" stroke-width="1"/><text x="932.0" y="230.0" fill="#9ea3ad" font-family="ui-monospace, SFMono-Regular, Menlo, monospace" font-size="11" text-anchor="middle">30s</text><path d="M 70.0 211.2 L 98.7 208.3 L 127.5 82.4 L 156.2 64.9 L 184.9 62.7 L 213.7 62.0 L 242.4 62.7 L 271.1 62.0 L 328.6 62.7 L 357.3 62.7 L 386.1 62.0 L 414.8 62.0 L 443.5 62.0 L 472.3 63.4 L 501.0 62.0 L 529.7 62.0 L 558.5 62.7 L 587.2 62.0 L 615.9 62.7 L 644.7 63.4 L 673.4 62.0 L 702.1 62.0 L 730.9 68.5 L 759.6 71.6 L 788.3 66.9 L 817.1 65.5 L 845.8 63.4 L 874.5 62.7 L 903.3 110.1 L 932.0 208.4" fill="none" stroke="#4ea1ff" stroke-width="2.5" stroke-linejoin="round" stroke-linecap="round"/><text x="24" y="260.0" fill="#9ea3ad" font-family="ui-monospace, SFMono-Regular, Menlo, monospace" font-size="13">Memory used (GiB)</text><line x1="70.0" y1="270.0" x2="932.0" y2="270.0" stroke="#343843" stroke-width="1"/><text x="62.0" y="274.0" fill="#9ea3ad" font-family="ui-monospace, SFMono-Regular, Menlo, monospace" font-size="11" text-anchor="end">2.0</text><line x1="70.0" y1="307.5" x2="932.0" y2="307.5" stroke="#343843" stroke-width="1"/><text x="62.0" y="311.5" fill="#9ea3ad" font-family="ui-monospace, SFMono-Regular, Menlo, monospace" font-size="11" text-anchor="end">1.5</text><line x1="70.0" y1="345.0" x2="932.0" y2="345.0" stroke="#343843" stroke-width="1"/><text x="62.0" y="349.0" fill="#9ea3ad" font-family="ui-monospace, SFMono-Regular, Menlo, monospace" font-size="11" text-anchor="end">1.0</text><line x1="70.0" y1="382.5" x2="932.0" y2="382.5" stroke="#343843" stroke-width="1"/><text x="62.0" y="386.5" fill="#9ea3ad" font-family="ui-monospace, SFMono-Regular, Menlo, monospace" font-size="11" text-anchor="end">0.5</text><line x1="70.0" y1="420.0" x2="932.0" y2="420.0" stroke="#343843" stroke-width="1"/><text x="62.0" y="424.0" fill="#9ea3ad" font-family="ui-monospace, SFMono-Regular, Menlo, monospace" font-size="11" text-anchor="end">0.0</text><line x1="70.0" y1="270.0" x2="70.0" y2="420.0" stroke="#343843" stroke-width="1"/><text x="70.0" y="438.0" fill="#9ea3ad" font-family="ui-monospace, SFMono-Regular, Menlo, monospace" font-size="11" text-anchor="middle">0s</text><line x1="285.5" y1="270.0" x2="285.5" y2="420.0" stroke="#343843" stroke-width="1"/><text x="285.5" y="438.0" fill="#9ea3ad" font-family="ui-monospace, SFMono-Regular, Menlo, monospace" font-size="11" text-anchor="middle">8s</text><line x1="501.0" y1="270.0" x2="501.0" y2="420.0" stroke="#343843" stroke-width="1"/><text x="501.0" y="438.0" fill="#9ea3ad" font-family="ui-monospace, SFMono-Regular, Menlo, monospace" font-size="11" text-anchor="middle">15s</text><line x1="716.5" y1="270.0" x2="716.5" y2="420.0" stroke="#343843" stroke-width="1"/><text x="716.5" y="438.0" fill="#9ea3ad" font-family="ui-monospace, SFMono-Regular, Menlo, monospace" font-size="11" text-anchor="middle">22s</text><line x1="932.0" y1="270.0" x2="932.0" y2="420.0" stroke="#343843" stroke-width="1"/><text x="932.0" y="438.0" fill="#9ea3ad" font-family="ui-monospace, SFMono-Regular, Menlo, monospace" font-size="11" text-anchor="middle">30s</text><path d="M 70.0 395.9 L 98.7 395.9 L 127.5 375.2 L 156.2 366.5 L 184.9 356.8 L 213.7 345.8 L 242.4 336.4 L 271.1 328.6 L 328.6 326.3 L 357.3 324.8 L 386.1 324.5 L 414.8 323.6 L 443.5 324.3 L 472.3 323.1 L 501.0 321.2 L 529.7 320.9 L 558.5 314.6 L 587.2 305.7 L 615.9 302.8 L 644.7 297.4 L 673.4 294.5 L 702.1 292.9 L 730.9 288.8 L 759.6 289.6 L 788.3 295.4 L 817.1 297.3 L 845.8 294.5 L 874.5 295.6 L 903.3 335.9 L 932.0 335.8" fill="none" stroke="#7ee787" stroke-width="2.5" stroke-linejoin="round" stroke-linecap="round"/></svg>