<svg xmlns="http://www.w3.org/2000/svg" width="960" height="360" viewBox="0 0 960 360"><rect width="100%" height="100%" fill="#101114"/><text x="24" y="34" fill="#d7dae0" font-family="ui-monospace, SFMono-Regular, Menlo, monospace" font-size="18" font-weight="700">caddy-single-plaintext-c2500</text><text x="24" y="52.0" fill="#9ea3ad" font-family="ui-monospace, SFMono-Regular, Menlo, monospace" font-size="13">CPU (% total)</text><line x1="70.0" y1="62.0" x2="932.0" y2="62.0" stroke="#343843" stroke-width="1"/><text x="62.0" y="66.0" fill="#9ea3ad" font-family="ui-monospace, SFMono-Regular, Menlo, monospace" font-size="11" text-anchor="end">100.0</text><line x1="70.0" y1="99.5" x2="932.0" y2="99.5" stroke="#343843" stroke-width="1"/><text x="62.0" y="103.5" fill="#9ea3ad" font-family="ui-monospace, SFMono-Regular, Menlo, monospace" font-size="11" text-anchor="end">75.0</text><line x1="70.0" y1="137.0" x2="932.0" y2="137.0" stroke="#343843" stroke-width="1"/><text x="62.0" y="141.0" fill="#9ea3ad" font-family="ui-monospace, SFMono-Regular, Menlo, monospace" font-size="11" text-anchor="end">50.0</text><line x1="70.0" y1="174.5" x2="932.0" y2="174.5" stroke="#343843" stroke-width="1"/><text x="62.0" y="178.5" fill="#9ea3ad" font-family="ui-monospace, SFMono-Regular, Menlo, monospace" font-size="11" text-anchor="end">25.0</text><line x1="70.0" y1="212.0" x2="932.0" y2="212.0" stroke="#343843" stroke-width="1"/><text x="62.0" y="216.0" fill="#9ea3ad" font-family="ui-monospace, SFMono-Regular, Menlo, monospace" font-size="11" text-anchor="end">0.0</text><line x1="70.0" y1="62.0" x2="70.0" y2="212.0" stroke="#343843" stroke-width="1"/><text x="70.0" y="230.0" fill="#9ea3ad" font-family="ui-monospace, SFMono-Regular, Menlo, monospace" font-size="11" text-anchor="middle">0s</text><line x1="285.5" y1="62.0" x2="285.5" y2="212.0" stroke="#343843" stroke-width="1"/><text x="285.5" y="230.0" fill="#9ea3ad" font-family="ui-monospace, SFMono-Regular, Menlo, monospace" font-size="11" text-anchor="middle">7s</text><line x1="501.0" y1="62.0" x2="501.0" y2="212.0" stroke="#343843" stroke-width="1"/><text x="501.0" y="230.0" fill="#9ea3ad" font-family="ui-monospace, SFMono-Regular, Menlo, monospace" font-size="11" text-anchor="middle">14s</text><line x1="716.5" y1="62.0" x2="716.5" y2="212.0" stroke="#343843" stroke-width="1"/><text x="716.5" y="230.0" fill="#9ea3ad" font-family="ui-monospace, SFMono-Regular, Menlo, monospace" font-size="11" text-anchor="middle">21s</text><line x1="932.0" y1="62.0" x2="932.0" y2="212.0" stroke="#343843" stroke-width="1"/><text x="932.0" y="230.0" fill="#9ea3ad" font-family="ui-monospace, SFMono-Regular, Menlo, monospace" font-size="11" text-anchor="middle">28s</text><path d="M 70.0 211.2 L 100.8 206.9 L 131.6 73.8 L 162.4 62.0 L 193.1 64.9 L 223.9 65.7 L 254.7 63.4 L 285.5 63.4 L 316.3 62.0 L 347.1 63.5 L 377.9 64.1 L 408.6 67.9 L 439.4 62.7 L 470.2 65.6 L 531.8 65.6 L 562.6 65.6 L 593.4 63.4 L 624.1 67.1 L 654.9 65.6 L 685.7 62.0 L 716.5 66.3 L 747.3 64.9 L 778.1 62.0 L 808.9 64.2 L 839.6 63.4 L 870.4 64.9 L 901.2 127.6 L 932.0 207.7" fill="none" stroke="#4ea1ff" stroke-width="2.5" stroke-linejoin="round" stroke-linecap="round"/><text x="24" y="260.0" fill="#9ea3ad" font-family="ui-monospace, SFMono-Regular, Menlo, monospace" font-size="13">Memory used (GiB)</text><line x1="70.0" y1="270.0" x2="932.0" y2="270.0" stroke="#343843" stroke-width="1"/><text x="62.0" y="274.0" fill="#9ea3ad" font-family="ui-monospace, SFMono-Regular, Menlo, monospace" font-size="11" text-anchor="end">1.0</text><line x1="70.0" y1="307.5" x2="932.0" y2="307.5" stroke="#343843" stroke-width="1"/><text x="62.0" y="311.5" fill="#9ea3ad" font-family="ui-monospace, SFMono-Regular, Menlo, monospace" font-size="11" text-anchor="end">0.8</text><line x1="70.0" y1="345.0" x2="932.0" y2="345.0" stroke="#343843" stroke-width="1"/><text x="62.0" y="349.0" fill="#9ea3ad" font-family="ui-monospace, SFMono-Regular, Menlo, monospace" font-size="11" text-anchor="end">0.5</text><line x1="70.0" y1="382.5" x2="932.0" y2="382.5" stroke="#343843" stroke-width="1"/><text x="62.0" y="386.5" fill="#9ea3ad" font-family="ui-monospace, SFMono-Regular, Menlo, monospace" font-size="11" text-anchor="end">0.2</text><line x1="70.0" y1="420.0" x2="932.0" y2="420.0" stroke="#343843" stroke-width="1"/><text x="62.0" y="424.0" fill="#9ea3ad" font-family="ui-monospace, SFMono-Regular, Menlo, monospace" font-size="11" text-anchor="end">0.0</text><line x1="70.0" y1="270.0" x2="70.0" y2="420.0" stroke="#343843" stroke-width="1"/><text x="70.0" y="438.0" fill="#9ea3ad" font-family="ui-monospace, SFMono-Regular, Menlo, monospace" font-size="11" text-anchor="middle">0s</text><line x1="285.5" y1="270.0" x2="285.5" y2="420.0" stroke="#343843" stroke-width="1"/><text x="285.5" y="438.0" fill="#9ea3ad" font-family="ui-monospace, SFMono-Regular, Menlo, monospace" font-size="11" text-anchor="middle">7s</text><line x1="501.0" y1="270.0" x2="501.0" y2="420.0" stroke="#343843" stroke-width="1"/><text x="501.0" y="438.0" fill="#9ea3ad" font-family="ui-monospace, SFMono-Regular, Menlo, monospace" font-size="11" text-anchor="middle">14s</text><line x1="716.5" y1="270.0" x2="716.5" y2="420.0" stroke="#343843" stroke-width="1"/><text x="716.5" y="438.0" fill="#9ea3ad" font-family="ui-monospace, SFMono-Regular, Menlo, monospace" font-size="11" text-anchor="middle">21s</text><line x1="932.0" y1="270.0" x2="932.0" y2="420.0" stroke="#343843" stroke-width="1"/><text x="932.0" y="438.0" fill="#9ea3ad" font-family="ui-monospace, SFMono-Regular, Menlo, monospace" font-size="11" text-anchor="middle">28s</text><path d="M 70.0 370.8 L 100.8 370.6 L 131.6 340.8 L 162.4 330.4 L 193.1 296.0 L 223.9 289.3 L 254.7 291.9 L 285.5 289.9 L 316.3 291.4 L 347.1 292.9 L 377.9 291.0 L 408.6 289.6 L 439.4 289.1 L 470.2 286.5 L 531.8 287.5 L 562.6 291.1 L 593.4 290.7 L 624.1 289.1 L 654.9 288.2 L 685.7 285.7 L 716.5 285.5 L 747.3 283.9 L 778.1 285.6 L 808.9 283.4 L 839.6 284.8 L 870.4 286.7 L 901.2 319.7 L 932.0 319.5" fill="none" stroke="#7ee787" stroke-width="2.5" stroke-linejoin="round" stroke-linecap="round"/></svg>