<svg xmlns="http://www.w3.org/2000/svg" width="960" height="360" viewBox="0 0 960 360"><rect width="100%" height="100%" fill="#101114"/><text x="24" y="34" fill="#d7dae0" font-family="ui-monospace, SFMono-Regular, Menlo, monospace" font-size="18" font-weight="700">tako-single-plaintext-c10000</text><text x="24" y="52.0" fill="#9ea3ad" font-family="ui-monospace, SFMono-Regular, Menlo, monospace" font-size="13">CPU (% total)</text><line x1="70.0" y1="62.0" x2="932.0" y2="62.0" stroke="#343843" stroke-width="1"/><text x="62.0" y="66.0" fill="#9ea3ad" font-family="ui-monospace, SFMono-Regular, Menlo, monospace" font-size="11" text-anchor="end">100.0</text><line x1="70.0" y1="99.5" x2="932.0" y2="99.5" stroke="#343843" stroke-width="1"/><text x="62.0" y="103.5" fill="#9ea3ad" font-family="ui-monospace, SFMono-Regular, Menlo, monospace" font-size="11" text-anchor="end">75.0</text><line x1="70.0" y1="137.0" x2="932.0" y2="137.0" stroke="#343843" stroke-width="1"/><text x="62.0" y="141.0" fill="#9ea3ad" font-family="ui-monospace, SFMono-Regular, Menlo, monospace" font-size="11" text-anchor="end">50.0</text><line x1="70.0" y1="174.5" x2="932.0" y2="174.5" stroke="#343843" stroke-width="1"/><text x="62.0" y="178.5" fill="#9ea3ad" font-family="ui-monospace, SFMono-Regular, Menlo, monospace" font-size="11" text-anchor="end">25.0</text><line x1="70.0" y1="212.0" x2="932.0" y2="212.0" stroke="#343843" stroke-width="1"/><text x="62.0" y="216.0" fill="#9ea3ad" font-family="ui-monospace, SFMono-Regular, Menlo, monospace" font-size="11" text-anchor="end">0.0</text><line x1="70.0" y1="62.0" x2="70.0" y2="212.0" stroke="#343843" stroke-width="1"/><text x="70.0" y="230.0" fill="#9ea3ad" font-family="ui-monospace, SFMono-Regular, Menlo, monospace" font-size="11" text-anchor="middle">0s</text><line x1="285.5" y1="62.0" x2="285.5" y2="212.0" stroke="#343843" stroke-width="1"/><text x="285.5" y="230.0" fill="#9ea3ad" font-family="ui-monospace, SFMono-Regular, Menlo, monospace" font-size="11" text-anchor="middle">8s</text><line x1="501.0" y1="62.0" x2="501.0" y2="212.0" stroke="#343843" stroke-width="1"/><text x="501.0" y="230.0" fill="#9ea3ad" font-family="ui-monospace, SFMono-Regular, Menlo, monospace" font-size="11" text-anchor="middle">16s</text><line x1="716.5" y1="62.0" x2="716.5" y2="212.0" stroke="#343843" stroke-width="1"/><text x="716.5" y="230.0" fill="#9ea3ad" font-family="ui-monospace, SFMono-Regular, Menlo, monospace" font-size="11" text-anchor="middle">23s</text><line x1="932.0" y1="62.0" x2="932.0" y2="212.0" stroke="#343843" stroke-width="1"/><text x="932.0" y="230.0" fill="#9ea3ad" font-family="ui-monospace, SFMono-Regular, Menlo, monospace" font-size="11" text-anchor="middle">31s</text><path d="M 70.0 210.5 L 97.8 208.3 L 125.6 105.1 L 153.4 82.3 L 181.2 101.0 L 209.0 104.3 L 236.8 103.2 L 264.6 99.1 L 292.5 87.0 L 320.3 63.5 L 348.1 99.5 L 375.9 102.2 L 403.7 110.5 L 459.3 104.9 L 487.1 103.9 L 514.9 78.6 L 542.7 71.4 L 570.5 72.7 L 598.3 71.0 L 626.1 80.8 L 653.9 106.6 L 681.7 89.2 L 709.5 83.4 L 737.4 70.7 L 765.2 70.1 L 793.0 74.2 L 820.8 73.8 L 848.6 75.6 L 876.4 68.5 L 904.2 157.2 L 932.0 206.9" fill="none" stroke="#4ea1ff" stroke-width="2.5" stroke-linejoin="round" stroke-linecap="round"/><text x="24" y="260.0" fill="#9ea3ad" font-family="ui-monospace, SFMono-Regular, Menlo, monospace" font-size="13">Memory used (GiB)</text><line x1="70.0" y1="270.0" x2="932.0" y2="270.0" stroke="#343843" stroke-width="1"/><text x="62.0" y="274.0" fill="#9ea3ad" font-family="ui-monospace, SFMono-Regular, Menlo, monospace" font-size="11" text-anchor="end">5.0</text><line x1="70.0" y1="307.5" x2="932.0" y2="307.5" stroke="#343843" stroke-width="1"/><text x="62.0" y="311.5" fill="#9ea3ad" font-family="ui-monospace, SFMono-Regular, Menlo, monospace" font-size="11" text-anchor="end">3.8</text><line x1="70.0" y1="345.0" x2="932.0" y2="345.0" stroke="#343843" stroke-width="1"/><text x="62.0" y="349.0" fill="#9ea3ad" font-family="ui-monospace, SFMono-Regular, Menlo, monospace" font-size="11" text-anchor="end">2.5</text><line x1="70.0" y1="382.5" x2="932.0" y2="382.5" stroke="#343843" stroke-width="1"/><text x="62.0" y="386.5" fill="#9ea3ad" font-family="ui-monospace, SFMono-Regular, Menlo, monospace" font-size="11" text-anchor="end">1.2</text><line x1="70.0" y1="420.0" x2="932.0" y2="420.0" stroke="#343843" stroke-width="1"/><text x="62.0" y="424.0" fill="#9ea3ad" font-family="ui-monospace, SFMono-Regular, Menlo, monospace" font-size="11" text-anchor="end">0.0</text><line x1="70.0" y1="270.0" x2="70.0" y2="420.0" stroke="#343843" stroke-width="1"/><text x="70.0" y="438.0" fill="#9ea3ad" font-family="ui-monospace, SFMono-Regular, Menlo, monospace" font-size="11" text-anchor="middle">0s</text><line x1="285.5" y1="270.0" x2="285.5" y2="420.0" stroke="#343843" stroke-width="1"/><text x="285.5" y="438.0" fill="#9ea3ad" font-family="ui-monospace, SFMono-Regular, Menlo, monospace" font-size="11" text-anchor="middle">8s</text><line x1="501.0" y1="270.0" x2="501.0" y2="420.0" stroke="#343843" stroke-width="1"/><text x="501.0" y="438.0" fill="#9ea3ad" font-family="ui-monospace, SFMono-Regular, Menlo, monospace" font-size="11" text-anchor="middle">16s</text><line x1="716.5" y1="270.0" x2="716.5" y2="420.0" stroke="#343843" stroke-width="1"/><text x="716.5" y="438.0" fill="#9ea3ad" font-family="ui-monospace, SFMono-Regular, Menlo, monospace" font-size="11" text-anchor="middle">23s</text><line x1="932.0" y1="270.0" x2="932.0" y2="420.0" stroke="#343843" stroke-width="1"/><text x="932.0" y="438.0" fill="#9ea3ad" font-family="ui-monospace, SFMono-Regular, Menlo, monospace" font-size="11" text-anchor="middle">31s</text><path d="M 70.0 409.3 L 97.8 409.3 L 125.6 394.8 L 153.4 389.2 L 181.2 384.7 L 209.0 381.6 L 236.8 377.6 L 264.6 374.0 L 292.5 372.4 L 320.3 367.3 L 348.1 367.0 L 375.9 362.6 L 403.7 358.6 L 459.3 358.9 L 487.1 357.0 L 514.9 355.6 L 542.7 354.5 L 570.5 354.6 L 598.3 353.3 L 626.1 350.7 L 653.9 348.0 L 681.7 347.6 L 709.5 350.8 L 737.4 350.6 L 765.2 349.5 L 793.0 349.5 L 820.8 349.5 L 848.6 349.6 L 876.4 348.6 L 904.2 374.5 L 932.0 374.4" fill="none" stroke="#7ee787" stroke-width="2.5" stroke-linejoin="round" stroke-linecap="round"/></svg>