<svg xmlns="http://www.w3.org/2000/svg" width="960" height="360" viewBox="0 0 960 360"><rect width="100%" height="100%" fill="#101114"/><text x="24" y="34" fill="#d7dae0" font-family="ui-monospace, SFMono-Regular, Menlo, monospace" font-size="18" font-weight="700">tako-lb-plaintext-c10000</text><text x="24" y="52.0" fill="#9ea3ad" font-family="ui-monospace, SFMono-Regular, Menlo, monospace" font-size="13">CPU (% total)</text><line x1="70.0" y1="62.0" x2="932.0" y2="62.0" stroke="#343843" stroke-width="1"/><text x="62.0" y="66.0" fill="#9ea3ad" font-family="ui-monospace, SFMono-Regular, Menlo, monospace" font-size="11" text-anchor="end">100.0</text><line x1="70.0" y1="99.5" x2="932.0" y2="99.5" stroke="#343843" stroke-width="1"/><text x="62.0" y="103.5" fill="#9ea3ad" font-family="ui-monospace, SFMono-Regular, Menlo, monospace" font-size="11" text-anchor="end">75.0</text><line x1="70.0" y1="137.0" x2="932.0" y2="137.0" stroke="#343843" stroke-width="1"/><text x="62.0" y="141.0" fill="#9ea3ad" font-family="ui-monospace, SFMono-Regular, Menlo, monospace" font-size="11" text-anchor="end">50.0</text><line x1="70.0" y1="174.5" x2="932.0" y2="174.5" stroke="#343843" stroke-width="1"/><text x="62.0" y="178.5" fill="#9ea3ad" font-family="ui-monospace, SFMono-Regular, Menlo, monospace" font-size="11" text-anchor="end">25.0</text><line x1="70.0" y1="212.0" x2="932.0" y2="212.0" stroke="#343843" stroke-width="1"/><text x="62.0" y="216.0" fill="#9ea3ad" font-family="ui-monospace, SFMono-Regular, Menlo, monospace" font-size="11" text-anchor="end">0.0</text><line x1="70.0" y1="62.0" x2="70.0" y2="212.0" stroke="#343843" stroke-width="1"/><text x="70.0" y="230.0" fill="#9ea3ad" font-family="ui-monospace, SFMono-Regular, Menlo, monospace" font-size="11" text-anchor="middle">0s</text><line x1="285.5" y1="62.0" x2="285.5" y2="212.0" stroke="#343843" stroke-width="1"/><text x="285.5" y="230.0" fill="#9ea3ad" font-family="ui-monospace, SFMono-Regular, Menlo, monospace" font-size="11" text-anchor="middle">8s</text><line x1="501.0" y1="62.0" x2="501.0" y2="212.0" stroke="#343843" stroke-width="1"/><text x="501.0" y="230.0" fill="#9ea3ad" font-family="ui-monospace, SFMono-Regular, Menlo, monospace" font-size="11" text-anchor="middle">16s</text><line x1="716.5" y1="62.0" x2="716.5" y2="212.0" stroke="#343843" stroke-width="1"/><text x="716.5" y="230.0" fill="#9ea3ad" font-family="ui-monospace, SFMono-Regular, Menlo, monospace" font-size="11" text-anchor="middle">23s</text><line x1="932.0" y1="62.0" x2="932.0" y2="212.0" stroke="#343843" stroke-width="1"/><text x="932.0" y="230.0" fill="#9ea3ad" font-family="ui-monospace, SFMono-Regular, Menlo, monospace" font-size="11" text-anchor="middle">31s</text><path d="M 70.0 211.2 L 97.8 207.6 L 125.6 101.2 L 153.4 80.2 L 181.2 110.5 L 209.0 99.5 L 236.8 110.3 L 264.6 109.4 L 292.5 71.0 L 320.3 83.5 L 348.1 99.3 L 375.9 110.5 L 403.7 100.4 L 431.5 109.1 L 459.3 101.4 L 487.1 76.6 L 514.9 74.3 L 542.7 72.4 L 570.5 64.9 L 598.3 103.6 L 626.1 95.3 L 653.9 107.1 L 681.7 84.7 L 709.5 71.4 L 737.4 73.7 L 765.2 73.5 L 793.0 74.1 L 820.8 70.0 L 848.6 79.6 L 904.2 196.7 L 932.0 207.6" fill="none" stroke="#4ea1ff" stroke-width="2.5" stroke-linejoin="round" stroke-linecap="round"/><text x="24" y="260.0" fill="#9ea3ad" font-family="ui-monospace, SFMono-Regular, Menlo, monospace" font-size="13">Memory used (GiB)</text><line x1="70.0" y1="270.0" x2="932.0" y2="270.0" stroke="#343843" stroke-width="1"/><text x="62.0" y="274.0" fill="#9ea3ad" font-family="ui-monospace, SFMono-Regular, Menlo, monospace" font-size="11" text-anchor="end">5.0</text><line x1="70.0" y1="307.5" x2="932.0" y2="307.5" stroke="#343843" stroke-width="1"/><text x="62.0" y="311.5" fill="#9ea3ad" font-family="ui-monospace, SFMono-Regular, Menlo, monospace" font-size="11" text-anchor="end">3.8</text><line x1="70.0" y1="345.0" x2="932.0" y2="345.0" stroke="#343843" stroke-width="1"/><text x="62.0" y="349.0" fill="#9ea3ad" font-family="ui-monospace, SFMono-Regular, Menlo, monospace" font-size="11" text-anchor="end">2.5</text><line x1="70.0" y1="382.5" x2="932.0" y2="382.5" stroke="#343843" stroke-width="1"/><text x="62.0" y="386.5" fill="#9ea3ad" font-family="ui-monospace, SFMono-Regular, Menlo, monospace" font-size="11" text-anchor="end">1.2</text><line x1="70.0" y1="420.0" x2="932.0" y2="420.0" stroke="#343843" stroke-width="1"/><text x="62.0" y="424.0" fill="#9ea3ad" font-family="ui-monospace, SFMono-Regular, Menlo, monospace" font-size="11" text-anchor="end">0.0</text><line x1="70.0" y1="270.0" x2="70.0" y2="420.0" stroke="#343843" stroke-width="1"/><text x="70.0" y="438.0" fill="#9ea3ad" font-family="ui-monospace, SFMono-Regular, Menlo, monospace" font-size="11" text-anchor="middle">0s</text><line x1="285.5" y1="270.0" x2="285.5" y2="420.0" stroke="#343843" stroke-width="1"/><text x="285.5" y="438.0" fill="#9ea3ad" font-family="ui-monospace, SFMono-Regular, Menlo, monospace" font-size="11" text-anchor="middle">8s</text><line x1="501.0" y1="270.0" x2="501.0" y2="420.0" stroke="#343843" stroke-width="1"/><text x="501.0" y="438.0" fill="#9ea3ad" font-family="ui-monospace, SFMono-Regular, Menlo, monospace" font-size="11" text-anchor="middle">16s</text><line x1="716.5" y1="270.0" x2="716.5" y2="420.0" stroke="#343843" stroke-width="1"/><text x="716.5" y="438.0" fill="#9ea3ad" font-family="ui-monospace, SFMono-Regular, Menlo, monospace" font-size="11" text-anchor="middle">23s</text><line x1="932.0" y1="270.0" x2="932.0" y2="420.0" stroke="#343843" stroke-width="1"/><text x="932.0" y="438.0" fill="#9ea3ad" font-family="ui-monospace, SFMono-Regular, Menlo, monospace" font-size="11" text-anchor="middle">31s</text><path d="M 70.0 409.2 L 97.8 409.2 L 125.6 394.5 L 153.4 387.4 L 181.2 384.7 L 209.0 381.1 L 236.8 378.9 L 264.6 375.4 L 292.5 372.4 L 320.3 368.7 L 348.1 367.6 L 375.9 364.0 L 403.7 361.3 L 431.5 358.6 L 459.3 356.3 L 487.1 356.1 L 514.9 356.0 L 542.7 355.0 L 570.5 353.1 L 598.3 349.5 L 626.1 346.8 L 653.9 343.7 L 681.7 342.6 L 709.5 342.7 L 737.4 342.6 L 765.2 344.3 L 793.0 345.8 L 820.8 348.4 L 848.6 372.4 L 904.2 373.4 L 932.0 373.3" fill="none" stroke="#7ee787" stroke-width="2.5" stroke-linejoin="round" stroke-linecap="round"/></svg>