<svg xmlns="http://www.w3.org/2000/svg" width="960" height="906" viewBox="0 0 960 906"><rect width="100%" height="100%" fill="#101114"/><text x="24" y="34" fill="#d7dae0" font-family="ui-monospace, SFMono-Regular, Menlo, monospace" font-size="18" font-weight="700">envoy-single-plaintext-c5000</text><text x="24" y="54" fill="#9ea3ad" font-family="ui-monospace, SFMono-Regular, Menlo, monospace" font-size="12">200 rps 4734.72 | total rps 4734.72 | p99 3103.97 ms | non-200 0% | errors 872</text><text x="24" y="72.0" fill="#9ea3ad" font-family="ui-monospace, SFMono-Regular, Menlo, monospace" font-size="13">CPU (% total VM)</text><line x1="70.0" y1="82.0" x2="932.0" y2="82.0" stroke="#343843" stroke-width="1"/><text x="62.0" y="86.0" fill="#9ea3ad" font-family="ui-monospace, SFMono-Regular, Menlo, monospace" font-size="11" text-anchor="end">100.0</text><line x1="70.0" y1="119.5" x2="932.0" y2="119.5" stroke="#343843" stroke-width="1"/><text x="62.0" y="123.5" fill="#9ea3ad" font-family="ui-monospace, SFMono-Regular, Menlo, monospace" font-size="11" text-anchor="end">75.0</text><line x1="70.0" y1="157.0" x2="932.0" y2="157.0" stroke="#343843" stroke-width="1"/><text x="62.0" y="161.0" fill="#9ea3ad" font-family="ui-monospace, SFMono-Regular, Menlo, monospace" font-size="11" text-anchor="end">50.0</text><line x1="70.0" y1="194.5" x2="932.0" y2="194.5" stroke="#343843" stroke-width="1"/><text x="62.0" y="198.5" fill="#9ea3ad" font-family="ui-monospace, SFMono-Regular, Menlo, monospace" font-size="11" text-anchor="end">25.0</text><line x1="70.0" y1="232.0" x2="932.0" y2="232.0" stroke="#343843" stroke-width="1"/><text x="62.0" y="236.0" fill="#9ea3ad" font-family="ui-monospace, SFMono-Regular, Menlo, monospace" font-size="11" text-anchor="end">0.0</text><line x1="70.0" y1="82.0" x2="70.0" y2="232.0" stroke="#343843" stroke-width="1"/><text x="70.0" y="250.0" fill="#9ea3ad" font-family="ui-monospace, SFMono-Regular, Menlo, monospace" font-size="11" text-anchor="middle">0s</text><line x1="285.5" y1="82.0" x2="285.5" y2="232.0" stroke="#343843" stroke-width="1"/><text x="285.5" y="250.0" fill="#9ea3ad" font-family="ui-monospace, SFMono-Regular, Menlo, monospace" font-size="11" text-anchor="middle">33s</text><line x1="501.0" y1="82.0" x2="501.0" y2="232.0" stroke="#343843" stroke-width="1"/><text x="501.0" y="250.0" fill="#9ea3ad" font-family="ui-monospace, SFMono-Regular, Menlo, monospace" font-size="11" text-anchor="middle">66s</text><line x1="716.5" y1="82.0" x2="716.5" y2="232.0" stroke="#343843" stroke-width="1"/><text x="716.5" y="250.0" fill="#9ea3ad" font-family="ui-monospace, SFMono-Regular, Menlo, monospace" font-size="11" text-anchor="middle">99s</text><line x1="932.0" y1="82.0" x2="932.0" y2="232.0" stroke="#343843" stroke-width="1"/><text x="932.0" y="250.0" fill="#9ea3ad" font-family="ui-monospace, SFMono-Regular, Menlo, monospace" font-size="11" text-anchor="middle">132s</text><line x1="70.0" y1="52.0" x2="88.0" y2="52.0" stroke="#4ea1ff" stroke-width="3" stroke-linecap="round"/><text x="94.0" y="56.0" fill="#9ea3ad" font-family="ui-monospace, SFMono-Regular, Menlo, monospace" font-size="11">total</text><line x1="146.0" y1="52.0" x2="164.0" y2="52.0" stroke="#ff7b72" stroke-width="3" stroke-linecap="round"/><text x="170.0" y="56.0" fill="#9ea3ad" font-family="ui-monospace, SFMono-Regular, Menlo, monospace" font-size="11">proxy</text><line x1="222.0" y1="52.0" x2="240.0" y2="52.0" stroke="#7ee787" stroke-width="3" stroke-linecap="round"/><text x="246.0" y="56.0" fill="#9ea3ad" font-family="ui-monospace, SFMono-Regular, Menlo, monospace" font-size="11">app</text><line x1="298.0" y1="52.0" x2="316.0" y2="52.0" stroke="#f6c177" stroke-width="3" stroke-linecap="round"/><text x="322.0" y="56.0" fill="#9ea3ad" font-family="ui-monospace, SFMono-Regular, Menlo, monospace" font-size="11">loadgen</text><path d="M 70.0 166.9 L 109.2 83.0 L 128.8 102.5 L 148.4 173.7 L 168.0 177.1 L 181.0 179.7 L 200.6 181.5 L 220.2 181.0 L 233.3 177.0 L 259.4 183.0 L 272.4 175.8 L 285.5 184.2 L 305.1 188.2 L 324.7 178.3 L 344.3 177.5 L 363.9 177.0 L 376.9 176.4 L 396.5 179.8 L 416.1 179.3 L 435.7 184.1 L 448.8 177.8 L 468.3 180.8 L 487.9 178.2 L 507.5 178.9 L 533.7 92.9 L 559.8 84.7 L 585.9 85.2 L 618.5 83.7 L 651.2 83.2 L 690.4 83.5 L 703.4 89.6 L 723.0 186.6 L 736.1 181.2 L 755.7 177.0 L 775.3 177.2 L 794.9 176.6 L 814.5 179.7 L 834.0 177.0 L 847.1 183.2 L 866.7 180.2 L 886.3 177.1 L 905.9 173.6 L 918.9 180.0 L 932.0 182.6" fill="none" stroke="#4ea1ff" stroke-width="2.5" stroke-linejoin="round" stroke-linecap="round"/><path d="M 70.0 180.3 L 109.2 137.2 L 128.8 188.5 L 148.4 231.8 L 168.0 232.0 L 181.0 231.7 L 200.6 232.0 L 220.2 231.4 L 233.3 232.0 L 259.4 231.7 L 272.4 232.0 L 285.5 232.0 L 305.1 231.7 L 324.7 231.7 L 344.3 232.0 L 363.9 231.7 L 376.9 232.0 L 396.5 231.7 L 416.1 231.7 L 435.7 232.0 L 448.8 231.7 L 468.3 232.0 L 487.9 230.6 L 507.5 230.1 L 533.7 130.2 L 559.8 155.5 L 585.9 173.9 L 618.5 150.5 L 651.2 149.9 L 690.4 170.3 L 703.4 170.0 L 723.0 232.0 L 736.1 232.0 L 755.7 231.7 L 775.3 231.5 L 794.9 232.0 L 814.5 231.7 L 834.0 232.0 L 847.1 232.0 L 866.7 231.7 L 886.3 232.0 L 905.9 230.2 L 918.9 231.1 L 932.0 228.3" fill="none" stroke="#ff7b72" stroke-width="2.5" stroke-linejoin="round" stroke-linecap="round"/><path d="M 70.0 232.0 L 109.2 219.7 L 128.8 216.0 L 148.4 232.0 L 168.0 232.0 L 181.0 232.0 L 200.6 232.0 L 220.2 231.7 L 233.3 232.0 L 259.4 232.0 L 272.4 232.0 L 285.5 232.0 L 305.1 232.0 L 324.7 232.0 L 344.3 232.0 L 363.9 232.0 L 376.9 232.0 L 396.5 232.0 L 416.1 232.0 L 435.7 231.7 L 448.8 232.0 L 468.3 232.0 L 487.9 232.0 L 507.5 232.0 L 533.7 227.8 L 559.8 210.4 L 585.9 212.8 L 618.5 211.4 L 651.2 211.7 L 690.4 213.4 L 703.4 212.6 L 723.0 232.0 L 736.1 232.0 L 755.7 232.0 L 775.3 232.0 L 794.9 232.0 L 814.5 232.0 L 834.0 232.0 L 847.1 232.0 L 866.7 232.0 L 886.3 232.0 L 905.9 231.7 L 918.9 231.7 L 932.0 232.0" fill="none" stroke="#7ee787" stroke-width="2.5" stroke-linejoin="round" stroke-linecap="round"/><path d="M 70.0 183.0 L 109.2 193.5 L 128.8 216.0 L 148.4 232.0 L 168.0 232.0 L 181.0 232.0 L 200.6 232.0 L 220.2 232.0 L 233.3 232.0 L 259.4 232.0 L 272.4 232.0 L 285.5 232.0 L 305.1 232.0 L 324.7 232.0 L 344.3 232.0 L 363.9 232.0 L 376.9 232.0 L 396.5 232.0 L 416.1 232.0 L 435.7 232.0 L 448.8 232.0 L 468.3 231.7 L 487.9 231.4 L 507.5 219.9 L 533.7 189.2 L 559.8 199.4 L 585.9 206.0 L 618.5 194.8 L 651.2 191.8 L 690.4 200.0 L 703.4 207.0 L 723.0 232.0 L 736.1 232.0 L 755.7 232.0 L 775.3 232.0 L 794.9 232.0 L 814.5 232.0 L 834.0 232.0 L 847.1 232.0 L 866.7 232.0 L 886.3 232.0 L 905.9 230.9 L 918.9 231.7 L 932.0 232.0" fill="none" stroke="#f6c177" stroke-width="2.5" stroke-linejoin="round" stroke-linecap="round"/><text x="24" y="280.0" fill="#9ea3ad" font-family="ui-monospace, SFMono-Regular, Menlo, monospace" font-size="13">Process RSS (GiB)</text><line x1="70.0" y1="290.0" x2="932.0" y2="290.0" stroke="#343843" stroke-width="1"/><text x="62.0" y="294.0" fill="#9ea3ad" font-family="ui-monospace, SFMono-Regular, Menlo, monospace" font-size="11" text-anchor="end">0.5</text><line x1="70.0" y1="327.5" x2="932.0" y2="327.5" stroke="#343843" stroke-width="1"/><text x="62.0" y="331.5" fill="#9ea3ad" font-family="ui-monospace, SFMono-Regular, Menlo, monospace" font-size="11" text-anchor="end">0.4</text><line x1="70.0" y1="365.0" x2="932.0" y2="365.0" stroke="#343843" stroke-width="1"/><text x="62.0" y="369.0" fill="#9ea3ad" font-family="ui-monospace, SFMono-Regular, Menlo, monospace" font-size="11" text-anchor="end">0.2</text><line x1="70.0" y1="402.5" x2="932.0" y2="402.5" stroke="#343843" stroke-width="1"/><text x="62.0" y="406.5" fill="#9ea3ad" font-family="ui-monospace, SFMono-Regular, Menlo, monospace" font-size="11" text-anchor="end">0.1</text><line x1="70.0" y1="440.0" x2="932.0" y2="440.0" stroke="#343843" stroke-width="1"/><text x="62.0" y="444.0" fill="#9ea3ad" font-family="ui-monospace, SFMono-Regular, Menlo, monospace" font-size="11" text-anchor="end">0.0</text><line x1="70.0" y1="290.0" x2="70.0" y2="440.0" stroke="#343843" stroke-width="1"/><text x="70.0" y="458.0" fill="#9ea3ad" font-family="ui-monospace, SFMono-Regular, Menlo, monospace" font-size="11" text-anchor="middle">0s</text><line x1="285.5" y1="290.0" x2="285.5" y2="440.0" stroke="#343843" stroke-width="1"/><text x="285.5" y="458.0" fill="#9ea3ad" font-family="ui-monospace, SFMono-Regular, Menlo, monospace" font-size="11" text-anchor="middle">33s</text><line x1="501.0" y1="290.0" x2="501.0" y2="440.0" stroke="#343843" stroke-width="1"/><text x="501.0" y="458.0" fill="#9ea3ad" font-family="ui-monospace, SFMono-Regular, Menlo, monospace" font-size="11" text-anchor="middle">66s</text><line x1="716.5" y1="290.0" x2="716.5" y2="440.0" stroke="#343843" stroke-width="1"/><text x="716.5" y="458.0" fill="#9ea3ad" font-family="ui-monospace, SFMono-Regular, Menlo, monospace" font-size="11" text-anchor="middle">99s</text><line x1="932.0" y1="290.0" x2="932.0" y2="440.0" stroke="#343843" stroke-width="1"/><text x="932.0" y="458.0" fill="#9ea3ad" font-family="ui-monospace, SFMono-Regular, Menlo, monospace" font-size="11" text-anchor="middle">132s</text><line x1="70.0" y1="260.0" x2="88.0" y2="260.0" stroke="#ff7b72" stroke-width="3" stroke-linecap="round"/><text x="94.0" y="264.0" fill="#9ea3ad" font-family="ui-monospace, SFMono-Regular, Menlo, monospace" font-size="11">proxy</text><line x1="146.0" y1="260.0" x2="164.0" y2="260.0" stroke="#7ee787" stroke-width="3" stroke-linecap="round"/><text x="170.0" y="264.0" fill="#9ea3ad" font-family="ui-monospace, SFMono-Regular, Menlo, monospace" font-size="11">app</text><line x1="222.0" y1="260.0" x2="240.0" y2="260.0" stroke="#f6c177" stroke-width="3" stroke-linecap="round"/><text x="246.0" y="264.0" fill="#9ea3ad" font-family="ui-monospace, SFMono-Regular, Menlo, monospace" font-size="11">loadgen</text><path d="M 70.0 378.6 L 109.2 345.2 L 128.8 345.2 L 148.4 345.2 L 168.0 345.2 L 181.0 345.2 L 200.6 345.2 L 220.2 345.2 L 233.3 345.2 L 259.4 345.2 L 272.4 345.2 L 285.5 345.2 L 305.1 345.2 L 324.7 345.2 L 344.3 345.2 L 363.9 345.2 L 376.9 345.2 L 396.5 345.2 L 416.1 345.2 L 435.7 345.2 L 448.8 345.2 L 468.3 345.2 L 487.9 345.2 L 507.5 345.2 L 533.7 342.4 L 559.8 341.6 L 585.9 341.6 L 618.5 341.6 L 651.2 341.6 L 690.4 341.6 L 703.4 341.6 L 723.0 341.6 L 736.1 341.6 L 755.7 341.6 L 775.3 341.6 L 794.9 341.6 L 814.5 341.6 L 834.0 341.6 L 847.1 341.6 L 866.7 341.6 L 886.3 341.6 L 905.9 341.6 L 918.9 341.5 L 932.0 341.5" fill="none" stroke="#ff7b72" stroke-width="2.5" stroke-linejoin="round" stroke-linecap="round"/><path d="M 70.0 433.4 L 109.2 401.7 L 128.8 401.7 L 148.4 401.7 L 168.0 401.7 L 181.0 401.7 L 200.6 401.7 L 220.2 401.7 L 233.3 401.7 L 259.4 401.7 L 272.4 401.7 L 285.5 401.7 L 305.1 401.7 L 324.7 401.7 L 344.3 401.7 L 363.9 401.7 L 376.9 401.7 L 396.5 401.7 L 416.1 401.7 L 435.7 401.7 L 448.8 401.7 L 468.3 401.7 L 487.9 401.7 L 507.5 401.7 L 533.7 401.6 L 559.8 401.2 L 585.9 401.2 L 618.5 401.2 L 651.2 401.2 L 690.4 401.2 L 703.4 401.2 L 723.0 401.2 L 736.1 401.2 L 755.7 401.2 L 775.3 401.2 L 794.9 401.2 L 814.5 401.2 L 834.0 401.2 L 847.1 401.2 L 866.7 401.2 L 886.3 401.2 L 905.9 401.2 L 918.9 401.2 L 932.0 401.2" fill="none" stroke="#7ee787" stroke-width="2.5" stroke-linejoin="round" stroke-linecap="round"/><path d="M 70.0 358.8 L 109.2 332.3 L 128.8 332.3 L 148.4 332.3 L 168.0 332.3 L 181.0 332.3 L 200.6 332.3 L 220.2 332.3 L 233.3 332.3 L 259.4 332.3 L 272.4 332.3 L 285.5 332.3 L 305.1 332.3 L 324.7 332.3 L 344.3 332.3 L 363.9 332.3 L 376.9 332.3 L 396.5 332.3 L 416.1 332.3 L 435.7 332.3 L 448.8 332.3 L 468.3 332.3 L 487.9 332.3 L 507.5 329.5 L 533.7 328.0 L 559.8 327.1 L 585.9 326.2 L 618.5 326.1 L 651.2 325.5 L 690.4 324.0 L 703.4 324.0 L 723.0 324.0 L 736.1 324.0 L 755.7 324.0 L 775.3 324.0 L 794.9 324.0 L 814.5 324.0 L 834.0 324.0 L 847.1 324.0 L 866.7 324.0 L 886.3 324.0 L 905.9 324.0 L 918.9 324.0 L 932.0 440.0" fill="none" stroke="#f6c177" stroke-width="2.5" stroke-linejoin="round" stroke-linecap="round"/><text x="24" y="488.0" fill="#9ea3ad" font-family="ui-monospace, SFMono-Regular, Menlo, monospace" font-size="13">Memory used (GiB)</text><line x1="70.0" y1="498.0" x2="932.0" y2="498.0" stroke="#343843" stroke-width="1"/><text x="62.0" y="502.0" fill="#9ea3ad" font-family="ui-monospace, SFMono-Regular, Menlo, monospace" font-size="11" text-anchor="end">2.0</text><line x1="70.0" y1="535.5" x2="932.0" y2="535.5" stroke="#343843" stroke-width="1"/><text x="62.0" y="539.5" fill="#9ea3ad" font-family="ui-monospace, SFMono-Regular, Menlo, monospace" font-size="11" text-anchor="end">1.5</text><line x1="70.0" y1="573.0" x2="932.0" y2="573.0" stroke="#343843" stroke-width="1"/><text x="62.0" y="577.0" fill="#9ea3ad" font-family="ui-monospace, SFMono-Regular, Menlo, monospace" font-size="11" text-anchor="end">1.0</text><line x1="70.0" y1="610.5" x2="932.0" y2="610.5" stroke="#343843" stroke-width="1"/><text x="62.0" y="614.5" fill="#9ea3ad" font-family="ui-monospace, SFMono-Regular, Menlo, monospace" font-size="11" text-anchor="end">0.5</text><line x1="70.0" y1="648.0" x2="932.0" y2="648.0" stroke="#343843" stroke-width="1"/><text x="62.0" y="652.0" fill="#9ea3ad" font-family="ui-monospace, SFMono-Regular, Menlo, monospace" font-size="11" text-anchor="end">0.0</text><line x1="70.0" y1="498.0" x2="70.0" y2="648.0" stroke="#343843" stroke-width="1"/><text x="70.0" y="666.0" fill="#9ea3ad" font-family="ui-monospace, SFMono-Regular, Menlo, monospace" font-size="11" text-anchor="middle">0s</text><line x1="285.5" y1="498.0" x2="285.5" y2="648.0" stroke="#343843" stroke-width="1"/><text x="285.5" y="666.0" fill="#9ea3ad" font-family="ui-monospace, SFMono-Regular, Menlo, monospace" font-size="11" text-anchor="middle">33s</text><line x1="501.0" y1="498.0" x2="501.0" y2="648.0" stroke="#343843" stroke-width="1"/><text x="501.0" y="666.0" fill="#9ea3ad" font-family="ui-monospace, SFMono-Regular, Menlo, monospace" font-size="11" text-anchor="middle">66s</text><line x1="716.5" y1="498.0" x2="716.5" y2="648.0" stroke="#343843" stroke-width="1"/><text x="716.5" y="666.0" fill="#9ea3ad" font-family="ui-monospace, SFMono-Regular, Menlo, monospace" font-size="11" text-anchor="middle">99s</text><line x1="932.0" y1="498.0" x2="932.0" y2="648.0" stroke="#343843" stroke-width="1"/><text x="932.0" y="666.0" fill="#9ea3ad" font-family="ui-monospace, SFMono-Regular, Menlo, monospace" font-size="11" text-anchor="middle">132s</text><path d="M 70.0 592.4 L 109.2 560.3 L 128.8 558.5 L 148.4 557.6 L 168.0 555.7 L 181.0 554.8 L 200.6 555.4 L 220.2 556.7 L 233.3 556.5 L 259.4 554.2 L 272.4 555.5 L 285.5 555.7 L 305.1 554.8 L 324.7 554.2 L 344.3 555.6 L 363.9 552.5 L 376.9 553.9 L 396.5 555.3 L 416.1 556.5 L 435.7 556.9 L 448.8 555.7 L 468.3 555.3 L 487.9 558.0 L 507.5 559.2 L 533.7 559.9 L 559.8 557.3 L 585.9 557.3 L 618.5 557.2 L 651.2 556.9 L 690.4 557.0 L 703.4 555.0 L 723.0 554.9 L 736.1 554.6 L 755.7 555.1 L 775.3 553.4 L 794.9 552.3 L 814.5 552.8 L 834.0 553.9 L 847.1 554.1 L 866.7 554.3 L 886.3 551.0 L 905.9 553.3 L 918.9 553.1 L 932.0 584.2" fill="none" stroke="#a371f7" stroke-width="2.5" stroke-linejoin="round" stroke-linecap="round"/><text x="24" y="696.0" fill="#9ea3ad" font-family="ui-monospace, SFMono-Regular, Menlo, monospace" font-size="13">TLS connections</text><line x1="70.0" y1="706.0" x2="932.0" y2="706.0" stroke="#343843" stroke-width="1"/><text x="62.0" y="710.0" fill="#9ea3ad" font-family="ui-monospace, SFMono-Regular, Menlo, monospace" font-size="11" text-anchor="end">10000.0</text><line x1="70.0" y1="743.5" x2="932.0" y2="743.5" stroke="#343843" stroke-width="1"/><text x="62.0" y="747.5" fill="#9ea3ad" font-family="ui-monospace, SFMono-Regular, Menlo, monospace" font-size="11" text-anchor="end">7500.0</text><line x1="70.0" y1="781.0" x2="932.0" y2="781.0" stroke="#343843" stroke-width="1"/><text x="62.0" y="785.0" fill="#9ea3ad" font-family="ui-monospace, SFMono-Regular, Menlo, monospace" font-size="11" text-anchor="end">5000.0</text><line x1="70.0" y1="818.5" x2="932.0" y2="818.5" stroke="#343843" stroke-width="1"/><text x="62.0" y="822.5" fill="#9ea3ad" font-family="ui-monospace, SFMono-Regular, Menlo, monospace" font-size="11" text-anchor="end">2500.0</text><line x1="70.0" y1="856.0" x2="932.0" y2="856.0" stroke="#343843" stroke-width="1"/><text x="62.0" y="860.0" fill="#9ea3ad" font-family="ui-monospace, SFMono-Regular, Menlo, monospace" font-size="11" text-anchor="end">0.0</text><line x1="70.0" y1="706.0" x2="70.0" y2="856.0" stroke="#343843" stroke-width="1"/><text x="70.0" y="874.0" fill="#9ea3ad" font-family="ui-monospace, SFMono-Regular, Menlo, monospace" font-size="11" text-anchor="middle">0s</text><line x1="285.5" y1="706.0" x2="285.5" y2="856.0" stroke="#343843" stroke-width="1"/><text x="285.5" y="874.0" fill="#9ea3ad" font-family="ui-monospace, SFMono-Regular, Menlo, monospace" font-size="11" text-anchor="middle">33s</text><line x1="501.0" y1="706.0" x2="501.0" y2="856.0" stroke="#343843" stroke-width="1"/><text x="501.0" y="874.0" fill="#9ea3ad" font-family="ui-monospace, SFMono-Regular, Menlo, monospace" font-size="11" text-anchor="middle">66s</text><line x1="716.5" y1="706.0" x2="716.5" y2="856.0" stroke="#343843" stroke-width="1"/><text x="716.5" y="874.0" fill="#9ea3ad" font-family="ui-monospace, SFMono-Regular, Menlo, monospace" font-size="11" text-anchor="middle">99s</text><line x1="932.0" y1="706.0" x2="932.0" y2="856.0" stroke="#343843" stroke-width="1"/><text x="932.0" y="874.0" fill="#9ea3ad" font-family="ui-monospace, SFMono-Regular, Menlo, monospace" font-size="11" text-anchor="middle">132s</text><path d="M 70.0 780.9 L 109.2 781.0 L 128.8 781.0 L 148.4 781.0 L 168.0 781.0 L 181.0 781.0 L 200.6 781.0 L 220.2 781.0 L 233.3 781.0 L 259.4 781.0 L 272.4 781.0 L 285.5 781.0 L 305.1 781.0 L 324.7 781.0 L 344.3 781.0 L 363.9 781.0 L 376.9 781.0 L 396.5 781.0 L 416.1 781.0 L 435.7 781.0 L 448.8 781.3 L 468.3 784.6 L 487.9 788.2 L 507.5 781.0 L 533.7 781.0 L 559.8 781.0 L 585.9 781.0 L 618.5 781.0 L 651.2 781.0 L 690.4 781.0 L 703.4 781.0 L 723.0 781.0 L 736.1 781.0 L 755.7 781.0 L 775.3 781.0 L 794.9 781.0 L 814.5 781.0 L 834.0 781.0 L 847.1 781.0 L 866.7 781.0 L 886.3 781.0 L 905.9 791.5 L 918.9 794.0 L 932.0 856.0" fill="none" stroke="#f6c177" stroke-width="2.5" stroke-linejoin="round" stroke-linecap="round"/></svg>