<svg xmlns="http://www.w3.org/2000/svg" width="960" height="906" viewBox="0 0 960 906"><rect width="100%" height="100%" fill="#101114"/><text x="24" y="34" fill="#d7dae0" font-family="ui-monospace, SFMono-Regular, Menlo, monospace" font-size="18" font-weight="700">envoy-single-plaintext-c15000</text><text x="24" y="54" fill="#9ea3ad" font-family="ui-monospace, SFMono-Regular, Menlo, monospace" font-size="12">200 rps 3813.8 | total rps 6271.61 | p99 13664.54 ms | non-200 39.19% | errors 0</text><text x="24" y="72.0" fill="#9ea3ad" font-family="ui-monospace, SFMono-Regular, Menlo, monospace" font-size="13">CPU (% total VM)</text><line x1="70.0" y1="82.0" x2="932.0" y2="82.0" stroke="#343843" stroke-width="1"/><text x="62.0" y="86.0" fill="#9ea3ad" font-family="ui-monospace, SFMono-Regular, Menlo, monospace" font-size="11" text-anchor="end">100.0</text><line x1="70.0" y1="119.5" x2="932.0" y2="119.5" stroke="#343843" stroke-width="1"/><text x="62.0" y="123.5" fill="#9ea3ad" font-family="ui-monospace, SFMono-Regular, Menlo, monospace" font-size="11" text-anchor="end">75.0</text><line x1="70.0" y1="157.0" x2="932.0" y2="157.0" stroke="#343843" stroke-width="1"/><text x="62.0" y="161.0" fill="#9ea3ad" font-family="ui-monospace, SFMono-Regular, Menlo, monospace" font-size="11" text-anchor="end">50.0</text><line x1="70.0" y1="194.5" x2="932.0" y2="194.5" stroke="#343843" stroke-width="1"/><text x="62.0" y="198.5" fill="#9ea3ad" font-family="ui-monospace, SFMono-Regular, Menlo, monospace" font-size="11" text-anchor="end">25.0</text><line x1="70.0" y1="232.0" x2="932.0" y2="232.0" stroke="#343843" stroke-width="1"/><text x="62.0" y="236.0" fill="#9ea3ad" font-family="ui-monospace, SFMono-Regular, Menlo, monospace" font-size="11" text-anchor="end">0.0</text><line x1="70.0" y1="82.0" x2="70.0" y2="232.0" stroke="#343843" stroke-width="1"/><text x="70.0" y="250.0" fill="#9ea3ad" font-family="ui-monospace, SFMono-Regular, Menlo, monospace" font-size="11" text-anchor="middle">0s</text><line x1="285.5" y1="82.0" x2="285.5" y2="232.0" stroke="#343843" stroke-width="1"/><text x="285.5" y="250.0" fill="#9ea3ad" font-family="ui-monospace, SFMono-Regular, Menlo, monospace" font-size="11" text-anchor="middle">24s</text><line x1="501.0" y1="82.0" x2="501.0" y2="232.0" stroke="#343843" stroke-width="1"/><text x="501.0" y="250.0" fill="#9ea3ad" font-family="ui-monospace, SFMono-Regular, Menlo, monospace" font-size="11" text-anchor="middle">48s</text><line x1="716.5" y1="82.0" x2="716.5" y2="232.0" stroke="#343843" stroke-width="1"/><text x="716.5" y="250.0" fill="#9ea3ad" font-family="ui-monospace, SFMono-Regular, Menlo, monospace" font-size="11" text-anchor="middle">72s</text><line x1="932.0" y1="82.0" x2="932.0" y2="232.0" stroke="#343843" stroke-width="1"/><text x="932.0" y="250.0" fill="#9ea3ad" font-family="ui-monospace, SFMono-Regular, Menlo, monospace" font-size="11" text-anchor="middle">96s</text><line x1="70.0" y1="52.0" x2="88.0" y2="52.0" stroke="#4ea1ff" stroke-width="3" stroke-linecap="round"/><text x="94.0" y="56.0" fill="#9ea3ad" font-family="ui-monospace, SFMono-Regular, Menlo, monospace" font-size="11">total</text><line x1="146.0" y1="52.0" x2="164.0" y2="52.0" stroke="#ff7b72" stroke-width="3" stroke-linecap="round"/><text x="170.0" y="56.0" fill="#9ea3ad" font-family="ui-monospace, SFMono-Regular, Menlo, monospace" font-size="11">proxy</text><line x1="222.0" y1="52.0" x2="240.0" y2="52.0" stroke="#7ee787" stroke-width="3" stroke-linecap="round"/><text x="246.0" y="56.0" fill="#9ea3ad" font-family="ui-monospace, SFMono-Regular, Menlo, monospace" font-size="11">app</text><line x1="298.0" y1="52.0" x2="316.0" y2="52.0" stroke="#f6c177" stroke-width="3" stroke-linecap="round"/><text x="322.0" y="56.0" fill="#9ea3ad" font-family="ui-monospace, SFMono-Regular, Menlo, monospace" font-size="11">loadgen</text><path d="M 70.0 170.0 L 105.9 82.3 L 141.8 83.9 L 168.8 129.6 L 195.7 175.8 L 213.7 178.9 L 240.6 182.7 L 258.6 184.2 L 285.5 181.9 L 312.4 182.1 L 339.4 174.8 L 357.3 178.2 L 384.3 178.7 L 411.2 179.1 L 429.2 180.5 L 447.1 187.0 L 465.1 192.2 L 492.0 187.3 L 519.0 182.4 L 536.9 174.3 L 563.9 188.6 L 581.8 181.2 L 608.8 170.8 L 626.7 182.2 L 644.7 188.8 L 680.6 153.4 L 734.5 82.2 L 806.3 82.4 L 842.2 82.2 L 878.1 83.4 L 932.0 83.8" fill="none" stroke="#4ea1ff" stroke-width="2.5" stroke-linejoin="round" stroke-linecap="round"/><path d="M 70.0 173.2 L 105.9 148.1 L 141.8 130.6 L 168.8 212.8 L 195.7 229.1 L 213.7 232.0 L 240.6 232.0 L 258.6 231.7 L 285.5 232.0 L 312.4 231.7 L 339.4 232.0 L 357.3 231.7 L 384.3 231.7 L 411.2 232.0 L 429.2 232.0 L 447.1 231.7 L 465.1 231.6 L 492.0 232.0 L 519.0 232.0 L 536.9 231.8 L 563.9 232.0 L 581.8 231.7 L 608.8 224.3 L 626.7 231.7 L 644.7 232.0 L 680.6 186.4 L 734.5 138.9 L 806.3 93.7 L 842.2 152.0 L 878.1 155.0 L 932.0 126.9" fill="none" stroke="#ff7b72" stroke-width="2.5" stroke-linejoin="round" stroke-linecap="round"/><path d="M 70.0 232.0 L 105.9 230.3 L 141.8 229.0 L 168.8 225.6 L 195.7 232.0 L 213.7 232.0 L 240.6 232.0 L 258.6 232.0 L 285.5 232.0 L 312.4 232.0 L 339.4 232.0 L 357.3 232.0 L 384.3 232.0 L 411.2 232.0 L 429.2 232.0 L 447.1 232.0 L 465.1 232.0 L 492.0 232.0 L 519.0 232.0 L 536.9 232.0 L 563.9 232.0 L 581.8 232.0 L 608.8 231.7 L 626.7 232.0 L 644.7 232.0 L 680.6 232.0 L 734.5 232.0 L 806.3 230.9 L 842.2 223.6 L 878.1 222.0 L 932.0 221.4" fill="none" stroke="#7ee787" stroke-width="2.5" stroke-linejoin="round" stroke-linecap="round"/><path d="M 70.0 166.9 L 105.9 194.1 L 141.8 203.2 L 168.8 230.2 L 195.7 232.0 L 213.7 232.0 L 240.6 232.0 L 258.6 232.0 L 285.5 232.0 L 312.4 232.0 L 339.4 232.0 L 357.3 232.0 L 384.3 232.0 L 411.2 232.0 L 429.2 232.0 L 447.1 232.0 L 465.1 232.0 L 492.0 232.0 L 519.0 232.0 L 536.9 232.0 L 563.9 232.0 L 581.8 231.4 L 608.8 226.8 L 626.7 232.0 L 644.7 232.0 L 680.6 178.5 L 734.5 183.0 L 806.3 213.5 L 842.2 205.3 L 878.1 202.9 L 932.0 185.0" fill="none" stroke="#f6c177" stroke-width="2.5" stroke-linejoin="round" stroke-linecap="round"/><text x="24" y="280.0" fill="#9ea3ad" font-family="ui-monospace, SFMono-Regular, Menlo, monospace" font-size="13">Process RSS (GiB)</text><line x1="70.0" y1="290.0" x2="932.0" y2="290.0" stroke="#343843" stroke-width="1"/><text x="62.0" y="294.0" fill="#9ea3ad" font-family="ui-monospace, SFMono-Regular, Menlo, monospace" font-size="11" text-anchor="end">1.0</text><line x1="70.0" y1="327.5" x2="932.0" y2="327.5" stroke="#343843" stroke-width="1"/><text x="62.0" y="331.5" fill="#9ea3ad" font-family="ui-monospace, SFMono-Regular, Menlo, monospace" font-size="11" text-anchor="end">0.8</text><line x1="70.0" y1="365.0" x2="932.0" y2="365.0" stroke="#343843" stroke-width="1"/><text x="62.0" y="369.0" fill="#9ea3ad" font-family="ui-monospace, SFMono-Regular, Menlo, monospace" font-size="11" text-anchor="end">0.5</text><line x1="70.0" y1="402.5" x2="932.0" y2="402.5" stroke="#343843" stroke-width="1"/><text x="62.0" y="406.5" fill="#9ea3ad" font-family="ui-monospace, SFMono-Regular, Menlo, monospace" font-size="11" text-anchor="end">0.2</text><line x1="70.0" y1="440.0" x2="932.0" y2="440.0" stroke="#343843" stroke-width="1"/><text x="62.0" y="444.0" fill="#9ea3ad" font-family="ui-monospace, SFMono-Regular, Menlo, monospace" font-size="11" text-anchor="end">0.0</text><line x1="70.0" y1="290.0" x2="70.0" y2="440.0" stroke="#343843" stroke-width="1"/><text x="70.0" y="458.0" fill="#9ea3ad" font-family="ui-monospace, SFMono-Regular, Menlo, monospace" font-size="11" text-anchor="middle">0s</text><line x1="285.5" y1="290.0" x2="285.5" y2="440.0" stroke="#343843" stroke-width="1"/><text x="285.5" y="458.0" fill="#9ea3ad" font-family="ui-monospace, SFMono-Regular, Menlo, monospace" font-size="11" text-anchor="middle">24s</text><line x1="501.0" y1="290.0" x2="501.0" y2="440.0" stroke="#343843" stroke-width="1"/><text x="501.0" y="458.0" fill="#9ea3ad" font-family="ui-monospace, SFMono-Regular, Menlo, monospace" font-size="11" text-anchor="middle">48s</text><line x1="716.5" y1="290.0" x2="716.5" y2="440.0" stroke="#343843" stroke-width="1"/><text x="716.5" y="458.0" fill="#9ea3ad" font-family="ui-monospace, SFMono-Regular, Menlo, monospace" font-size="11" text-anchor="middle">72s</text><line x1="932.0" y1="290.0" x2="932.0" y2="440.0" stroke="#343843" stroke-width="1"/><text x="932.0" y="458.0" fill="#9ea3ad" font-family="ui-monospace, SFMono-Regular, Menlo, monospace" font-size="11" text-anchor="middle">96s</text><line x1="70.0" y1="260.0" x2="88.0" y2="260.0" stroke="#ff7b72" stroke-width="3" stroke-linecap="round"/><text x="94.0" y="264.0" fill="#9ea3ad" font-family="ui-monospace, SFMono-Regular, Menlo, monospace" font-size="11">proxy</text><line x1="146.0" y1="260.0" x2="164.0" y2="260.0" stroke="#7ee787" stroke-width="3" stroke-linecap="round"/><text x="170.0" y="264.0" fill="#9ea3ad" font-family="ui-monospace, SFMono-Regular, Menlo, monospace" font-size="11">app</text><line x1="222.0" y1="260.0" x2="240.0" y2="260.0" stroke="#f6c177" stroke-width="3" stroke-linecap="round"/><text x="246.0" y="264.0" fill="#9ea3ad" font-family="ui-monospace, SFMono-Regular, Menlo, monospace" font-size="11">loadgen</text><path d="M 70.0 412.4 L 105.9 370.7 L 141.8 330.5 L 168.8 330.5 L 195.7 330.5 L 213.7 330.5 L 240.6 330.5 L 258.6 330.5 L 285.5 330.5 L 312.4 330.5 L 339.4 330.5 L 357.3 330.5 L 384.3 330.5 L 411.2 330.5 L 429.2 330.5 L 447.1 330.5 L 465.1 330.5 L 492.0 330.5 L 519.0 330.5 L 536.9 330.5 L 563.9 330.5 L 581.8 330.5 L 608.8 330.5 L 626.7 330.5 L 644.7 330.5 L 680.6 330.5 L 734.5 330.5 L 806.3 326.5 L 842.2 326.5 L 878.1 325.9 L 932.0 325.9" fill="none" stroke="#ff7b72" stroke-width="2.5" stroke-linejoin="round" stroke-linecap="round"/><path d="M 70.0 438.7 L 105.9 432.9 L 141.8 423.5 L 168.8 423.5 L 195.7 423.5 L 213.7 423.5 L 240.6 423.5 L 258.6 423.5 L 285.5 423.5 L 312.4 423.5 L 339.4 423.5 L 357.3 423.5 L 384.3 423.5 L 411.2 423.5 L 429.2 423.5 L 447.1 423.5 L 465.1 423.5 L 492.0 423.5 L 519.0 423.5 L 536.9 423.5 L 563.9 423.5 L 581.8 423.5 L 608.8 423.5 L 626.7 423.5 L 644.7 423.5 L 680.6 423.5 L 734.5 423.4 L 806.3 423.0 L 842.2 420.8 L 878.1 420.7 L 932.0 420.7" fill="none" stroke="#7ee787" stroke-width="2.5" stroke-linejoin="round" stroke-linecap="round"/><path d="M 70.0 349.8 L 105.9 330.3 L 141.8 325.7 L 168.8 325.7 L 195.7 325.7 L 213.7 325.7 L 240.6 325.7 L 258.6 325.7 L 285.5 325.7 L 312.4 325.7 L 339.4 325.7 L 357.3 325.7 L 384.3 325.7 L 411.2 325.7 L 429.2 325.7 L 447.1 325.7 L 465.1 325.7 L 492.0 325.7 L 519.0 325.7 L 536.9 325.7 L 563.9 325.7 L 581.8 325.7 L 608.8 325.7 L 626.7 325.7 L 644.7 325.7 L 680.6 308.0 L 734.5 310.2 L 806.3 303.5 L 842.2 301.7 L 878.1 293.1 L 932.0 438.5" fill="none" stroke="#f6c177" stroke-width="2.5" stroke-linejoin="round" stroke-linecap="round"/><text x="24" y="488.0" fill="#9ea3ad" font-family="ui-monospace, SFMono-Regular, Menlo, monospace" font-size="13">Memory used (GiB)</text><line x1="70.0" y1="498.0" x2="932.0" y2="498.0" stroke="#343843" stroke-width="1"/><text x="62.0" y="502.0" fill="#9ea3ad" font-family="ui-monospace, SFMono-Regular, Menlo, monospace" font-size="11" text-anchor="end">5.0</text><line x1="70.0" y1="535.5" x2="932.0" y2="535.5" stroke="#343843" stroke-width="1"/><text x="62.0" y="539.5" fill="#9ea3ad" font-family="ui-monospace, SFMono-Regular, Menlo, monospace" font-size="11" text-anchor="end">3.8</text><line x1="70.0" y1="573.0" x2="932.0" y2="573.0" stroke="#343843" stroke-width="1"/><text x="62.0" y="577.0" fill="#9ea3ad" font-family="ui-monospace, SFMono-Regular, Menlo, monospace" font-size="11" text-anchor="end">2.5</text><line x1="70.0" y1="610.5" x2="932.0" y2="610.5" stroke="#343843" stroke-width="1"/><text x="62.0" y="614.5" fill="#9ea3ad" font-family="ui-monospace, SFMono-Regular, Menlo, monospace" font-size="11" text-anchor="end">1.2</text><line x1="70.0" y1="648.0" x2="932.0" y2="648.0" stroke="#343843" stroke-width="1"/><text x="62.0" y="652.0" fill="#9ea3ad" font-family="ui-monospace, SFMono-Regular, Menlo, monospace" font-size="11" text-anchor="end">0.0</text><line x1="70.0" y1="498.0" x2="70.0" y2="648.0" stroke="#343843" stroke-width="1"/><text x="70.0" y="666.0" fill="#9ea3ad" font-family="ui-monospace, SFMono-Regular, Menlo, monospace" font-size="11" text-anchor="middle">0s</text><line x1="285.5" y1="498.0" x2="285.5" y2="648.0" stroke="#343843" stroke-width="1"/><text x="285.5" y="666.0" fill="#9ea3ad" font-family="ui-monospace, SFMono-Regular, Menlo, monospace" font-size="11" text-anchor="middle">24s</text><line x1="501.0" y1="498.0" x2="501.0" y2="648.0" stroke="#343843" stroke-width="1"/><text x="501.0" y="666.0" fill="#9ea3ad" font-family="ui-monospace, SFMono-Regular, Menlo, monospace" font-size="11" text-anchor="middle">48s</text><line x1="716.5" y1="498.0" x2="716.5" y2="648.0" stroke="#343843" stroke-width="1"/><text x="716.5" y="666.0" fill="#9ea3ad" font-family="ui-monospace, SFMono-Regular, Menlo, monospace" font-size="11" text-anchor="middle">72s</text><line x1="932.0" y1="498.0" x2="932.0" y2="648.0" stroke="#343843" stroke-width="1"/><text x="932.0" y="666.0" fill="#9ea3ad" font-family="ui-monospace, SFMono-Regular, Menlo, monospace" font-size="11" text-anchor="middle">96s</text><path d="M 70.0 615.5 L 105.9 597.0 L 141.8 585.6 L 168.8 584.9 L 195.7 585.0 L 213.7 585.0 L 240.6 584.2 L 258.6 583.4 L 285.5 582.5 L 312.4 582.5 L 339.4 583.7 L 357.3 583.8 L 384.3 584.1 L 411.2 584.2 L 429.2 584.2 L 447.1 584.6 L 465.1 583.5 L 492.0 582.3 L 519.0 582.5 L 536.9 583.6 L 563.9 584.0 L 581.8 585.2 L 608.8 585.4 L 626.7 585.2 L 644.7 584.7 L 680.6 582.2 L 734.5 582.8 L 806.3 581.6 L 842.2 579.3 L 878.1 577.5 L 932.0 577.6" fill="none" stroke="#a371f7" stroke-width="2.5" stroke-linejoin="round" stroke-linecap="round"/><text x="24" y="696.0" fill="#9ea3ad" font-family="ui-monospace, SFMono-Regular, Menlo, monospace" font-size="13">TLS connections</text><line x1="70.0" y1="706.0" x2="932.0" y2="706.0" stroke="#343843" stroke-width="1"/><text x="62.0" y="710.0" fill="#9ea3ad" font-family="ui-monospace, SFMono-Regular, Menlo, monospace" font-size="11" text-anchor="end">20000.0</text><line x1="70.0" y1="743.5" x2="932.0" y2="743.5" stroke="#343843" stroke-width="1"/><text x="62.0" y="747.5" fill="#9ea3ad" font-family="ui-monospace, SFMono-Regular, Menlo, monospace" font-size="11" text-anchor="end">15000.0</text><line x1="70.0" y1="781.0" x2="932.0" y2="781.0" stroke="#343843" stroke-width="1"/><text x="62.0" y="785.0" fill="#9ea3ad" font-family="ui-monospace, SFMono-Regular, Menlo, monospace" font-size="11" text-anchor="end">10000.0</text><line x1="70.0" y1="818.5" x2="932.0" y2="818.5" stroke="#343843" stroke-width="1"/><text x="62.0" y="822.5" fill="#9ea3ad" font-family="ui-monospace, SFMono-Regular, Menlo, monospace" font-size="11" text-anchor="end">5000.0</text><line x1="70.0" y1="856.0" x2="932.0" y2="856.0" stroke="#343843" stroke-width="1"/><text x="62.0" y="860.0" fill="#9ea3ad" font-family="ui-monospace, SFMono-Regular, Menlo, monospace" font-size="11" text-anchor="end">0.0</text><line x1="70.0" y1="706.0" x2="70.0" y2="856.0" stroke="#343843" stroke-width="1"/><text x="70.0" y="874.0" fill="#9ea3ad" font-family="ui-monospace, SFMono-Regular, Menlo, monospace" font-size="11" text-anchor="middle">0s</text><line x1="285.5" y1="706.0" x2="285.5" y2="856.0" stroke="#343843" stroke-width="1"/><text x="285.5" y="874.0" fill="#9ea3ad" font-family="ui-monospace, SFMono-Regular, Menlo, monospace" font-size="11" text-anchor="middle">24s</text><line x1="501.0" y1="706.0" x2="501.0" y2="856.0" stroke="#343843" stroke-width="1"/><text x="501.0" y="874.0" fill="#9ea3ad" font-family="ui-monospace, SFMono-Regular, Menlo, monospace" font-size="11" text-anchor="middle">48s</text><line x1="716.5" y1="706.0" x2="716.5" y2="856.0" stroke="#343843" stroke-width="1"/><text x="716.5" y="874.0" fill="#9ea3ad" font-family="ui-monospace, SFMono-Regular, Menlo, monospace" font-size="11" text-anchor="middle">72s</text><line x1="932.0" y1="706.0" x2="932.0" y2="856.0" stroke="#343843" stroke-width="1"/><text x="932.0" y="874.0" fill="#9ea3ad" font-family="ui-monospace, SFMono-Regular, Menlo, monospace" font-size="11" text-anchor="middle">96s</text><path d="M 70.0 743.5 L 105.9 743.5 L 141.8 743.5 L 168.8 743.5 L 195.7 743.5 L 213.7 743.5 L 240.6 743.5 L 258.6 743.5 L 285.5 743.5 L 312.4 743.5 L 339.4 743.5 L 357.3 743.5 L 384.3 743.5 L 411.2 743.5 L 429.2 743.5 L 447.1 743.5 L 465.1 743.5 L 492.0 743.5 L 519.0 743.5 L 536.9 743.5 L 563.9 743.5 L 581.8 762.6 L 608.8 774.2 L 626.7 774.2 L 644.7 774.2 L 680.6 743.5 L 734.5 743.2 L 806.3 743.5 L 842.2 743.5 L 878.1 742.7 L 932.0 840.3" fill="none" stroke="#f6c177" stroke-width="2.5" stroke-linejoin="round" stroke-linecap="round"/></svg>