<svg xmlns="http://www.w3.org/2000/svg" width="960" height="906" viewBox="0 0 960 906"><rect width="100%" height="100%" fill="#101114"/><text x="24" y="34" fill="#d7dae0" font-family="ui-monospace, SFMono-Regular, Menlo, monospace" font-size="18" font-weight="700">envoy-single-plaintext-c20000</text><text x="24" y="54" fill="#9ea3ad" font-family="ui-monospace, SFMono-Regular, Menlo, monospace" font-size="12">200 rps 827.72 | total rps 1395.75 | p99 26569.98 ms | non-200 40.7% | errors 891</text><text x="24" y="72.0" fill="#9ea3ad" font-family="ui-monospace, SFMono-Regular, Menlo, monospace" font-size="13">CPU (% total VM)</text><line x1="70.0" y1="82.0" x2="932.0" y2="82.0" stroke="#343843" stroke-width="1"/><text x="62.0" y="86.0" fill="#9ea3ad" font-family="ui-monospace, SFMono-Regular, Menlo, monospace" font-size="11" text-anchor="end">100.0</text><line x1="70.0" y1="119.5" x2="932.0" y2="119.5" stroke="#343843" stroke-width="1"/><text x="62.0" y="123.5" fill="#9ea3ad" font-family="ui-monospace, SFMono-Regular, Menlo, monospace" font-size="11" text-anchor="end">75.0</text><line x1="70.0" y1="157.0" x2="932.0" y2="157.0" stroke="#343843" stroke-width="1"/><text x="62.0" y="161.0" fill="#9ea3ad" font-family="ui-monospace, SFMono-Regular, Menlo, monospace" font-size="11" text-anchor="end">50.0</text><line x1="70.0" y1="194.5" x2="932.0" y2="194.5" stroke="#343843" stroke-width="1"/><text x="62.0" y="198.5" fill="#9ea3ad" font-family="ui-monospace, SFMono-Regular, Menlo, monospace" font-size="11" text-anchor="end">25.0</text><line x1="70.0" y1="232.0" x2="932.0" y2="232.0" stroke="#343843" stroke-width="1"/><text x="62.0" y="236.0" fill="#9ea3ad" font-family="ui-monospace, SFMono-Regular, Menlo, monospace" font-size="11" text-anchor="end">0.0</text><line x1="70.0" y1="82.0" x2="70.0" y2="232.0" stroke="#343843" stroke-width="1"/><text x="70.0" y="250.0" fill="#9ea3ad" font-family="ui-monospace, SFMono-Regular, Menlo, monospace" font-size="11" text-anchor="middle">0s</text><line x1="285.5" y1="82.0" x2="285.5" y2="232.0" stroke="#343843" stroke-width="1"/><text x="285.5" y="250.0" fill="#9ea3ad" font-family="ui-monospace, SFMono-Regular, Menlo, monospace" font-size="11" text-anchor="middle">32s</text><line x1="501.0" y1="82.0" x2="501.0" y2="232.0" stroke="#343843" stroke-width="1"/><text x="501.0" y="250.0" fill="#9ea3ad" font-family="ui-monospace, SFMono-Regular, Menlo, monospace" font-size="11" text-anchor="middle">64s</text><line x1="716.5" y1="82.0" x2="716.5" y2="232.0" stroke="#343843" stroke-width="1"/><text x="716.5" y="250.0" fill="#9ea3ad" font-family="ui-monospace, SFMono-Regular, Menlo, monospace" font-size="11" text-anchor="middle">95s</text><line x1="932.0" y1="82.0" x2="932.0" y2="232.0" stroke="#343843" stroke-width="1"/><text x="932.0" y="250.0" fill="#9ea3ad" font-family="ui-monospace, SFMono-Regular, Menlo, monospace" font-size="11" text-anchor="middle">127s</text><line x1="70.0" y1="52.0" x2="88.0" y2="52.0" stroke="#4ea1ff" stroke-width="3" stroke-linecap="round"/><text x="94.0" y="56.0" fill="#9ea3ad" font-family="ui-monospace, SFMono-Regular, Menlo, monospace" font-size="11">total</text><line x1="146.0" y1="52.0" x2="164.0" y2="52.0" stroke="#ff7b72" stroke-width="3" stroke-linecap="round"/><text x="170.0" y="56.0" fill="#9ea3ad" font-family="ui-monospace, SFMono-Regular, Menlo, monospace" font-size="11">proxy</text><line x1="222.0" y1="52.0" x2="240.0" y2="52.0" stroke="#7ee787" stroke-width="3" stroke-linecap="round"/><text x="246.0" y="56.0" fill="#9ea3ad" font-family="ui-monospace, SFMono-Regular, Menlo, monospace" font-size="11">app</text><line x1="298.0" y1="52.0" x2="316.0" y2="52.0" stroke="#f6c177" stroke-width="3" stroke-linecap="round"/><text x="322.0" y="56.0" fill="#9ea3ad" font-family="ui-monospace, SFMono-Regular, Menlo, monospace" font-size="11">loadgen</text><path d="M 70.0 202.3 L 103.9 83.5 L 131.1 82.5 L 151.4 82.5 L 165.0 178.7 L 185.4 181.6 L 205.7 183.4 L 226.1 177.1 L 239.7 176.2 L 260.0 180.1 L 280.4 180.6 L 300.8 176.3 L 314.3 181.2 L 334.7 182.8 L 355.1 177.6 L 368.6 180.0 L 389.0 180.8 L 409.4 178.1 L 429.7 177.6 L 443.3 176.4 L 463.7 183.9 L 484.0 175.0 L 504.4 177.2 L 531.5 179.1 L 565.5 87.5 L 599.4 83.5 L 653.7 82.7 L 701.2 82.2 L 728.4 82.2 L 748.7 97.5 L 762.3 158.4 L 782.7 177.2 L 803.0 183.3 L 823.4 181.5 L 837.0 176.7 L 850.6 186.2 L 870.9 183.6 L 884.5 179.8 L 898.1 192.2 L 918.4 190.3 L 932.0 178.9" fill="none" stroke="#4ea1ff" stroke-width="2.5" stroke-linejoin="round" stroke-linecap="round"/><path d="M 70.0 150.8 L 103.9 156.9 L 131.1 139.8 L 151.4 169.9 L 165.0 231.7 L 185.4 231.4 L 205.7 232.0 L 226.1 231.7 L 239.7 231.7 L 260.0 232.0 L 280.4 231.4 L 300.8 232.0 L 314.3 231.7 L 334.7 232.0 L 355.1 231.7 L 368.6 232.0 L 389.0 231.7 L 409.4 232.0 L 429.7 232.0 L 443.3 231.7 L 463.7 231.7 L 484.0 226.5 L 504.4 231.7 L 531.5 214.3 L 565.5 151.5 L 599.4 137.4 L 653.7 82.9 L 701.2 122.2 L 728.4 116.3 L 748.7 189.4 L 762.3 215.1 L 782.7 230.9 L 803.0 231.7 L 823.4 232.0 L 837.0 232.0 L 850.6 231.3 L 870.9 232.0 L 884.5 232.0 L 898.1 232.0 L 918.4 231.6 L 932.0 230.1" fill="none" stroke="#ff7b72" stroke-width="2.5" stroke-linejoin="round" stroke-linecap="round"/><path d="M 70.0 232.0 L 103.9 230.5 L 131.1 229.6 L 151.4 226.9 L 165.0 232.0 L 185.4 232.0 L 205.7 232.0 L 226.1 231.7 L 239.7 232.0 L 260.0 232.0 L 280.4 232.0 L 300.8 232.0 L 314.3 232.0 L 334.7 232.0 L 355.1 232.0 L 368.6 232.0 L 389.0 232.0 L 409.4 232.0 L 429.7 232.0 L 443.3 232.0 L 463.7 231.7 L 484.0 232.0 L 504.4 232.0 L 531.5 232.0 L 565.5 232.0 L 599.4 232.0 L 653.7 231.1 L 701.2 231.3 L 728.4 221.4 L 748.7 229.1 L 762.3 232.0 L 782.7 231.7 L 803.0 232.0 L 823.4 232.0 L 837.0 232.0 L 850.6 232.0 L 870.9 232.0 L 884.5 232.0 L 898.1 232.0 L 918.4 232.0 L 932.0 232.0" fill="none" stroke="#7ee787" stroke-width="2.5" stroke-linejoin="round" stroke-linecap="round"/><path d="M 70.0 123.1 L 103.9 193.9 L 131.1 206.3 L 151.4 208.4 L 165.0 232.0 L 185.4 232.0 L 205.7 232.0 L 226.1 232.0 L 239.7 232.0 L 260.0 232.0 L 280.4 232.0 L 300.8 232.0 L 314.3 232.0 L 334.7 232.0 L 355.1 232.0 L 368.6 232.0 L 389.0 232.0 L 409.4 232.0 L 429.7 232.0 L 443.3 232.0 L 463.7 228.2 L 484.0 230.9 L 504.4 232.0 L 531.5 199.3 L 565.5 173.9 L 599.4 202.6 L 653.7 213.6 L 701.2 223.2 L 728.4 214.8 L 748.7 222.1 L 762.3 223.0 L 782.7 232.0 L 803.0 232.0 L 823.4 232.0 L 837.0 232.0 L 850.6 232.0 L 870.9 232.0 L 884.5 232.0 L 898.1 232.0 L 918.4 232.0 L 932.0 230.4" fill="none" stroke="#f6c177" stroke-width="2.5" stroke-linejoin="round" stroke-linecap="round"/><text x="24" y="280.0" fill="#9ea3ad" font-family="ui-monospace, SFMono-Regular, Menlo, monospace" font-size="13">Process RSS (GiB)</text><line x1="70.0" y1="290.0" x2="932.0" y2="290.0" stroke="#343843" stroke-width="1"/><text x="62.0" y="294.0" fill="#9ea3ad" font-family="ui-monospace, SFMono-Regular, Menlo, monospace" font-size="11" text-anchor="end">2.0</text><line x1="70.0" y1="327.5" x2="932.0" y2="327.5" stroke="#343843" stroke-width="1"/><text x="62.0" y="331.5" fill="#9ea3ad" font-family="ui-monospace, SFMono-Regular, Menlo, monospace" font-size="11" text-anchor="end">1.5</text><line x1="70.0" y1="365.0" x2="932.0" y2="365.0" stroke="#343843" stroke-width="1"/><text x="62.0" y="369.0" fill="#9ea3ad" font-family="ui-monospace, SFMono-Regular, Menlo, monospace" font-size="11" text-anchor="end">1.0</text><line x1="70.0" y1="402.5" x2="932.0" y2="402.5" stroke="#343843" stroke-width="1"/><text x="62.0" y="406.5" fill="#9ea3ad" font-family="ui-monospace, SFMono-Regular, Menlo, monospace" font-size="11" text-anchor="end">0.5</text><line x1="70.0" y1="440.0" x2="932.0" y2="440.0" stroke="#343843" stroke-width="1"/><text x="62.0" y="444.0" fill="#9ea3ad" font-family="ui-monospace, SFMono-Regular, Menlo, monospace" font-size="11" text-anchor="end">0.0</text><line x1="70.0" y1="290.0" x2="70.0" y2="440.0" stroke="#343843" stroke-width="1"/><text x="70.0" y="458.0" fill="#9ea3ad" font-family="ui-monospace, SFMono-Regular, Menlo, monospace" font-size="11" text-anchor="middle">0s</text><line x1="285.5" y1="290.0" x2="285.5" y2="440.0" stroke="#343843" stroke-width="1"/><text x="285.5" y="458.0" fill="#9ea3ad" font-family="ui-monospace, SFMono-Regular, Menlo, monospace" font-size="11" text-anchor="middle">32s</text><line x1="501.0" y1="290.0" x2="501.0" y2="440.0" stroke="#343843" stroke-width="1"/><text x="501.0" y="458.0" fill="#9ea3ad" font-family="ui-monospace, SFMono-Regular, Menlo, monospace" font-size="11" text-anchor="middle">64s</text><line x1="716.5" y1="290.0" x2="716.5" y2="440.0" stroke="#343843" stroke-width="1"/><text x="716.5" y="458.0" fill="#9ea3ad" font-family="ui-monospace, SFMono-Regular, Menlo, monospace" font-size="11" text-anchor="middle">95s</text><line x1="932.0" y1="290.0" x2="932.0" y2="440.0" stroke="#343843" stroke-width="1"/><text x="932.0" y="458.0" fill="#9ea3ad" font-family="ui-monospace, SFMono-Regular, Menlo, monospace" font-size="11" text-anchor="middle">127s</text><line x1="70.0" y1="260.0" x2="88.0" y2="260.0" stroke="#ff7b72" stroke-width="3" stroke-linecap="round"/><text x="94.0" y="264.0" fill="#9ea3ad" font-family="ui-monospace, SFMono-Regular, Menlo, monospace" font-size="11">proxy</text><line x1="146.0" y1="260.0" x2="164.0" y2="260.0" stroke="#7ee787" stroke-width="3" stroke-linecap="round"/><text x="170.0" y="264.0" fill="#9ea3ad" font-family="ui-monospace, SFMono-Regular, Menlo, monospace" font-size="11">app</text><line x1="222.0" y1="260.0" x2="240.0" y2="260.0" stroke="#f6c177" stroke-width="3" stroke-linecap="round"/><text x="246.0" y="264.0" fill="#9ea3ad" font-family="ui-monospace, SFMono-Regular, Menlo, monospace" font-size="11">loadgen</text><path d="M 70.0 421.6 L 103.9 407.9 L 131.1 395.2 L 151.4 388.9 L 165.0 388.9 L 185.4 388.9 L 205.7 388.9 L 226.1 388.9 L 239.7 388.9 L 260.0 388.9 L 280.4 388.9 L 300.8 388.9 L 314.3 388.9 L 334.7 388.9 L 355.1 388.9 L 368.6 388.9 L 389.0 388.9 L 409.4 388.9 L 429.7 388.9 L 443.3 388.9 L 463.7 388.9 L 484.0 388.9 L 504.4 388.9 L 531.5 388.9 L 565.5 388.9 L 599.4 388.9 L 653.7 374.6 L 701.2 366.8 L 728.4 366.8 L 748.7 366.8 L 762.3 366.8 L 782.7 366.8 L 803.0 366.8 L 823.4 366.8 L 837.0 366.8 L 850.6 366.8 L 870.9 366.8 L 884.5 366.8 L 898.1 366.8 L 918.4 366.8 L 932.0 366.8" fill="none" stroke="#ff7b72" stroke-width="2.5" stroke-linejoin="round" stroke-linecap="round"/><path d="M 70.0 439.3 L 103.9 437.7 L 131.1 434.4 L 151.4 432.4 L 165.0 432.4 L 185.4 432.4 L 205.7 432.4 L 226.1 432.4 L 239.7 432.4 L 260.0 432.4 L 280.4 432.4 L 300.8 432.4 L 314.3 432.4 L 334.7 432.4 L 355.1 432.4 L 368.6 432.4 L 389.0 432.4 L 409.4 432.4 L 429.7 432.4 L 443.3 432.4 L 463.7 432.4 L 484.0 432.4 L 504.4 432.4 L 531.5 432.4 L 565.5 432.4 L 599.4 432.3 L 653.7 431.6 L 701.2 430.4 L 728.4 430.3 L 748.7 430.3 L 762.3 430.3 L 782.7 430.3 L 803.0 430.3 L 823.4 430.3 L 837.0 430.3 L 850.6 430.3 L 870.9 430.3 L 884.5 430.3 L 898.1 430.3 L 918.4 430.3 L 932.0 430.3" fill="none" stroke="#7ee787" stroke-width="2.5" stroke-linejoin="round" stroke-linecap="round"/><path d="M 70.0 382.5 L 103.9 370.1 L 131.1 362.3 L 151.4 359.6 L 165.0 359.6 L 185.4 359.6 L 205.7 359.6 L 226.1 359.6 L 239.7 359.6 L 260.0 359.6 L 280.4 359.6 L 300.8 359.6 L 314.3 359.6 L 334.7 359.6 L 355.1 359.6 L 368.6 359.6 L 389.0 359.6 L 409.4 359.6 L 429.7 359.6 L 443.3 359.6 L 463.7 359.6 L 484.0 359.6 L 504.4 359.6 L 531.5 350.1 L 565.5 340.1 L 599.4 349.6 L 653.7 349.6 L 701.2 346.1 L 728.4 341.2 L 748.7 344.6 L 762.3 344.6 L 782.7 344.6 L 803.0 344.6 L 823.4 344.6 L 837.0 344.6 L 850.6 344.6 L 870.9 344.6 L 884.5 344.6 L 898.1 344.6 L 918.4 344.6 L 932.0 344.6" fill="none" stroke="#f6c177" stroke-width="2.5" stroke-linejoin="round" stroke-linecap="round"/><text x="24" y="488.0" fill="#9ea3ad" font-family="ui-monospace, SFMono-Regular, Menlo, monospace" font-size="13">Memory used (GiB)</text><line x1="70.0" y1="498.0" x2="932.0" y2="498.0" stroke="#343843" stroke-width="1"/><text x="62.0" y="502.0" fill="#9ea3ad" font-family="ui-monospace, SFMono-Regular, Menlo, monospace" font-size="11" text-anchor="end">5.0</text><line x1="70.0" y1="535.5" x2="932.0" y2="535.5" stroke="#343843" stroke-width="1"/><text x="62.0" y="539.5" fill="#9ea3ad" font-family="ui-monospace, SFMono-Regular, Menlo, monospace" font-size="11" text-anchor="end">3.8</text><line x1="70.0" y1="573.0" x2="932.0" y2="573.0" stroke="#343843" stroke-width="1"/><text x="62.0" y="577.0" fill="#9ea3ad" font-family="ui-monospace, SFMono-Regular, Menlo, monospace" font-size="11" text-anchor="end">2.5</text><line x1="70.0" y1="610.5" x2="932.0" y2="610.5" stroke="#343843" stroke-width="1"/><text x="62.0" y="614.5" fill="#9ea3ad" font-family="ui-monospace, SFMono-Regular, Menlo, monospace" font-size="11" text-anchor="end">1.2</text><line x1="70.0" y1="648.0" x2="932.0" y2="648.0" stroke="#343843" stroke-width="1"/><text x="62.0" y="652.0" fill="#9ea3ad" font-family="ui-monospace, SFMono-Regular, Menlo, monospace" font-size="11" text-anchor="end">0.0</text><line x1="70.0" y1="498.0" x2="70.0" y2="648.0" stroke="#343843" stroke-width="1"/><text x="70.0" y="666.0" fill="#9ea3ad" font-family="ui-monospace, SFMono-Regular, Menlo, monospace" font-size="11" text-anchor="middle">0s</text><line x1="285.5" y1="498.0" x2="285.5" y2="648.0" stroke="#343843" stroke-width="1"/><text x="285.5" y="666.0" fill="#9ea3ad" font-family="ui-monospace, SFMono-Regular, Menlo, monospace" font-size="11" text-anchor="middle">32s</text><line x1="501.0" y1="498.0" x2="501.0" y2="648.0" stroke="#343843" stroke-width="1"/><text x="501.0" y="666.0" fill="#9ea3ad" font-family="ui-monospace, SFMono-Regular, Menlo, monospace" font-size="11" text-anchor="middle">64s</text><line x1="716.5" y1="498.0" x2="716.5" y2="648.0" stroke="#343843" stroke-width="1"/><text x="716.5" y="666.0" fill="#9ea3ad" font-family="ui-monospace, SFMono-Regular, Menlo, monospace" font-size="11" text-anchor="middle">95s</text><line x1="932.0" y1="498.0" x2="932.0" y2="648.0" stroke="#343843" stroke-width="1"/><text x="932.0" y="666.0" fill="#9ea3ad" font-family="ui-monospace, SFMono-Regular, Menlo, monospace" font-size="11" text-anchor="middle">127s</text><path d="M 70.0 611.2 L 103.9 593.4 L 131.1 583.5 L 151.4 575.9 L 165.0 575.4 L 185.4 575.3 L 205.7 573.9 L 226.1 574.4 L 239.7 576.1 L 260.0 575.8 L 280.4 575.5 L 300.8 575.5 L 314.3 575.9 L 334.7 575.2 L 355.1 574.5 L 368.6 575.0 L 389.0 575.0 L 409.4 575.8 L 429.7 575.7 L 443.3 574.6 L 463.7 575.8 L 484.0 575.8 L 504.4 575.8 L 531.5 578.0 L 565.5 569.0 L 599.4 571.6 L 653.7 567.4 L 701.2 561.9 L 728.4 558.3 L 748.7 559.4 L 762.3 560.4 L 782.7 561.0 L 803.0 561.1 L 823.4 560.7 L 837.0 560.3 L 850.6 559.8 L 870.9 559.7 L 884.5 559.2 L 898.1 559.8 L 918.4 560.1 L 932.0 560.0" fill="none" stroke="#a371f7" stroke-width="2.5" stroke-linejoin="round" stroke-linecap="round"/><text x="24" y="696.0" fill="#9ea3ad" font-family="ui-monospace, SFMono-Regular, Menlo, monospace" font-size="13">TLS connections</text><line x1="70.0" y1="706.0" x2="932.0" y2="706.0" stroke="#343843" stroke-width="1"/><text x="62.0" y="710.0" fill="#9ea3ad" font-family="ui-monospace, SFMono-Regular, Menlo, monospace" font-size="11" text-anchor="end">50000.0</text><line x1="70.0" y1="743.5" x2="932.0" y2="743.5" stroke="#343843" stroke-width="1"/><text x="62.0" y="747.5" fill="#9ea3ad" font-family="ui-monospace, SFMono-Regular, Menlo, monospace" font-size="11" text-anchor="end">37500.0</text><line x1="70.0" y1="781.0" x2="932.0" y2="781.0" stroke="#343843" stroke-width="1"/><text x="62.0" y="785.0" fill="#9ea3ad" font-family="ui-monospace, SFMono-Regular, Menlo, monospace" font-size="11" text-anchor="end">25000.0</text><line x1="70.0" y1="818.5" x2="932.0" y2="818.5" stroke="#343843" stroke-width="1"/><text x="62.0" y="822.5" fill="#9ea3ad" font-family="ui-monospace, SFMono-Regular, Menlo, monospace" font-size="11" text-anchor="end">12500.0</text><line x1="70.0" y1="856.0" x2="932.0" y2="856.0" stroke="#343843" stroke-width="1"/><text x="62.0" y="860.0" fill="#9ea3ad" font-family="ui-monospace, SFMono-Regular, Menlo, monospace" font-size="11" text-anchor="end">0.0</text><line x1="70.0" y1="706.0" x2="70.0" y2="856.0" stroke="#343843" stroke-width="1"/><text x="70.0" y="874.0" fill="#9ea3ad" font-family="ui-monospace, SFMono-Regular, Menlo, monospace" font-size="11" text-anchor="middle">0s</text><line x1="285.5" y1="706.0" x2="285.5" y2="856.0" stroke="#343843" stroke-width="1"/><text x="285.5" y="874.0" fill="#9ea3ad" font-family="ui-monospace, SFMono-Regular, Menlo, monospace" font-size="11" text-anchor="middle">32s</text><line x1="501.0" y1="706.0" x2="501.0" y2="856.0" stroke="#343843" stroke-width="1"/><text x="501.0" y="874.0" fill="#9ea3ad" font-family="ui-monospace, SFMono-Regular, Menlo, monospace" font-size="11" text-anchor="middle">64s</text><line x1="716.5" y1="706.0" x2="716.5" y2="856.0" stroke="#343843" stroke-width="1"/><text x="716.5" y="874.0" fill="#9ea3ad" font-family="ui-monospace, SFMono-Regular, Menlo, monospace" font-size="11" text-anchor="middle">95s</text><line x1="932.0" y1="706.0" x2="932.0" y2="856.0" stroke="#343843" stroke-width="1"/><text x="932.0" y="874.0" fill="#9ea3ad" font-family="ui-monospace, SFMono-Regular, Menlo, monospace" font-size="11" text-anchor="middle">127s</text><path d="M 70.0 802.1 L 103.9 795.9 L 131.1 795.5 L 151.4 796.0 L 165.0 796.0 L 185.4 796.0 L 205.7 796.0 L 226.1 796.0 L 239.7 796.0 L 260.0 796.0 L 280.4 796.0 L 300.8 796.0 L 314.3 796.0 L 334.7 796.0 L 355.1 796.0 L 368.6 796.0 L 389.0 796.0 L 409.4 796.0 L 429.7 796.0 L 443.3 796.0 L 463.7 805.4 L 484.0 805.6 L 504.4 805.6 L 531.5 796.0 L 565.5 796.0 L 599.4 796.0 L 653.7 796.0 L 701.2 795.9 L 728.4 796.0 L 748.7 796.0 L 762.3 796.0 L 782.7 796.0 L 803.0 796.0 L 823.4 796.0 L 837.0 796.0 L 850.6 796.0 L 870.9 796.0 L 884.5 796.0 L 898.1 796.0 L 918.4 796.0 L 932.0 798.5" fill="none" stroke="#f6c177" stroke-width="2.5" stroke-linejoin="round" stroke-linecap="round"/></svg>