<svg xmlns="http://www.w3.org/2000/svg" width="960" height="906" viewBox="0 0 960 906"><rect width="100%" height="100%" fill="#101114"/><text x="24" y="34" fill="#d7dae0" font-family="ui-monospace, SFMono-Regular, Menlo, monospace" font-size="18" font-weight="700">envoy-single-plaintext-c7500</text><text x="24" y="54" fill="#9ea3ad" font-family="ui-monospace, SFMono-Regular, Menlo, monospace" font-size="12">200 rps 4302.57 | total rps 4302.57 | p99 4843.15 ms | non-200 0% | errors 3216</text><text x="24" y="72.0" fill="#9ea3ad" font-family="ui-monospace, SFMono-Regular, Menlo, monospace" font-size="13">CPU (% total VM)</text><line x1="70.0" y1="82.0" x2="932.0" y2="82.0" stroke="#343843" stroke-width="1"/><text x="62.0" y="86.0" fill="#9ea3ad" font-family="ui-monospace, SFMono-Regular, Menlo, monospace" font-size="11" text-anchor="end">100.0</text><line x1="70.0" y1="119.5" x2="932.0" y2="119.5" stroke="#343843" stroke-width="1"/><text x="62.0" y="123.5" fill="#9ea3ad" font-family="ui-monospace, SFMono-Regular, Menlo, monospace" font-size="11" text-anchor="end">75.0</text><line x1="70.0" y1="157.0" x2="932.0" y2="157.0" stroke="#343843" stroke-width="1"/><text x="62.0" y="161.0" fill="#9ea3ad" font-family="ui-monospace, SFMono-Regular, Menlo, monospace" font-size="11" text-anchor="end">50.0</text><line x1="70.0" y1="194.5" x2="932.0" y2="194.5" stroke="#343843" stroke-width="1"/><text x="62.0" y="198.5" fill="#9ea3ad" font-family="ui-monospace, SFMono-Regular, Menlo, monospace" font-size="11" text-anchor="end">25.0</text><line x1="70.0" y1="232.0" x2="932.0" y2="232.0" stroke="#343843" stroke-width="1"/><text x="62.0" y="236.0" fill="#9ea3ad" font-family="ui-monospace, SFMono-Regular, Menlo, monospace" font-size="11" text-anchor="end">0.0</text><line x1="70.0" y1="82.0" x2="70.0" y2="232.0" stroke="#343843" stroke-width="1"/><text x="70.0" y="250.0" fill="#9ea3ad" font-family="ui-monospace, SFMono-Regular, Menlo, monospace" font-size="11" text-anchor="middle">0s</text><line x1="285.5" y1="82.0" x2="285.5" y2="232.0" stroke="#343843" stroke-width="1"/><text x="285.5" y="250.0" fill="#9ea3ad" font-family="ui-monospace, SFMono-Regular, Menlo, monospace" font-size="11" text-anchor="middle">34s</text><line x1="501.0" y1="82.0" x2="501.0" y2="232.0" stroke="#343843" stroke-width="1"/><text x="501.0" y="250.0" fill="#9ea3ad" font-family="ui-monospace, SFMono-Regular, Menlo, monospace" font-size="11" text-anchor="middle">68s</text><line x1="716.5" y1="82.0" x2="716.5" y2="232.0" stroke="#343843" stroke-width="1"/><text x="716.5" y="250.0" fill="#9ea3ad" font-family="ui-monospace, SFMono-Regular, Menlo, monospace" font-size="11" text-anchor="middle">102s</text><line x1="932.0" y1="82.0" x2="932.0" y2="232.0" stroke="#343843" stroke-width="1"/><text x="932.0" y="250.0" fill="#9ea3ad" font-family="ui-monospace, SFMono-Regular, Menlo, monospace" font-size="11" text-anchor="middle">136s</text><line x1="70.0" y1="52.0" x2="88.0" y2="52.0" stroke="#4ea1ff" stroke-width="3" stroke-linecap="round"/><text x="94.0" y="56.0" fill="#9ea3ad" font-family="ui-monospace, SFMono-Regular, Menlo, monospace" font-size="11">total</text><line x1="146.0" y1="52.0" x2="164.0" y2="52.0" stroke="#ff7b72" stroke-width="3" stroke-linecap="round"/><text x="170.0" y="56.0" fill="#9ea3ad" font-family="ui-monospace, SFMono-Regular, Menlo, monospace" font-size="11">proxy</text><line x1="222.0" y1="52.0" x2="240.0" y2="52.0" stroke="#7ee787" stroke-width="3" stroke-linecap="round"/><text x="246.0" y="56.0" fill="#9ea3ad" font-family="ui-monospace, SFMono-Regular, Menlo, monospace" font-size="11">app</text><line x1="298.0" y1="52.0" x2="316.0" y2="52.0" stroke="#f6c177" stroke-width="3" stroke-linecap="round"/><text x="322.0" y="56.0" fill="#9ea3ad" font-family="ui-monospace, SFMono-Regular, Menlo, monospace" font-size="11">loadgen</text><path d="M 70.0 172.5 L 101.7 83.1 L 120.7 83.8 L 139.7 138.1 L 152.4 179.1 L 171.4 179.6 L 190.4 175.7 L 209.4 179.3 L 228.5 179.6 L 241.1 177.8 L 260.1 184.4 L 279.2 182.3 L 291.8 177.7 L 310.9 178.5 L 329.9 182.0 L 342.5 180.2 L 361.6 186.4 L 374.2 177.1 L 393.2 186.9 L 405.9 181.6 L 424.9 185.9 L 437.6 181.0 L 456.6 180.1 L 469.3 177.9 L 488.3 182.5 L 513.7 132.9 L 545.4 83.0 L 583.4 85.0 L 608.8 82.4 L 646.8 84.1 L 678.5 83.5 L 697.5 109.2 L 716.5 178.5 L 735.5 180.1 L 748.2 180.4 L 767.2 176.8 L 786.2 177.8 L 798.9 183.8 L 817.9 182.6 L 836.9 178.9 L 849.6 178.2 L 868.6 182.4 L 881.3 173.5 L 900.3 186.9 L 919.3 177.0 L 932.0 179.6" fill="none" stroke="#4ea1ff" stroke-width="2.5" stroke-linejoin="round" stroke-linecap="round"/><path d="M 70.0 192.2 L 101.7 131.5 L 120.7 156.0 L 139.7 221.3 L 152.4 231.7 L 171.4 232.0 L 190.4 231.7 L 209.4 231.7 L 228.5 232.0 L 241.1 232.0 L 260.1 231.7 L 279.2 232.0 L 291.8 231.7 L 310.9 232.0 L 329.9 231.7 L 342.5 232.0 L 361.6 232.0 L 374.2 231.5 L 393.2 232.0 L 405.9 232.0 L 424.9 231.7 L 437.6 231.7 L 456.6 228.6 L 469.3 230.1 L 488.3 230.7 L 513.7 170.0 L 545.4 137.1 L 583.4 151.9 L 608.8 162.1 L 646.8 160.1 L 678.5 152.2 L 697.5 193.7 L 716.5 231.7 L 735.5 231.7 L 748.2 232.0 L 767.2 232.0 L 786.2 231.7 L 798.9 232.0 L 817.9 231.7 L 836.9 231.7 L 849.6 232.0 L 868.6 231.7 L 881.3 228.4 L 900.3 231.7 L 919.3 229.1 L 932.0 231.4" fill="none" stroke="#ff7b72" stroke-width="2.5" stroke-linejoin="round" stroke-linecap="round"/><path d="M 70.0 232.0 L 101.7 230.0 L 120.7 214.9 L 139.7 222.6 L 152.4 232.0 L 171.4 232.0 L 190.4 232.0 L 209.4 232.0 L 228.5 232.0 L 241.1 232.0 L 260.1 232.0 L 279.2 232.0 L 291.8 232.0 L 310.9 231.7 L 329.9 232.0 L 342.5 232.0 L 361.6 232.0 L 374.2 232.0 L 393.2 232.0 L 405.9 232.0 L 424.9 232.0 L 437.6 232.0 L 456.6 231.7 L 469.3 232.0 L 488.3 232.0 L 513.7 232.0 L 545.4 226.1 L 583.4 209.8 L 608.8 211.4 L 646.8 212.5 L 678.5 211.0 L 697.5 217.5 L 716.5 232.0 L 735.5 232.0 L 748.2 232.0 L 767.2 232.0 L 786.2 232.0 L 798.9 232.0 L 817.9 232.0 L 836.9 232.0 L 849.6 232.0 L 868.6 232.0 L 881.3 232.0 L 900.3 232.0 L 919.3 231.7 L 932.0 232.0" fill="none" stroke="#7ee787" stroke-width="2.5" stroke-linejoin="round" stroke-linecap="round"/><path d="M 70.0 191.8 L 101.7 194.4 L 120.7 197.5 L 139.7 229.3 L 152.4 232.0 L 171.4 232.0 L 190.4 232.0 L 209.4 232.0 L 228.5 232.0 L 241.1 232.0 L 260.1 232.0 L 279.2 232.0 L 291.8 232.0 L 310.9 232.0 L 329.9 232.0 L 342.5 232.0 L 361.6 232.0 L 374.2 232.0 L 393.2 232.0 L 405.9 232.0 L 424.9 232.0 L 437.6 231.4 L 456.6 230.2 L 469.3 230.9 L 488.3 231.0 L 513.7 186.3 L 545.4 196.1 L 583.4 191.2 L 608.8 202.1 L 646.8 193.0 L 678.5 194.6 L 697.5 217.5 L 716.5 232.0 L 735.5 232.0 L 748.2 232.0 L 767.2 232.0 L 786.2 232.0 L 798.9 232.0 L 817.9 232.0 L 836.9 232.0 L 849.6 232.0 L 868.6 232.0 L 881.3 229.5 L 900.3 232.0 L 919.3 229.9 L 932.0 232.0" fill="none" stroke="#f6c177" stroke-width="2.5" stroke-linejoin="round" stroke-linecap="round"/><text x="24" y="280.0" fill="#9ea3ad" font-family="ui-monospace, SFMono-Regular, Menlo, monospace" font-size="13">Process RSS (GiB)</text><line x1="70.0" y1="290.0" x2="932.0" y2="290.0" stroke="#343843" stroke-width="1"/><text x="62.0" y="294.0" fill="#9ea3ad" font-family="ui-monospace, SFMono-Regular, Menlo, monospace" font-size="11" text-anchor="end">1.0</text><line x1="70.0" y1="327.5" x2="932.0" y2="327.5" stroke="#343843" stroke-width="1"/><text x="62.0" y="331.5" fill="#9ea3ad" font-family="ui-monospace, SFMono-Regular, Menlo, monospace" font-size="11" text-anchor="end">0.8</text><line x1="70.0" y1="365.0" x2="932.0" y2="365.0" stroke="#343843" stroke-width="1"/><text x="62.0" y="369.0" fill="#9ea3ad" font-family="ui-monospace, SFMono-Regular, Menlo, monospace" font-size="11" text-anchor="end">0.5</text><line x1="70.0" y1="402.5" x2="932.0" y2="402.5" stroke="#343843" stroke-width="1"/><text x="62.0" y="406.5" fill="#9ea3ad" font-family="ui-monospace, SFMono-Regular, Menlo, monospace" font-size="11" text-anchor="end">0.2</text><line x1="70.0" y1="440.0" x2="932.0" y2="440.0" stroke="#343843" stroke-width="1"/><text x="62.0" y="444.0" fill="#9ea3ad" font-family="ui-monospace, SFMono-Regular, Menlo, monospace" font-size="11" text-anchor="end">0.0</text><line x1="70.0" y1="290.0" x2="70.0" y2="440.0" stroke="#343843" stroke-width="1"/><text x="70.0" y="458.0" fill="#9ea3ad" font-family="ui-monospace, SFMono-Regular, Menlo, monospace" font-size="11" text-anchor="middle">0s</text><line x1="285.5" y1="290.0" x2="285.5" y2="440.0" stroke="#343843" stroke-width="1"/><text x="285.5" y="458.0" fill="#9ea3ad" font-family="ui-monospace, SFMono-Regular, Menlo, monospace" font-size="11" text-anchor="middle">34s</text><line x1="501.0" y1="290.0" x2="501.0" y2="440.0" stroke="#343843" stroke-width="1"/><text x="501.0" y="458.0" fill="#9ea3ad" font-family="ui-monospace, SFMono-Regular, Menlo, monospace" font-size="11" text-anchor="middle">68s</text><line x1="716.5" y1="290.0" x2="716.5" y2="440.0" stroke="#343843" stroke-width="1"/><text x="716.5" y="458.0" fill="#9ea3ad" font-family="ui-monospace, SFMono-Regular, Menlo, monospace" font-size="11" text-anchor="middle">102s</text><line x1="932.0" y1="290.0" x2="932.0" y2="440.0" stroke="#343843" stroke-width="1"/><text x="932.0" y="458.0" fill="#9ea3ad" font-family="ui-monospace, SFMono-Regular, Menlo, monospace" font-size="11" text-anchor="middle">136s</text><line x1="70.0" y1="260.0" x2="88.0" y2="260.0" stroke="#ff7b72" stroke-width="3" stroke-linecap="round"/><text x="94.0" y="264.0" fill="#9ea3ad" font-family="ui-monospace, SFMono-Regular, Menlo, monospace" font-size="11">proxy</text><line x1="146.0" y1="260.0" x2="164.0" y2="260.0" stroke="#7ee787" stroke-width="3" stroke-linecap="round"/><text x="170.0" y="264.0" fill="#9ea3ad" font-family="ui-monospace, SFMono-Regular, Menlo, monospace" font-size="11">app</text><line x1="222.0" y1="260.0" x2="240.0" y2="260.0" stroke="#f6c177" stroke-width="3" stroke-linecap="round"/><text x="246.0" y="264.0" fill="#9ea3ad" font-family="ui-monospace, SFMono-Regular, Menlo, monospace" font-size="11">loadgen</text><path d="M 70.0 413.8 L 101.7 378.5 L 120.7 376.9 L 139.7 376.9 L 152.4 376.9 L 171.4 376.9 L 190.4 376.9 L 209.4 376.9 L 228.5 376.9 L 241.1 376.9 L 260.1 376.9 L 279.2 376.9 L 291.8 376.9 L 310.9 376.9 L 329.9 376.9 L 342.5 376.9 L 361.6 376.9 L 374.2 376.9 L 393.2 376.9 L 405.9 376.9 L 424.9 376.9 L 437.6 376.9 L 456.6 376.9 L 469.3 376.9 L 488.3 376.9 L 513.7 376.9 L 545.4 374.2 L 583.4 374.2 L 608.8 374.2 L 646.8 374.2 L 678.5 374.2 L 697.5 374.2 L 716.5 374.2 L 735.5 374.2 L 748.2 374.2 L 767.2 374.2 L 786.2 374.2 L 798.9 374.2 L 817.9 374.2 L 836.9 374.2 L 849.6 374.2 L 868.6 374.2 L 881.3 374.2 L 900.3 374.2 L 919.3 374.2 L 932.0 374.2" fill="none" stroke="#ff7b72" stroke-width="2.5" stroke-linejoin="round" stroke-linecap="round"/><path d="M 70.0 438.8 L 101.7 424.1 L 120.7 420.7 L 139.7 420.7 L 152.4 420.7 L 171.4 420.7 L 190.4 420.7 L 209.4 420.7 L 228.5 420.7 L 241.1 420.7 L 260.1 420.7 L 279.2 420.7 L 291.8 420.7 L 310.9 420.7 L 329.9 420.7 L 342.5 420.7 L 361.6 420.7 L 374.2 420.7 L 393.2 420.7 L 405.9 420.7 L 424.9 420.7 L 437.6 420.7 L 456.6 420.7 L 469.3 420.7 L 488.3 420.7 L 513.7 420.7 L 545.4 420.5 L 583.4 420.5 L 608.8 420.5 L 646.8 420.4 L 678.5 420.4 L 697.5 420.4 L 716.5 420.4 L 735.5 420.4 L 748.2 420.4 L 767.2 420.4 L 786.2 420.4 L 798.9 420.4 L 817.9 420.4 L 836.9 420.4 L 849.6 420.4 L 868.6 420.4 L 881.3 420.4 L 900.3 420.4 L 919.3 420.4 L 932.0 420.4" fill="none" stroke="#7ee787" stroke-width="2.5" stroke-linejoin="round" stroke-linecap="round"/><path d="M 70.0 389.4 L 101.7 370.9 L 120.7 366.5 L 139.7 366.5 L 152.4 366.5 L 171.4 366.5 L 190.4 366.5 L 209.4 366.5 L 228.5 366.5 L 241.1 366.5 L 260.1 366.5 L 279.2 366.5 L 291.8 366.5 L 310.9 366.5 L 329.9 366.5 L 342.5 366.5 L 361.6 366.5 L 374.2 366.5 L 393.2 366.5 L 405.9 366.5 L 424.9 366.5 L 437.6 366.5 L 456.6 366.5 L 469.3 366.5 L 488.3 366.5 L 513.7 363.4 L 545.4 361.7 L 583.4 361.1 L 608.8 360.4 L 646.8 360.3 L 678.5 360.3 L 697.5 360.3 L 716.5 360.3 L 735.5 360.3 L 748.2 360.3 L 767.2 360.3 L 786.2 360.3 L 798.9 360.3 L 817.9 360.3 L 836.9 360.3 L 849.6 360.3 L 868.6 360.3 L 881.3 360.3 L 900.3 360.3 L 919.3 360.3 L 932.0 440.0" fill="none" stroke="#f6c177" stroke-width="2.5" stroke-linejoin="round" stroke-linecap="round"/><text x="24" y="488.0" fill="#9ea3ad" font-family="ui-monospace, SFMono-Regular, Menlo, monospace" font-size="13">Memory used (GiB)</text><line x1="70.0" y1="498.0" x2="932.0" y2="498.0" stroke="#343843" stroke-width="1"/><text x="62.0" y="502.0" fill="#9ea3ad" font-family="ui-monospace, SFMono-Regular, Menlo, monospace" font-size="11" text-anchor="end">2.0</text><line x1="70.0" y1="535.5" x2="932.0" y2="535.5" stroke="#343843" stroke-width="1"/><text x="62.0" y="539.5" fill="#9ea3ad" font-family="ui-monospace, SFMono-Regular, Menlo, monospace" font-size="11" text-anchor="end">1.5</text><line x1="70.0" y1="573.0" x2="932.0" y2="573.0" stroke="#343843" stroke-width="1"/><text x="62.0" y="577.0" fill="#9ea3ad" font-family="ui-monospace, SFMono-Regular, Menlo, monospace" font-size="11" text-anchor="end">1.0</text><line x1="70.0" y1="610.5" x2="932.0" y2="610.5" stroke="#343843" stroke-width="1"/><text x="62.0" y="614.5" fill="#9ea3ad" font-family="ui-monospace, SFMono-Regular, Menlo, monospace" font-size="11" text-anchor="end">0.5</text><line x1="70.0" y1="648.0" x2="932.0" y2="648.0" stroke="#343843" stroke-width="1"/><text x="62.0" y="652.0" fill="#9ea3ad" font-family="ui-monospace, SFMono-Regular, Menlo, monospace" font-size="11" text-anchor="end">0.0</text><line x1="70.0" y1="498.0" x2="70.0" y2="648.0" stroke="#343843" stroke-width="1"/><text x="70.0" y="666.0" fill="#9ea3ad" font-family="ui-monospace, SFMono-Regular, Menlo, monospace" font-size="11" text-anchor="middle">0s</text><line x1="285.5" y1="498.0" x2="285.5" y2="648.0" stroke="#343843" stroke-width="1"/><text x="285.5" y="666.0" fill="#9ea3ad" font-family="ui-monospace, SFMono-Regular, Menlo, monospace" font-size="11" text-anchor="middle">34s</text><line x1="501.0" y1="498.0" x2="501.0" y2="648.0" stroke="#343843" stroke-width="1"/><text x="501.0" y="666.0" fill="#9ea3ad" font-family="ui-monospace, SFMono-Regular, Menlo, monospace" font-size="11" text-anchor="middle">68s</text><line x1="716.5" y1="498.0" x2="716.5" y2="648.0" stroke="#343843" stroke-width="1"/><text x="716.5" y="666.0" fill="#9ea3ad" font-family="ui-monospace, SFMono-Regular, Menlo, monospace" font-size="11" text-anchor="middle">102s</text><line x1="932.0" y1="498.0" x2="932.0" y2="648.0" stroke="#343843" stroke-width="1"/><text x="932.0" y="666.0" fill="#9ea3ad" font-family="ui-monospace, SFMono-Regular, Menlo, monospace" font-size="11" text-anchor="middle">136s</text><path d="M 70.0 588.5 L 101.7 550.8 L 120.7 539.3 L 139.7 536.9 L 152.4 536.5 L 171.4 535.1 L 190.4 534.3 L 209.4 536.7 L 228.5 537.1 L 241.1 536.9 L 260.1 537.0 L 279.2 536.5 L 291.8 536.0 L 310.9 535.6 L 329.9 533.1 L 342.5 534.5 L 361.6 533.2 L 374.2 533.1 L 393.2 535.2 L 405.9 534.5 L 424.9 534.6 L 437.6 533.6 L 456.6 536.6 L 469.3 538.0 L 488.3 537.9 L 513.7 535.5 L 545.4 535.2 L 583.4 534.6 L 608.8 534.6 L 646.8 534.6 L 678.5 534.8 L 697.5 533.3 L 716.5 533.3 L 735.5 532.2 L 748.2 532.0 L 767.2 530.4 L 786.2 531.6 L 798.9 532.7 L 817.9 532.8 L 836.9 532.2 L 849.6 531.0 L 868.6 532.0 L 881.3 530.8 L 900.3 531.3 L 919.3 532.5 L 932.0 530.8" fill="none" stroke="#a371f7" stroke-width="2.5" stroke-linejoin="round" stroke-linecap="round"/><text x="24" y="696.0" fill="#9ea3ad" font-family="ui-monospace, SFMono-Regular, Menlo, monospace" font-size="13">TLS connections</text><line x1="70.0" y1="706.0" x2="932.0" y2="706.0" stroke="#343843" stroke-width="1"/><text x="62.0" y="710.0" fill="#9ea3ad" font-family="ui-monospace, SFMono-Regular, Menlo, monospace" font-size="11" text-anchor="end">10000.0</text><line x1="70.0" y1="743.5" x2="932.0" y2="743.5" stroke="#343843" stroke-width="1"/><text x="62.0" y="747.5" fill="#9ea3ad" font-family="ui-monospace, SFMono-Regular, Menlo, monospace" font-size="11" text-anchor="end">7500.0</text><line x1="70.0" y1="781.0" x2="932.0" y2="781.0" stroke="#343843" stroke-width="1"/><text x="62.0" y="785.0" fill="#9ea3ad" font-family="ui-monospace, SFMono-Regular, Menlo, monospace" font-size="11" text-anchor="end">5000.0</text><line x1="70.0" y1="818.5" x2="932.0" y2="818.5" stroke="#343843" stroke-width="1"/><text x="62.0" y="822.5" fill="#9ea3ad" font-family="ui-monospace, SFMono-Regular, Menlo, monospace" font-size="11" text-anchor="end">2500.0</text><line x1="70.0" y1="856.0" x2="932.0" y2="856.0" stroke="#343843" stroke-width="1"/><text x="62.0" y="860.0" fill="#9ea3ad" font-family="ui-monospace, SFMono-Regular, Menlo, monospace" font-size="11" text-anchor="end">0.0</text><line x1="70.0" y1="706.0" x2="70.0" y2="856.0" stroke="#343843" stroke-width="1"/><text x="70.0" y="874.0" fill="#9ea3ad" font-family="ui-monospace, SFMono-Regular, Menlo, monospace" font-size="11" text-anchor="middle">0s</text><line x1="285.5" y1="706.0" x2="285.5" y2="856.0" stroke="#343843" stroke-width="1"/><text x="285.5" y="874.0" fill="#9ea3ad" font-family="ui-monospace, SFMono-Regular, Menlo, monospace" font-size="11" text-anchor="middle">34s</text><line x1="501.0" y1="706.0" x2="501.0" y2="856.0" stroke="#343843" stroke-width="1"/><text x="501.0" y="874.0" fill="#9ea3ad" font-family="ui-monospace, SFMono-Regular, Menlo, monospace" font-size="11" text-anchor="middle">68s</text><line x1="716.5" y1="706.0" x2="716.5" y2="856.0" stroke="#343843" stroke-width="1"/><text x="716.5" y="874.0" fill="#9ea3ad" font-family="ui-monospace, SFMono-Regular, Menlo, monospace" font-size="11" text-anchor="middle">102s</text><line x1="932.0" y1="706.0" x2="932.0" y2="856.0" stroke="#343843" stroke-width="1"/><text x="932.0" y="874.0" fill="#9ea3ad" font-family="ui-monospace, SFMono-Regular, Menlo, monospace" font-size="11" text-anchor="middle">136s</text><path d="M 70.0 742.5 L 101.7 743.5 L 120.7 743.5 L 139.7 743.5 L 152.4 743.5 L 171.4 743.5 L 190.4 743.5 L 209.4 743.5 L 228.5 743.5 L 241.1 743.5 L 260.1 743.5 L 279.2 743.5 L 291.8 743.5 L 310.9 743.5 L 329.9 743.5 L 342.5 743.5 L 361.6 743.5 L 374.2 743.5 L 393.2 743.5 L 405.9 743.5 L 424.9 743.5 L 437.6 772.8 L 456.6 773.2 L 469.3 783.9 L 488.3 789.8 L 513.7 743.5 L 545.4 743.5 L 583.4 743.5 L 608.8 743.5 L 646.8 743.5 L 678.5 743.5 L 697.5 743.5 L 716.5 743.5 L 735.5 743.5 L 748.2 743.5 L 767.2 743.5 L 786.2 743.5 L 798.9 743.5 L 817.9 743.5 L 836.9 743.5 L 849.6 743.5 L 868.6 743.5 L 881.3 774.2 L 900.3 774.2 L 919.3 791.7 L 932.0 856.0" fill="none" stroke="#f6c177" stroke-width="2.5" stroke-linejoin="round" stroke-linecap="round"/></svg>