<svg xmlns="http://www.w3.org/2000/svg" width="960" height="906" viewBox="0 0 960 906"><rect width="100%" height="100%" fill="#101114"/><text x="24" y="34" fill="#d7dae0" font-family="ui-monospace, SFMono-Regular, Menlo, monospace" font-size="18" font-weight="700">envoy-single-plaintext-c10000</text><text x="24" y="54" fill="#9ea3ad" font-family="ui-monospace, SFMono-Regular, Menlo, monospace" font-size="12">200 rps 3664 | total rps 3743.52 | p99 6659.98 ms | non-200 2.12% | errors 3984</text><text x="24" y="72.0" fill="#9ea3ad" font-family="ui-monospace, SFMono-Regular, Menlo, monospace" font-size="13">CPU (% total VM)</text><line x1="70.0" y1="82.0" x2="932.0" y2="82.0" stroke="#343843" stroke-width="1"/><text x="62.0" y="86.0" fill="#9ea3ad" font-family="ui-monospace, SFMono-Regular, Menlo, monospace" font-size="11" text-anchor="end">100.0</text><line x1="70.0" y1="119.5" x2="932.0" y2="119.5" stroke="#343843" stroke-width="1"/><text x="62.0" y="123.5" fill="#9ea3ad" font-family="ui-monospace, SFMono-Regular, Menlo, monospace" font-size="11" text-anchor="end">75.0</text><line x1="70.0" y1="157.0" x2="932.0" y2="157.0" stroke="#343843" stroke-width="1"/><text x="62.0" y="161.0" fill="#9ea3ad" font-family="ui-monospace, SFMono-Regular, Menlo, monospace" font-size="11" text-anchor="end">50.0</text><line x1="70.0" y1="194.5" x2="932.0" y2="194.5" stroke="#343843" stroke-width="1"/><text x="62.0" y="198.5" fill="#9ea3ad" font-family="ui-monospace, SFMono-Regular, Menlo, monospace" font-size="11" text-anchor="end">25.0</text><line x1="70.0" y1="232.0" x2="932.0" y2="232.0" stroke="#343843" stroke-width="1"/><text x="62.0" y="236.0" fill="#9ea3ad" font-family="ui-monospace, SFMono-Regular, Menlo, monospace" font-size="11" text-anchor="end">0.0</text><line x1="70.0" y1="82.0" x2="70.0" y2="232.0" stroke="#343843" stroke-width="1"/><text x="70.0" y="250.0" fill="#9ea3ad" font-family="ui-monospace, SFMono-Regular, Menlo, monospace" font-size="11" text-anchor="middle">0s</text><line x1="285.5" y1="82.0" x2="285.5" y2="232.0" stroke="#343843" stroke-width="1"/><text x="285.5" y="250.0" fill="#9ea3ad" font-family="ui-monospace, SFMono-Regular, Menlo, monospace" font-size="11" text-anchor="middle">34s</text><line x1="501.0" y1="82.0" x2="501.0" y2="232.0" stroke="#343843" stroke-width="1"/><text x="501.0" y="250.0" fill="#9ea3ad" font-family="ui-monospace, SFMono-Regular, Menlo, monospace" font-size="11" text-anchor="middle">68s</text><line x1="716.5" y1="82.0" x2="716.5" y2="232.0" stroke="#343843" stroke-width="1"/><text x="716.5" y="250.0" fill="#9ea3ad" font-family="ui-monospace, SFMono-Regular, Menlo, monospace" font-size="11" text-anchor="middle">103s</text><line x1="932.0" y1="82.0" x2="932.0" y2="232.0" stroke="#343843" stroke-width="1"/><text x="932.0" y="250.0" fill="#9ea3ad" font-family="ui-monospace, SFMono-Regular, Menlo, monospace" font-size="11" text-anchor="middle">137s</text><line x1="70.0" y1="52.0" x2="88.0" y2="52.0" stroke="#4ea1ff" stroke-width="3" stroke-linecap="round"/><text x="94.0" y="56.0" fill="#9ea3ad" font-family="ui-monospace, SFMono-Regular, Menlo, monospace" font-size="11">total</text><line x1="146.0" y1="52.0" x2="164.0" y2="52.0" stroke="#ff7b72" stroke-width="3" stroke-linecap="round"/><text x="170.0" y="56.0" fill="#9ea3ad" font-family="ui-monospace, SFMono-Regular, Menlo, monospace" font-size="11">proxy</text><line x1="222.0" y1="52.0" x2="240.0" y2="52.0" stroke="#7ee787" stroke-width="3" stroke-linecap="round"/><text x="246.0" y="56.0" fill="#9ea3ad" font-family="ui-monospace, SFMono-Regular, Menlo, monospace" font-size="11">app</text><line x1="298.0" y1="52.0" x2="316.0" y2="52.0" stroke="#f6c177" stroke-width="3" stroke-linecap="round"/><text x="322.0" y="56.0" fill="#9ea3ad" font-family="ui-monospace, SFMono-Regular, Menlo, monospace" font-size="11">loadgen</text><path d="M 70.0 169.2 L 101.5 82.0 L 114.0 82.9 L 126.6 171.1 L 139.2 191.0 L 158.1 187.1 L 170.7 181.2 L 183.3 193.0 L 202.1 186.4 L 221.0 177.5 L 239.9 176.2 L 252.5 181.8 L 271.3 178.1 L 290.2 176.5 L 309.1 180.1 L 328.0 175.8 L 346.8 179.2 L 365.7 176.7 L 378.3 177.9 L 397.2 180.3 L 416.1 182.1 L 428.6 175.7 L 447.5 178.8 L 466.4 180.6 L 479.0 180.1 L 510.4 138.7 L 535.6 83.1 L 567.1 84.0 L 598.5 82.6 L 623.7 83.4 L 655.2 84.1 L 674.0 84.3 L 692.9 131.6 L 711.8 180.6 L 730.7 176.8 L 743.2 177.0 L 762.1 180.8 L 781.0 177.7 L 799.9 181.1 L 818.7 178.8 L 831.3 180.9 L 850.2 177.7 L 869.1 177.0 L 888.0 178.6 L 900.5 178.4 L 919.4 179.2 L 932.0 187.4" fill="none" stroke="#4ea1ff" stroke-width="2.5" stroke-linejoin="round" stroke-linecap="round"/><path d="M 70.0 163.7 L 101.5 144.9 L 114.0 164.8 L 126.6 230.8 L 139.2 232.0 L 158.1 231.6 L 170.7 232.0 L 183.3 232.0 L 202.1 232.0 L 221.0 231.5 L 239.9 232.0 L 252.5 232.0 L 271.3 231.7 L 290.2 232.0 L 309.1 231.7 L 328.0 231.5 L 346.8 232.0 L 365.7 232.0 L 378.3 231.7 L 397.2 231.7 L 416.1 232.0 L 428.6 226.4 L 447.5 231.4 L 466.4 232.0 L 479.0 231.7 L 510.4 174.6 L 535.6 132.8 L 567.1 154.4 L 598.5 162.0 L 623.7 164.2 L 655.2 142.7 L 674.0 176.2 L 692.9 197.2 L 711.8 231.1 L 730.7 231.7 L 743.2 232.0 L 762.1 231.7 L 781.0 232.0 L 799.9 231.7 L 818.7 231.7 L 831.3 231.7 L 850.2 232.0 L 869.1 227.7 L 888.0 232.0 L 900.5 231.7 L 919.4 232.0 L 932.0 231.3" fill="none" stroke="#ff7b72" stroke-width="2.5" stroke-linejoin="round" stroke-linecap="round"/><path d="M 70.0 232.0 L 101.5 230.7 L 114.0 214.3 L 126.6 232.0 L 139.2 231.6 L 158.1 232.0 L 170.7 232.0 L 183.3 232.0 L 202.1 232.0 L 221.0 232.0 L 239.9 232.0 L 252.5 232.0 L 271.3 232.0 L 290.2 232.0 L 309.1 232.0 L 328.0 232.0 L 346.8 232.0 L 365.7 232.0 L 378.3 232.0 L 397.2 232.0 L 416.1 232.0 L 428.6 232.0 L 447.5 232.0 L 466.4 232.0 L 479.0 232.0 L 510.4 232.0 L 535.6 229.8 L 567.1 213.8 L 598.5 212.2 L 623.7 214.2 L 655.2 212.5 L 674.0 214.4 L 692.9 221.2 L 711.8 232.0 L 730.7 232.0 L 743.2 232.0 L 762.1 232.0 L 781.0 232.0 L 799.9 232.0 L 818.7 231.7 L 831.3 232.0 L 850.2 232.0 L 869.1 232.0 L 888.0 232.0 L 900.5 231.7 L 919.4 232.0 L 932.0 232.0" fill="none" stroke="#7ee787" stroke-width="2.5" stroke-linejoin="round" stroke-linecap="round"/><path d="M 70.0 159.7 L 101.5 206.4 L 114.0 207.5 L 126.6 232.0 L 139.2 232.0 L 158.1 232.0 L 170.7 232.0 L 183.3 232.0 L 202.1 232.0 L 221.0 232.0 L 239.9 232.0 L 252.5 232.0 L 271.3 232.0 L 290.2 232.0 L 309.1 232.0 L 328.0 232.0 L 346.8 232.0 L 365.7 232.0 L 378.3 232.0 L 397.2 232.0 L 416.1 232.0 L 428.6 228.4 L 447.5 231.7 L 466.4 232.0 L 479.0 232.0 L 510.4 166.8 L 535.6 204.1 L 567.1 192.2 L 598.5 197.9 L 623.7 201.0 L 655.2 189.8 L 674.0 208.5 L 692.9 219.0 L 711.8 232.0 L 730.7 232.0 L 743.2 232.0 L 762.1 232.0 L 781.0 232.0 L 799.9 232.0 L 818.7 232.0 L 831.3 232.0 L 850.2 232.0 L 869.1 229.7 L 888.0 232.0 L 900.5 232.0 L 919.4 232.0 L 932.0 231.7" fill="none" stroke="#f6c177" stroke-width="2.5" stroke-linejoin="round" stroke-linecap="round"/><text x="24" y="280.0" fill="#9ea3ad" font-family="ui-monospace, SFMono-Regular, Menlo, monospace" font-size="13">Process RSS (GiB)</text><line x1="70.0" y1="290.0" x2="932.0" y2="290.0" stroke="#343843" stroke-width="1"/><text x="62.0" y="294.0" fill="#9ea3ad" font-family="ui-monospace, SFMono-Regular, Menlo, monospace" font-size="11" text-anchor="end">1.0</text><line x1="70.0" y1="327.5" x2="932.0" y2="327.5" stroke="#343843" stroke-width="1"/><text x="62.0" y="331.5" fill="#9ea3ad" font-family="ui-monospace, SFMono-Regular, Menlo, monospace" font-size="11" text-anchor="end">0.8</text><line x1="70.0" y1="365.0" x2="932.0" y2="365.0" stroke="#343843" stroke-width="1"/><text x="62.0" y="369.0" fill="#9ea3ad" font-family="ui-monospace, SFMono-Regular, Menlo, monospace" font-size="11" text-anchor="end">0.5</text><line x1="70.0" y1="402.5" x2="932.0" y2="402.5" stroke="#343843" stroke-width="1"/><text x="62.0" y="406.5" fill="#9ea3ad" font-family="ui-monospace, SFMono-Regular, Menlo, monospace" font-size="11" text-anchor="end">0.2</text><line x1="70.0" y1="440.0" x2="932.0" y2="440.0" stroke="#343843" stroke-width="1"/><text x="62.0" y="444.0" fill="#9ea3ad" font-family="ui-monospace, SFMono-Regular, Menlo, monospace" font-size="11" text-anchor="end">0.0</text><line x1="70.0" y1="290.0" x2="70.0" y2="440.0" stroke="#343843" stroke-width="1"/><text x="70.0" y="458.0" fill="#9ea3ad" font-family="ui-monospace, SFMono-Regular, Menlo, monospace" font-size="11" text-anchor="middle">0s</text><line x1="285.5" y1="290.0" x2="285.5" y2="440.0" stroke="#343843" stroke-width="1"/><text x="285.5" y="458.0" fill="#9ea3ad" font-family="ui-monospace, SFMono-Regular, Menlo, monospace" font-size="11" text-anchor="middle">34s</text><line x1="501.0" y1="290.0" x2="501.0" y2="440.0" stroke="#343843" stroke-width="1"/><text x="501.0" y="458.0" fill="#9ea3ad" font-family="ui-monospace, SFMono-Regular, Menlo, monospace" font-size="11" text-anchor="middle">68s</text><line x1="716.5" y1="290.0" x2="716.5" y2="440.0" stroke="#343843" stroke-width="1"/><text x="716.5" y="458.0" fill="#9ea3ad" font-family="ui-monospace, SFMono-Regular, Menlo, monospace" font-size="11" text-anchor="middle">103s</text><line x1="932.0" y1="290.0" x2="932.0" y2="440.0" stroke="#343843" stroke-width="1"/><text x="932.0" y="458.0" fill="#9ea3ad" font-family="ui-monospace, SFMono-Regular, Menlo, monospace" font-size="11" text-anchor="middle">137s</text><line x1="70.0" y1="260.0" x2="88.0" y2="260.0" stroke="#ff7b72" stroke-width="3" stroke-linecap="round"/><text x="94.0" y="264.0" fill="#9ea3ad" font-family="ui-monospace, SFMono-Regular, Menlo, monospace" font-size="11">proxy</text><line x1="146.0" y1="260.0" x2="164.0" y2="260.0" stroke="#7ee787" stroke-width="3" stroke-linecap="round"/><text x="170.0" y="264.0" fill="#9ea3ad" font-family="ui-monospace, SFMono-Regular, Menlo, monospace" font-size="11">app</text><line x1="222.0" y1="260.0" x2="240.0" y2="260.0" stroke="#f6c177" stroke-width="3" stroke-linecap="round"/><text x="246.0" y="264.0" fill="#9ea3ad" font-family="ui-monospace, SFMono-Regular, Menlo, monospace" font-size="11">loadgen</text><path d="M 70.0 405.2 L 101.5 360.7 L 114.0 360.1 L 126.6 360.1 L 139.2 360.1 L 158.1 360.1 L 170.7 360.1 L 183.3 360.1 L 202.1 360.1 L 221.0 360.1 L 239.9 360.1 L 252.5 360.1 L 271.3 360.1 L 290.2 360.1 L 309.1 360.1 L 328.0 360.1 L 346.8 360.1 L 365.7 360.1 L 378.3 360.1 L 397.2 360.1 L 416.1 360.1 L 428.6 360.1 L 447.5 360.1 L 466.4 360.1 L 479.0 360.1 L 510.4 360.1 L 535.6 358.6 L 567.1 358.2 L 598.5 358.1 L 623.7 358.1 L 655.2 358.1 L 674.0 358.0 L 692.9 358.0 L 711.8 358.0 L 730.7 358.0 L 743.2 358.0 L 762.1 358.0 L 781.0 358.0 L 799.9 358.0 L 818.7 358.0 L 831.3 358.0 L 850.2 358.0 L 869.1 358.0 L 888.0 358.0 L 900.5 358.0 L 919.4 358.0 L 932.0 358.0" fill="none" stroke="#ff7b72" stroke-width="2.5" stroke-linejoin="round" stroke-linecap="round"/><path d="M 70.0 438.0 L 101.5 425.4 L 114.0 420.8 L 126.6 420.8 L 139.2 420.8 L 158.1 420.8 L 170.7 420.8 L 183.3 420.8 L 202.1 420.8 L 221.0 420.8 L 239.9 420.8 L 252.5 420.8 L 271.3 420.8 L 290.2 420.8 L 309.1 420.8 L 328.0 420.8 L 346.8 420.8 L 365.7 420.8 L 378.3 420.8 L 397.2 420.8 L 416.1 420.8 L 428.6 420.8 L 447.5 420.8 L 466.4 420.8 L 479.0 420.8 L 510.4 420.8 L 535.6 420.7 L 567.1 420.5 L 598.5 420.5 L 623.7 420.5 L 655.2 420.5 L 674.0 420.5 L 692.9 420.5 L 711.8 420.5 L 730.7 420.5 L 743.2 420.5 L 762.1 420.5 L 781.0 420.5 L 799.9 420.5 L 818.7 420.5 L 831.3 420.5 L 850.2 420.5 L 869.1 420.5 L 888.0 420.5 L 900.5 420.5 L 919.4 420.5 L 932.0 420.5" fill="none" stroke="#7ee787" stroke-width="2.5" stroke-linejoin="round" stroke-linecap="round"/><path d="M 70.0 367.1 L 101.5 356.3 L 114.0 346.2 L 126.6 346.2 L 139.2 346.2 L 158.1 346.2 L 170.7 346.2 L 183.3 346.2 L 202.1 346.2 L 221.0 346.2 L 239.9 346.2 L 252.5 346.2 L 271.3 346.2 L 290.2 346.2 L 309.1 346.2 L 328.0 346.2 L 346.8 346.2 L 365.7 346.2 L 378.3 346.2 L 397.2 346.2 L 416.1 346.2 L 428.6 346.2 L 447.5 346.2 L 466.4 346.2 L 479.0 346.2 L 510.4 362.7 L 535.6 354.4 L 567.1 344.6 L 598.5 340.1 L 623.7 339.3 L 655.2 331.4 L 674.0 331.4 L 692.9 331.4 L 711.8 331.4 L 730.7 331.4 L 743.2 331.4 L 762.1 331.4 L 781.0 331.4 L 799.9 331.4 L 818.7 331.4 L 831.3 331.4 L 850.2 331.4 L 869.1 331.4 L 888.0 331.4 L 900.5 331.4 L 919.4 331.4 L 932.0 331.4" fill="none" stroke="#f6c177" stroke-width="2.5" stroke-linejoin="round" stroke-linecap="round"/><text x="24" y="488.0" fill="#9ea3ad" font-family="ui-monospace, SFMono-Regular, Menlo, monospace" font-size="13">Memory used (GiB)</text><line x1="70.0" y1="498.0" x2="932.0" y2="498.0" stroke="#343843" stroke-width="1"/><text x="62.0" y="502.0" fill="#9ea3ad" font-family="ui-monospace, SFMono-Regular, Menlo, monospace" font-size="11" text-anchor="end">2.0</text><line x1="70.0" y1="535.5" x2="932.0" y2="535.5" stroke="#343843" stroke-width="1"/><text x="62.0" y="539.5" fill="#9ea3ad" font-family="ui-monospace, SFMono-Regular, Menlo, monospace" font-size="11" text-anchor="end">1.5</text><line x1="70.0" y1="573.0" x2="932.0" y2="573.0" stroke="#343843" stroke-width="1"/><text x="62.0" y="577.0" fill="#9ea3ad" font-family="ui-monospace, SFMono-Regular, Menlo, monospace" font-size="11" text-anchor="end">1.0</text><line x1="70.0" y1="610.5" x2="932.0" y2="610.5" stroke="#343843" stroke-width="1"/><text x="62.0" y="614.5" fill="#9ea3ad" font-family="ui-monospace, SFMono-Regular, Menlo, monospace" font-size="11" text-anchor="end">0.5</text><line x1="70.0" y1="648.0" x2="932.0" y2="648.0" stroke="#343843" stroke-width="1"/><text x="62.0" y="652.0" fill="#9ea3ad" font-family="ui-monospace, SFMono-Regular, Menlo, monospace" font-size="11" text-anchor="end">0.0</text><line x1="70.0" y1="498.0" x2="70.0" y2="648.0" stroke="#343843" stroke-width="1"/><text x="70.0" y="666.0" fill="#9ea3ad" font-family="ui-monospace, SFMono-Regular, Menlo, monospace" font-size="11" text-anchor="middle">0s</text><line x1="285.5" y1="498.0" x2="285.5" y2="648.0" stroke="#343843" stroke-width="1"/><text x="285.5" y="666.0" fill="#9ea3ad" font-family="ui-monospace, SFMono-Regular, Menlo, monospace" font-size="11" text-anchor="middle">34s</text><line x1="501.0" y1="498.0" x2="501.0" y2="648.0" stroke="#343843" stroke-width="1"/><text x="501.0" y="666.0" fill="#9ea3ad" font-family="ui-monospace, SFMono-Regular, Menlo, monospace" font-size="11" text-anchor="middle">68s</text><line x1="716.5" y1="498.0" x2="716.5" y2="648.0" stroke="#343843" stroke-width="1"/><text x="716.5" y="666.0" fill="#9ea3ad" font-family="ui-monospace, SFMono-Regular, Menlo, monospace" font-size="11" text-anchor="middle">103s</text><line x1="932.0" y1="498.0" x2="932.0" y2="648.0" stroke="#343843" stroke-width="1"/><text x="932.0" y="666.0" fill="#9ea3ad" font-family="ui-monospace, SFMono-Regular, Menlo, monospace" font-size="11" text-anchor="middle">137s</text><path d="M 70.0 564.8 L 101.5 533.6 L 114.0 516.4 L 126.6 515.5 L 139.2 512.7 L 158.1 513.7 L 170.7 514.3 L 183.3 516.0 L 202.1 517.1 L 221.0 516.0 L 239.9 517.3 L 252.5 517.0 L 271.3 514.4 L 290.2 513.8 L 309.1 515.4 L 328.0 514.6 L 346.8 514.3 L 365.7 514.6 L 378.3 515.7 L 397.2 516.0 L 416.1 515.8 L 428.6 517.9 L 447.5 517.3 L 466.4 515.5 L 479.0 513.5 L 510.4 521.3 L 535.6 524.4 L 567.1 517.3 L 598.5 514.4 L 623.7 514.0 L 655.2 510.2 L 674.0 510.2 L 692.9 509.1 L 711.8 508.9 L 730.7 508.5 L 743.2 509.2 L 762.1 507.0 L 781.0 504.6 L 799.9 506.4 L 818.7 506.4 L 831.3 507.0 L 850.2 508.1 L 869.1 509.6 L 888.0 507.7 L 900.5 506.9 L 919.4 507.3 L 932.0 508.6" fill="none" stroke="#a371f7" stroke-width="2.5" stroke-linejoin="round" stroke-linecap="round"/><text x="24" y="696.0" fill="#9ea3ad" font-family="ui-monospace, SFMono-Regular, Menlo, monospace" font-size="13">TLS connections</text><line x1="70.0" y1="706.0" x2="932.0" y2="706.0" stroke="#343843" stroke-width="1"/><text x="62.0" y="710.0" fill="#9ea3ad" font-family="ui-monospace, SFMono-Regular, Menlo, monospace" font-size="11" text-anchor="end">20000.0</text><line x1="70.0" y1="743.5" x2="932.0" y2="743.5" stroke="#343843" stroke-width="1"/><text x="62.0" y="747.5" fill="#9ea3ad" font-family="ui-monospace, SFMono-Regular, Menlo, monospace" font-size="11" text-anchor="end">15000.0</text><line x1="70.0" y1="781.0" x2="932.0" y2="781.0" stroke="#343843" stroke-width="1"/><text x="62.0" y="785.0" fill="#9ea3ad" font-family="ui-monospace, SFMono-Regular, Menlo, monospace" font-size="11" text-anchor="end">10000.0</text><line x1="70.0" y1="818.5" x2="932.0" y2="818.5" stroke="#343843" stroke-width="1"/><text x="62.0" y="822.5" fill="#9ea3ad" font-family="ui-monospace, SFMono-Regular, Menlo, monospace" font-size="11" text-anchor="end">5000.0</text><line x1="70.0" y1="856.0" x2="932.0" y2="856.0" stroke="#343843" stroke-width="1"/><text x="62.0" y="860.0" fill="#9ea3ad" font-family="ui-monospace, SFMono-Regular, Menlo, monospace" font-size="11" text-anchor="end">0.0</text><line x1="70.0" y1="706.0" x2="70.0" y2="856.0" stroke="#343843" stroke-width="1"/><text x="70.0" y="874.0" fill="#9ea3ad" font-family="ui-monospace, SFMono-Regular, Menlo, monospace" font-size="11" text-anchor="middle">0s</text><line x1="285.5" y1="706.0" x2="285.5" y2="856.0" stroke="#343843" stroke-width="1"/><text x="285.5" y="874.0" fill="#9ea3ad" font-family="ui-monospace, SFMono-Regular, Menlo, monospace" font-size="11" text-anchor="middle">34s</text><line x1="501.0" y1="706.0" x2="501.0" y2="856.0" stroke="#343843" stroke-width="1"/><text x="501.0" y="874.0" fill="#9ea3ad" font-family="ui-monospace, SFMono-Regular, Menlo, monospace" font-size="11" text-anchor="middle">68s</text><line x1="716.5" y1="706.0" x2="716.5" y2="856.0" stroke="#343843" stroke-width="1"/><text x="716.5" y="874.0" fill="#9ea3ad" font-family="ui-monospace, SFMono-Regular, Menlo, monospace" font-size="11" text-anchor="middle">103s</text><line x1="932.0" y1="706.0" x2="932.0" y2="856.0" stroke="#343843" stroke-width="1"/><text x="932.0" y="874.0" fill="#9ea3ad" font-family="ui-monospace, SFMono-Regular, Menlo, monospace" font-size="11" text-anchor="middle">137s</text><path d="M 70.0 780.9 L 101.5 781.0 L 114.0 781.0 L 126.6 781.0 L 139.2 781.0 L 158.1 781.0 L 170.7 781.0 L 183.3 781.0 L 202.1 781.0 L 221.0 781.0 L 239.9 781.0 L 252.5 781.0 L 271.3 781.0 L 290.2 781.0 L 309.1 781.0 L 328.0 781.0 L 346.8 781.0 L 365.7 781.0 L 378.3 781.0 L 397.2 781.0 L 416.1 781.0 L 428.6 807.6 L 447.5 807.6 L 466.4 807.6 L 479.0 807.6 L 510.4 781.0 L 535.6 781.0 L 567.1 781.0 L 598.5 780.4 L 623.7 781.0 L 655.2 781.0 L 674.0 781.0 L 692.9 781.0 L 711.8 781.0 L 730.7 781.0 L 743.2 781.0 L 762.1 781.0 L 781.0 781.0 L 799.9 781.0 L 818.7 781.0 L 831.3 781.0 L 850.2 781.0 L 869.1 800.8 L 888.0 800.8 L 900.5 800.8 L 919.4 802.0 L 932.0 802.0" fill="none" stroke="#f6c177" stroke-width="2.5" stroke-linejoin="round" stroke-linecap="round"/></svg>