<svg xmlns="http://www.w3.org/2000/svg" width="960" height="906" viewBox="0 0 960 906"><rect width="100%" height="100%" fill="#101114"/><text x="24" y="34" fill="#d7dae0" font-family="ui-monospace, SFMono-Regular, Menlo, monospace" font-size="18" font-weight="700">caddy-single-plaintext-c1000</text><text x="24" y="54" fill="#9ea3ad" font-family="ui-monospace, SFMono-Regular, Menlo, monospace" font-size="12">200 rps 6936.71 | total rps 6936.71 | p99 238.44 ms | non-200 0% | errors 0</text><text x="24" y="72.0" fill="#9ea3ad" font-family="ui-monospace, SFMono-Regular, Menlo, monospace" font-size="13">CPU (% total VM)</text><line x1="70.0" y1="82.0" x2="932.0" y2="82.0" stroke="#343843" stroke-width="1"/><text x="62.0" y="86.0" fill="#9ea3ad" font-family="ui-monospace, SFMono-Regular, Menlo, monospace" font-size="11" text-anchor="end">100.0</text><line x1="70.0" y1="119.5" x2="932.0" y2="119.5" stroke="#343843" stroke-width="1"/><text x="62.0" y="123.5" fill="#9ea3ad" font-family="ui-monospace, SFMono-Regular, Menlo, monospace" font-size="11" text-anchor="end">75.0</text><line x1="70.0" y1="157.0" x2="932.0" y2="157.0" stroke="#343843" stroke-width="1"/><text x="62.0" y="161.0" fill="#9ea3ad" font-family="ui-monospace, SFMono-Regular, Menlo, monospace" font-size="11" text-anchor="end">50.0</text><line x1="70.0" y1="194.5" x2="932.0" y2="194.5" stroke="#343843" stroke-width="1"/><text x="62.0" y="198.5" fill="#9ea3ad" font-family="ui-monospace, SFMono-Regular, Menlo, monospace" font-size="11" text-anchor="end">25.0</text><line x1="70.0" y1="232.0" x2="932.0" y2="232.0" stroke="#343843" stroke-width="1"/><text x="62.0" y="236.0" fill="#9ea3ad" font-family="ui-monospace, SFMono-Regular, Menlo, monospace" font-size="11" text-anchor="end">0.0</text><line x1="70.0" y1="82.0" x2="70.0" y2="232.0" stroke="#343843" stroke-width="1"/><text x="70.0" y="250.0" fill="#9ea3ad" font-family="ui-monospace, SFMono-Regular, Menlo, monospace" font-size="11" text-anchor="middle">0s</text><line x1="285.5" y1="82.0" x2="285.5" y2="232.0" stroke="#343843" stroke-width="1"/><text x="285.5" y="250.0" fill="#9ea3ad" font-family="ui-monospace, SFMono-Regular, Menlo, monospace" font-size="11" text-anchor="middle">10s</text><line x1="501.0" y1="82.0" x2="501.0" y2="232.0" stroke="#343843" stroke-width="1"/><text x="501.0" y="250.0" fill="#9ea3ad" font-family="ui-monospace, SFMono-Regular, Menlo, monospace" font-size="11" text-anchor="middle">20s</text><line x1="716.5" y1="82.0" x2="716.5" y2="232.0" stroke="#343843" stroke-width="1"/><text x="716.5" y="250.0" fill="#9ea3ad" font-family="ui-monospace, SFMono-Regular, Menlo, monospace" font-size="11" text-anchor="middle">31s</text><line x1="932.0" y1="82.0" x2="932.0" y2="232.0" stroke="#343843" stroke-width="1"/><text x="932.0" y="250.0" fill="#9ea3ad" font-family="ui-monospace, SFMono-Regular, Menlo, monospace" font-size="11" text-anchor="middle">41s</text><line x1="70.0" y1="52.0" x2="88.0" y2="52.0" stroke="#4ea1ff" stroke-width="3" stroke-linecap="round"/><text x="94.0" y="56.0" fill="#9ea3ad" font-family="ui-monospace, SFMono-Regular, Menlo, monospace" font-size="11">total</text><line x1="146.0" y1="52.0" x2="164.0" y2="52.0" stroke="#ff7b72" stroke-width="3" stroke-linecap="round"/><text x="170.0" y="56.0" fill="#9ea3ad" font-family="ui-monospace, SFMono-Regular, Menlo, monospace" font-size="11">proxy</text><line x1="222.0" y1="52.0" x2="240.0" y2="52.0" stroke="#7ee787" stroke-width="3" stroke-linecap="round"/><text x="246.0" y="56.0" fill="#9ea3ad" font-family="ui-monospace, SFMono-Regular, Menlo, monospace" font-size="11">app</text><line x1="298.0" y1="52.0" x2="316.0" y2="52.0" stroke="#f6c177" stroke-width="3" stroke-linecap="round"/><text x="322.0" y="56.0" fill="#9ea3ad" font-family="ui-monospace, SFMono-Regular, Menlo, monospace" font-size="11">loadgen</text><path d="M 70.0 208.8 L 154.1 118.6 L 217.2 84.5 L 301.3 83.6 L 385.4 82.8 L 448.4 86.0 L 511.5 86.4 L 595.6 83.3 L 658.7 83.4 L 721.8 85.2 L 805.9 83.9 L 868.9 86.5 L 932.0 87.4" fill="none" stroke="#4ea1ff" stroke-width="2.5" stroke-linejoin="round" stroke-linecap="round"/><path d="M 70.0 232.0 L 154.1 139.8 L 217.2 152.1 L 301.3 152.8 L 385.4 153.5 L 448.4 156.0 L 511.5 155.5 L 595.6 150.7 L 658.7 160.9 L 721.8 145.2 L 805.9 156.6 L 868.9 154.6 L 932.0 166.7" fill="none" stroke="#ff7b72" stroke-width="2.5" stroke-linejoin="round" stroke-linecap="round"/><path d="M 70.0 232.0 L 154.1 227.9 L 217.2 204.7 L 301.3 205.5 L 385.4 212.4 L 448.4 204.2 L 511.5 204.8 L 595.6 205.6 L 658.7 204.8 L 721.8 203.6 L 805.9 206.0 L 868.9 205.2 L 932.0 205.9" fill="none" stroke="#7ee787" stroke-width="2.5" stroke-linejoin="round" stroke-linecap="round"/><path d="M 70.0 232.0 L 154.1 232.0 L 217.2 232.0 L 301.3 232.0 L 385.4 232.0 L 448.4 232.0 L 511.5 232.0 L 595.6 232.0 L 658.7 232.0 L 721.8 232.0 L 805.9 232.0 L 868.9 232.0 L 932.0 232.0" fill="none" stroke="#f6c177" stroke-width="2.5" stroke-linejoin="round" stroke-linecap="round"/><text x="24" y="280.0" fill="#9ea3ad" font-family="ui-monospace, SFMono-Regular, Menlo, monospace" font-size="13">Process RSS (GiB)</text><line x1="70.0" y1="290.0" x2="932.0" y2="290.0" stroke="#343843" stroke-width="1"/><text x="62.0" y="294.0" fill="#9ea3ad" font-family="ui-monospace, SFMono-Regular, Menlo, monospace" font-size="11" text-anchor="end">0.2</text><line x1="70.0" y1="327.5" x2="932.0" y2="327.5" stroke="#343843" stroke-width="1"/><text x="62.0" y="331.5" fill="#9ea3ad" font-family="ui-monospace, SFMono-Regular, Menlo, monospace" font-size="11" text-anchor="end">0.2</text><line x1="70.0" y1="365.0" x2="932.0" y2="365.0" stroke="#343843" stroke-width="1"/><text x="62.0" y="369.0" fill="#9ea3ad" font-family="ui-monospace, SFMono-Regular, Menlo, monospace" font-size="11" text-anchor="end">0.1</text><line x1="70.0" y1="402.5" x2="932.0" y2="402.5" stroke="#343843" stroke-width="1"/><text x="62.0" y="406.5" fill="#9ea3ad" font-family="ui-monospace, SFMono-Regular, Menlo, monospace" font-size="11" text-anchor="end">0.1</text><line x1="70.0" y1="440.0" x2="932.0" y2="440.0" stroke="#343843" stroke-width="1"/><text x="62.0" y="444.0" fill="#9ea3ad" font-family="ui-monospace, SFMono-Regular, Menlo, monospace" font-size="11" text-anchor="end">0.0</text><line x1="70.0" y1="290.0" x2="70.0" y2="440.0" stroke="#343843" stroke-width="1"/><text x="70.0" y="458.0" fill="#9ea3ad" font-family="ui-monospace, SFMono-Regular, Menlo, monospace" font-size="11" text-anchor="middle">0s</text><line x1="285.5" y1="290.0" x2="285.5" y2="440.0" stroke="#343843" stroke-width="1"/><text x="285.5" y="458.0" fill="#9ea3ad" font-family="ui-monospace, SFMono-Regular, Menlo, monospace" font-size="11" text-anchor="middle">10s</text><line x1="501.0" y1="290.0" x2="501.0" y2="440.0" stroke="#343843" stroke-width="1"/><text x="501.0" y="458.0" fill="#9ea3ad" font-family="ui-monospace, SFMono-Regular, Menlo, monospace" font-size="11" text-anchor="middle">20s</text><line x1="716.5" y1="290.0" x2="716.5" y2="440.0" stroke="#343843" stroke-width="1"/><text x="716.5" y="458.0" fill="#9ea3ad" font-family="ui-monospace, SFMono-Regular, Menlo, monospace" font-size="11" text-anchor="middle">31s</text><line x1="932.0" y1="290.0" x2="932.0" y2="440.0" stroke="#343843" stroke-width="1"/><text x="932.0" y="458.0" fill="#9ea3ad" font-family="ui-monospace, SFMono-Regular, Menlo, monospace" font-size="11" text-anchor="middle">41s</text><line x1="70.0" y1="260.0" x2="88.0" y2="260.0" stroke="#ff7b72" stroke-width="3" stroke-linecap="round"/><text x="94.0" y="264.0" fill="#9ea3ad" font-family="ui-monospace, SFMono-Regular, Menlo, monospace" font-size="11">proxy</text><line x1="146.0" y1="260.0" x2="164.0" y2="260.0" stroke="#7ee787" stroke-width="3" stroke-linecap="round"/><text x="170.0" y="264.0" fill="#9ea3ad" font-family="ui-monospace, SFMono-Regular, Menlo, monospace" font-size="11">app</text><line x1="222.0" y1="260.0" x2="240.0" y2="260.0" stroke="#f6c177" stroke-width="3" stroke-linecap="round"/><text x="246.0" y="264.0" fill="#9ea3ad" font-family="ui-monospace, SFMono-Regular, Menlo, monospace" font-size="11">loadgen</text><path d="M 70.0 411.3 L 154.1 335.4 L 217.2 340.1 L 301.3 333.1 L 385.4 343.8 L 448.4 342.8 L 511.5 341.3 L 595.6 339.5 L 658.7 342.3 L 721.8 340.0 L 805.9 339.3 L 868.9 342.1 L 932.0 332.5" fill="none" stroke="#ff7b72" stroke-width="2.5" stroke-linejoin="round" stroke-linecap="round"/><path d="M 70.0 435.6 L 154.1 415.2 L 217.2 415.2 L 301.3 414.2 L 385.4 414.9 L 448.4 415.8 L 511.5 414.7 L 595.6 414.1 L 658.7 413.0 L 721.8 415.1 L 805.9 415.5 L 868.9 415.6 L 932.0 414.4" fill="none" stroke="#7ee787" stroke-width="2.5" stroke-linejoin="round" stroke-linecap="round"/><path d="M 70.0 440.0 L 154.1 438.1 L 217.2 438.1 L 301.3 438.1 L 385.4 438.1 L 448.4 438.1 L 511.5 438.1 L 595.6 438.1 L 658.7 438.1 L 721.8 438.1 L 805.9 438.1 L 868.9 438.1 L 932.0 440.0" fill="none" stroke="#f6c177" stroke-width="2.5" stroke-linejoin="round" stroke-linecap="round"/><text x="24" y="488.0" fill="#9ea3ad" font-family="ui-monospace, SFMono-Regular, Menlo, monospace" font-size="13">Memory used (GiB)</text><line x1="70.0" y1="498.0" x2="932.0" y2="498.0" stroke="#343843" stroke-width="1"/><text x="62.0" y="502.0" fill="#9ea3ad" font-family="ui-monospace, SFMono-Regular, Menlo, monospace" font-size="11" text-anchor="end">1.0</text><line x1="70.0" y1="535.5" x2="932.0" y2="535.5" stroke="#343843" stroke-width="1"/><text x="62.0" y="539.5" fill="#9ea3ad" font-family="ui-monospace, SFMono-Regular, Menlo, monospace" font-size="11" text-anchor="end">0.8</text><line x1="70.0" y1="573.0" x2="932.0" y2="573.0" stroke="#343843" stroke-width="1"/><text x="62.0" y="577.0" fill="#9ea3ad" font-family="ui-monospace, SFMono-Regular, Menlo, monospace" font-size="11" text-anchor="end">0.5</text><line x1="70.0" y1="610.5" x2="932.0" y2="610.5" stroke="#343843" stroke-width="1"/><text x="62.0" y="614.5" fill="#9ea3ad" font-family="ui-monospace, SFMono-Regular, Menlo, monospace" font-size="11" text-anchor="end">0.2</text><line x1="70.0" y1="648.0" x2="932.0" y2="648.0" stroke="#343843" stroke-width="1"/><text x="62.0" y="652.0" fill="#9ea3ad" font-family="ui-monospace, SFMono-Regular, Menlo, monospace" font-size="11" text-anchor="end">0.0</text><line x1="70.0" y1="498.0" x2="70.0" y2="648.0" stroke="#343843" stroke-width="1"/><text x="70.0" y="666.0" fill="#9ea3ad" font-family="ui-monospace, SFMono-Regular, Menlo, monospace" font-size="11" text-anchor="middle">0s</text><line x1="285.5" y1="498.0" x2="285.5" y2="648.0" stroke="#343843" stroke-width="1"/><text x="285.5" y="666.0" fill="#9ea3ad" font-family="ui-monospace, SFMono-Regular, Menlo, monospace" font-size="11" text-anchor="middle">10s</text><line x1="501.0" y1="498.0" x2="501.0" y2="648.0" stroke="#343843" stroke-width="1"/><text x="501.0" y="666.0" fill="#9ea3ad" font-family="ui-monospace, SFMono-Regular, Menlo, monospace" font-size="11" text-anchor="middle">20s</text><line x1="716.5" y1="498.0" x2="716.5" y2="648.0" stroke="#343843" stroke-width="1"/><text x="716.5" y="666.0" fill="#9ea3ad" font-family="ui-monospace, SFMono-Regular, Menlo, monospace" font-size="11" text-anchor="middle">31s</text><line x1="932.0" y1="498.0" x2="932.0" y2="648.0" stroke="#343843" stroke-width="1"/><text x="932.0" y="666.0" fill="#9ea3ad" font-family="ui-monospace, SFMono-Regular, Menlo, monospace" font-size="11" text-anchor="middle">41s</text><path d="M 70.0 604.0 L 154.1 569.8 L 217.2 569.2 L 301.3 566.7 L 385.4 569.1 L 448.4 567.9 L 511.5 568.4 L 595.6 568.5 L 658.7 568.0 L 721.8 567.6 L 805.9 567.6 L 868.9 568.2 L 932.0 568.6" fill="none" stroke="#a371f7" stroke-width="2.5" stroke-linejoin="round" stroke-linecap="round"/><text x="24" y="696.0" fill="#9ea3ad" font-family="ui-monospace, SFMono-Regular, Menlo, monospace" font-size="13">TLS connections</text><line x1="70.0" y1="706.0" x2="932.0" y2="706.0" stroke="#343843" stroke-width="1"/><text x="62.0" y="710.0" fill="#9ea3ad" font-family="ui-monospace, SFMono-Regular, Menlo, monospace" font-size="11" text-anchor="end">2000.0</text><line x1="70.0" y1="743.5" x2="932.0" y2="743.5" stroke="#343843" stroke-width="1"/><text x="62.0" y="747.5" fill="#9ea3ad" font-family="ui-monospace, SFMono-Regular, Menlo, monospace" font-size="11" text-anchor="end">1500.0</text><line x1="70.0" y1="781.0" x2="932.0" y2="781.0" stroke="#343843" stroke-width="1"/><text x="62.0" y="785.0" fill="#9ea3ad" font-family="ui-monospace, SFMono-Regular, Menlo, monospace" font-size="11" text-anchor="end">1000.0</text><line x1="70.0" y1="818.5" x2="932.0" y2="818.5" stroke="#343843" stroke-width="1"/><text x="62.0" y="822.5" fill="#9ea3ad" font-family="ui-monospace, SFMono-Regular, Menlo, monospace" font-size="11" text-anchor="end">500.0</text><line x1="70.0" y1="856.0" x2="932.0" y2="856.0" stroke="#343843" stroke-width="1"/><text x="62.0" y="860.0" fill="#9ea3ad" font-family="ui-monospace, SFMono-Regular, Menlo, monospace" font-size="11" text-anchor="end">0.0</text><line x1="70.0" y1="706.0" x2="70.0" y2="856.0" stroke="#343843" stroke-width="1"/><text x="70.0" y="874.0" fill="#9ea3ad" font-family="ui-monospace, SFMono-Regular, Menlo, monospace" font-size="11" text-anchor="middle">0s</text><line x1="285.5" y1="706.0" x2="285.5" y2="856.0" stroke="#343843" stroke-width="1"/><text x="285.5" y="874.0" fill="#9ea3ad" font-family="ui-monospace, SFMono-Regular, Menlo, monospace" font-size="11" text-anchor="middle">10s</text><line x1="501.0" y1="706.0" x2="501.0" y2="856.0" stroke="#343843" stroke-width="1"/><text x="501.0" y="874.0" fill="#9ea3ad" font-family="ui-monospace, SFMono-Regular, Menlo, monospace" font-size="11" text-anchor="middle">20s</text><line x1="716.5" y1="706.0" x2="716.5" y2="856.0" stroke="#343843" stroke-width="1"/><text x="716.5" y="874.0" fill="#9ea3ad" font-family="ui-monospace, SFMono-Regular, Menlo, monospace" font-size="11" text-anchor="middle">31s</text><line x1="932.0" y1="706.0" x2="932.0" y2="856.0" stroke="#343843" stroke-width="1"/><text x="932.0" y="874.0" fill="#9ea3ad" font-family="ui-monospace, SFMono-Regular, Menlo, monospace" font-size="11" text-anchor="middle">41s</text><path d="M 70.0 856.0 L 154.1 779.4 L 217.2 779.4 L 301.3 780.9 L 385.4 778.5 L 448.4 778.5 L 511.5 778.5 L 595.6 778.5 L 658.7 778.5 L 721.8 778.5 L 805.9 778.5 L 868.9 778.5 L 932.0 856.0" fill="none" stroke="#f6c177" stroke-width="2.5" stroke-linejoin="round" stroke-linecap="round"/></svg>