<svg xmlns="http://www.w3.org/2000/svg" width="960" height="906" viewBox="0 0 960 906"><rect width="100%" height="100%" fill="#101114"/><text x="24" y="34" fill="#d7dae0" font-family="ui-monospace, SFMono-Regular, Menlo, monospace" font-size="18" font-weight="700">tako-single-plaintext-c20000</text><text x="24" y="54" fill="#9ea3ad" font-family="ui-monospace, SFMono-Regular, Menlo, monospace" font-size="12">200 rps 395.36 | total rps 395.36 | p99 9999.02 ms | non-200 0% | errors 52923</text><text x="24" y="72.0" fill="#9ea3ad" font-family="ui-monospace, SFMono-Regular, Menlo, monospace" font-size="13">CPU (% total VM)</text><line x1="70.0" y1="82.0" x2="932.0" y2="82.0" stroke="#343843" stroke-width="1"/><text x="62.0" y="86.0" fill="#9ea3ad" font-family="ui-monospace, SFMono-Regular, Menlo, monospace" font-size="11" text-anchor="end">100.0</text><line x1="70.0" y1="119.5" x2="932.0" y2="119.5" stroke="#343843" stroke-width="1"/><text x="62.0" y="123.5" fill="#9ea3ad" font-family="ui-monospace, SFMono-Regular, Menlo, monospace" font-size="11" text-anchor="end">75.0</text><line x1="70.0" y1="157.0" x2="932.0" y2="157.0" stroke="#343843" stroke-width="1"/><text x="62.0" y="161.0" fill="#9ea3ad" font-family="ui-monospace, SFMono-Regular, Menlo, monospace" font-size="11" text-anchor="end">50.0</text><line x1="70.0" y1="194.5" x2="932.0" y2="194.5" stroke="#343843" stroke-width="1"/><text x="62.0" y="198.5" fill="#9ea3ad" font-family="ui-monospace, SFMono-Regular, Menlo, monospace" font-size="11" text-anchor="end">25.0</text><line x1="70.0" y1="232.0" x2="932.0" y2="232.0" stroke="#343843" stroke-width="1"/><text x="62.0" y="236.0" fill="#9ea3ad" font-family="ui-monospace, SFMono-Regular, Menlo, monospace" font-size="11" text-anchor="end">0.0</text><line x1="70.0" y1="82.0" x2="70.0" y2="232.0" stroke="#343843" stroke-width="1"/><text x="70.0" y="250.0" fill="#9ea3ad" font-family="ui-monospace, SFMono-Regular, Menlo, monospace" font-size="11" text-anchor="middle">0s</text><line x1="285.5" y1="82.0" x2="285.5" y2="232.0" stroke="#343843" stroke-width="1"/><text x="285.5" y="250.0" fill="#9ea3ad" font-family="ui-monospace, SFMono-Regular, Menlo, monospace" font-size="11" text-anchor="middle">14s</text><line x1="501.0" y1="82.0" x2="501.0" y2="232.0" stroke="#343843" stroke-width="1"/><text x="501.0" y="250.0" fill="#9ea3ad" font-family="ui-monospace, SFMono-Regular, Menlo, monospace" font-size="11" text-anchor="middle">29s</text><line x1="716.5" y1="82.0" x2="716.5" y2="232.0" stroke="#343843" stroke-width="1"/><text x="716.5" y="250.0" fill="#9ea3ad" font-family="ui-monospace, SFMono-Regular, Menlo, monospace" font-size="11" text-anchor="middle">44s</text><line x1="932.0" y1="82.0" x2="932.0" y2="232.0" stroke="#343843" stroke-width="1"/><text x="932.0" y="250.0" fill="#9ea3ad" font-family="ui-monospace, SFMono-Regular, Menlo, monospace" font-size="11" text-anchor="middle">58s</text><line x1="70.0" y1="52.0" x2="88.0" y2="52.0" stroke="#4ea1ff" stroke-width="3" stroke-linecap="round"/><text x="94.0" y="56.0" fill="#9ea3ad" font-family="ui-monospace, SFMono-Regular, Menlo, monospace" font-size="11">total</text><line x1="146.0" y1="52.0" x2="164.0" y2="52.0" stroke="#ff7b72" stroke-width="3" stroke-linecap="round"/><text x="170.0" y="56.0" fill="#9ea3ad" font-family="ui-monospace, SFMono-Regular, Menlo, monospace" font-size="11">proxy</text><line x1="222.0" y1="52.0" x2="240.0" y2="52.0" stroke="#7ee787" stroke-width="3" stroke-linecap="round"/><text x="246.0" y="56.0" fill="#9ea3ad" font-family="ui-monospace, SFMono-Regular, Menlo, monospace" font-size="11">app</text><line x1="298.0" y1="52.0" x2="316.0" y2="52.0" stroke="#f6c177" stroke-width="3" stroke-linecap="round"/><text x="322.0" y="56.0" fill="#9ea3ad" font-family="ui-monospace, SFMono-Regular, Menlo, monospace" font-size="11">loadgen</text><path d="M 70.0 199.4 L 114.6 92.7 L 174.0 82.8 L 233.5 82.2 L 278.1 82.0 L 322.7 84.7 L 367.2 82.7 L 426.7 82.2 L 486.1 82.2 L 545.6 82.6 L 590.2 82.9 L 634.8 82.6 L 694.2 82.7 L 738.8 83.3 L 798.2 82.9 L 842.8 82.4 L 902.3 82.6 L 932.0 84.8" fill="none" stroke="#4ea1ff" stroke-width="2.5" stroke-linejoin="round" stroke-linecap="round"/><path d="M 70.0 231.5 L 114.6 166.5 L 174.0 161.9 L 233.5 149.0 L 278.1 151.3 L 322.7 139.0 L 367.2 168.6 L 426.7 161.4 L 486.1 151.6 L 545.6 161.1 L 590.2 161.9 L 634.8 153.3 L 694.2 163.7 L 738.8 158.7 L 798.2 149.2 L 842.8 153.5 L 902.3 145.4 L 932.0 153.3" fill="none" stroke="#ff7b72" stroke-width="2.5" stroke-linejoin="round" stroke-linecap="round"/><path d="M 70.0 232.0 L 114.6 230.3 L 174.0 228.0 L 233.5 223.4 L 278.1 222.1 L 322.7 216.4 L 367.2 231.0 L 426.7 229.9 L 486.1 224.9 L 545.6 222.1 L 590.2 217.8 L 634.8 222.9 L 694.2 223.2 L 738.8 225.1 L 798.2 225.4 L 842.8 223.6 L 902.3 223.4 L 932.0 222.3" fill="none" stroke="#7ee787" stroke-width="2.5" stroke-linejoin="round" stroke-linecap="round"/><path d="M 70.0 232.0 L 114.6 232.0 L 174.0 232.0 L 233.5 232.0 L 278.1 232.0 L 322.7 232.0 L 367.2 232.0 L 426.7 232.0 L 486.1 232.0 L 545.6 232.0 L 590.2 232.0 L 634.8 232.0 L 694.2 232.0 L 738.8 232.0 L 798.2 232.0 L 842.8 232.0 L 902.3 232.0 L 932.0 232.0" fill="none" stroke="#f6c177" stroke-width="2.5" stroke-linejoin="round" stroke-linecap="round"/><text x="24" y="280.0" fill="#9ea3ad" font-family="ui-monospace, SFMono-Regular, Menlo, monospace" font-size="13">Process RSS (GiB)</text><line x1="70.0" y1="290.0" x2="932.0" y2="290.0" stroke="#343843" stroke-width="1"/><text x="62.0" y="294.0" fill="#9ea3ad" font-family="ui-monospace, SFMono-Regular, Menlo, monospace" font-size="11" text-anchor="end">5.0</text><line x1="70.0" y1="327.5" x2="932.0" y2="327.5" stroke="#343843" stroke-width="1"/><text x="62.0" y="331.5" fill="#9ea3ad" font-family="ui-monospace, SFMono-Regular, Menlo, monospace" font-size="11" text-anchor="end">3.8</text><line x1="70.0" y1="365.0" x2="932.0" y2="365.0" stroke="#343843" stroke-width="1"/><text x="62.0" y="369.0" fill="#9ea3ad" font-family="ui-monospace, SFMono-Regular, Menlo, monospace" font-size="11" text-anchor="end">2.5</text><line x1="70.0" y1="402.5" x2="932.0" y2="402.5" stroke="#343843" stroke-width="1"/><text x="62.0" y="406.5" fill="#9ea3ad" font-family="ui-monospace, SFMono-Regular, Menlo, monospace" font-size="11" text-anchor="end">1.2</text><line x1="70.0" y1="440.0" x2="932.0" y2="440.0" stroke="#343843" stroke-width="1"/><text x="62.0" y="444.0" fill="#9ea3ad" font-family="ui-monospace, SFMono-Regular, Menlo, monospace" font-size="11" text-anchor="end">0.0</text><line x1="70.0" y1="290.0" x2="70.0" y2="440.0" stroke="#343843" stroke-width="1"/><text x="70.0" y="458.0" fill="#9ea3ad" font-family="ui-monospace, SFMono-Regular, Menlo, monospace" font-size="11" text-anchor="middle">0s</text><line x1="285.5" y1="290.0" x2="285.5" y2="440.0" stroke="#343843" stroke-width="1"/><text x="285.5" y="458.0" fill="#9ea3ad" font-family="ui-monospace, SFMono-Regular, Menlo, monospace" font-size="11" text-anchor="middle">14s</text><line x1="501.0" y1="290.0" x2="501.0" y2="440.0" stroke="#343843" stroke-width="1"/><text x="501.0" y="458.0" fill="#9ea3ad" font-family="ui-monospace, SFMono-Regular, Menlo, monospace" font-size="11" text-anchor="middle">29s</text><line x1="716.5" y1="290.0" x2="716.5" y2="440.0" stroke="#343843" stroke-width="1"/><text x="716.5" y="458.0" fill="#9ea3ad" font-family="ui-monospace, SFMono-Regular, Menlo, monospace" font-size="11" text-anchor="middle">44s</text><line x1="932.0" y1="290.0" x2="932.0" y2="440.0" stroke="#343843" stroke-width="1"/><text x="932.0" y="458.0" fill="#9ea3ad" font-family="ui-monospace, SFMono-Regular, Menlo, monospace" font-size="11" text-anchor="middle">58s</text><line x1="70.0" y1="260.0" x2="88.0" y2="260.0" stroke="#ff7b72" stroke-width="3" stroke-linecap="round"/><text x="94.0" y="264.0" fill="#9ea3ad" font-family="ui-monospace, SFMono-Regular, Menlo, monospace" font-size="11">proxy</text><line x1="146.0" y1="260.0" x2="164.0" y2="260.0" stroke="#7ee787" stroke-width="3" stroke-linecap="round"/><text x="170.0" y="264.0" fill="#9ea3ad" font-family="ui-monospace, SFMono-Regular, Menlo, monospace" font-size="11">app</text><line x1="222.0" y1="260.0" x2="240.0" y2="260.0" stroke="#f6c177" stroke-width="3" stroke-linecap="round"/><text x="246.0" y="264.0" fill="#9ea3ad" font-family="ui-monospace, SFMono-Regular, Menlo, monospace" font-size="11">loadgen</text><path d="M 70.0 433.3 L 114.6 423.7 L 174.0 413.2 L 233.5 400.6 L 278.1 396.3 L 322.7 407.1 L 367.2 404.6 L 426.7 390.8 L 486.1 380.0 L 545.6 384.3 L 590.2 396.3 L 634.8 393.7 L 694.2 403.4 L 738.8 403.3 L 798.2 396.3 L 842.8 392.6 L 902.3 389.7 L 932.0 389.6" fill="none" stroke="#ff7b72" stroke-width="2.5" stroke-linejoin="round" stroke-linecap="round"/><path d="M 70.0 439.8 L 114.6 439.4 L 174.0 438.5 L 233.5 435.9 L 278.1 435.0 L 322.7 434.6 L 367.2 434.6 L 426.7 434.4 L 486.1 433.5 L 545.6 432.6 L 590.2 432.6 L 634.8 432.6 L 694.2 432.6 L 738.8 432.6 L 798.2 432.6 L 842.8 433.1 L 902.3 433.1 L 932.0 433.1" fill="none" stroke="#7ee787" stroke-width="2.5" stroke-linejoin="round" stroke-linecap="round"/><path d="M 70.0 439.9 L 114.6 439.9 L 174.0 439.9 L 233.5 439.9 L 278.1 439.9 L 322.7 439.9 L 367.2 439.9 L 426.7 439.9 L 486.1 439.9 L 545.6 439.9 L 590.2 439.9 L 634.8 439.9 L 694.2 439.9 L 738.8 439.9 L 798.2 439.9 L 842.8 439.9 L 902.3 439.9 L 932.0 440.0" fill="none" stroke="#f6c177" stroke-width="2.5" stroke-linejoin="round" stroke-linecap="round"/><text x="24" y="488.0" fill="#9ea3ad" font-family="ui-monospace, SFMono-Regular, Menlo, monospace" font-size="13">Memory used (GiB)</text><line x1="70.0" y1="498.0" x2="932.0" y2="498.0" stroke="#343843" stroke-width="1"/><text x="62.0" y="502.0" fill="#9ea3ad" font-family="ui-monospace, SFMono-Regular, Menlo, monospace" font-size="11" text-anchor="end">5.0</text><line x1="70.0" y1="535.5" x2="932.0" y2="535.5" stroke="#343843" stroke-width="1"/><text x="62.0" y="539.5" fill="#9ea3ad" font-family="ui-monospace, SFMono-Regular, Menlo, monospace" font-size="11" text-anchor="end">3.8</text><line x1="70.0" y1="573.0" x2="932.0" y2="573.0" stroke="#343843" stroke-width="1"/><text x="62.0" y="577.0" fill="#9ea3ad" font-family="ui-monospace, SFMono-Regular, Menlo, monospace" font-size="11" text-anchor="end">2.5</text><line x1="70.0" y1="610.5" x2="932.0" y2="610.5" stroke="#343843" stroke-width="1"/><text x="62.0" y="614.5" fill="#9ea3ad" font-family="ui-monospace, SFMono-Regular, Menlo, monospace" font-size="11" text-anchor="end">1.2</text><line x1="70.0" y1="648.0" x2="932.0" y2="648.0" stroke="#343843" stroke-width="1"/><text x="62.0" y="652.0" fill="#9ea3ad" font-family="ui-monospace, SFMono-Regular, Menlo, monospace" font-size="11" text-anchor="end">0.0</text><line x1="70.0" y1="498.0" x2="70.0" y2="648.0" stroke="#343843" stroke-width="1"/><text x="70.0" y="666.0" fill="#9ea3ad" font-family="ui-monospace, SFMono-Regular, Menlo, monospace" font-size="11" text-anchor="middle">0s</text><line x1="285.5" y1="498.0" x2="285.5" y2="648.0" stroke="#343843" stroke-width="1"/><text x="285.5" y="666.0" fill="#9ea3ad" font-family="ui-monospace, SFMono-Regular, Menlo, monospace" font-size="11" text-anchor="middle">14s</text><line x1="501.0" y1="498.0" x2="501.0" y2="648.0" stroke="#343843" stroke-width="1"/><text x="501.0" y="666.0" fill="#9ea3ad" font-family="ui-monospace, SFMono-Regular, Menlo, monospace" font-size="11" text-anchor="middle">29s</text><line x1="716.5" y1="498.0" x2="716.5" y2="648.0" stroke="#343843" stroke-width="1"/><text x="716.5" y="666.0" fill="#9ea3ad" font-family="ui-monospace, SFMono-Regular, Menlo, monospace" font-size="11" text-anchor="middle">44s</text><line x1="932.0" y1="498.0" x2="932.0" y2="648.0" stroke="#343843" stroke-width="1"/><text x="932.0" y="666.0" fill="#9ea3ad" font-family="ui-monospace, SFMono-Regular, Menlo, monospace" font-size="11" text-anchor="middle">58s</text><path d="M 70.0 634.0 L 114.6 598.8 L 174.0 582.2 L 233.5 561.0 L 278.1 553.5 L 322.7 562.4 L 367.2 573.6 L 426.7 554.2 L 486.1 533.5 L 545.6 527.2 L 590.2 533.2 L 634.8 533.3 L 694.2 539.7 L 738.8 546.5 L 798.2 547.3 L 842.8 541.7 L 902.3 543.0 L 932.0 581.4" fill="none" stroke="#a371f7" stroke-width="2.5" stroke-linejoin="round" stroke-linecap="round"/><text x="24" y="696.0" fill="#9ea3ad" font-family="ui-monospace, SFMono-Regular, Menlo, monospace" font-size="13">TLS connections</text><line x1="70.0" y1="706.0" x2="932.0" y2="706.0" stroke="#343843" stroke-width="1"/><text x="62.0" y="710.0" fill="#9ea3ad" font-family="ui-monospace, SFMono-Regular, Menlo, monospace" font-size="11" text-anchor="end">50000.0</text><line x1="70.0" y1="743.5" x2="932.0" y2="743.5" stroke="#343843" stroke-width="1"/><text x="62.0" y="747.5" fill="#9ea3ad" font-family="ui-monospace, SFMono-Regular, Menlo, monospace" font-size="11" text-anchor="end">37500.0</text><line x1="70.0" y1="781.0" x2="932.0" y2="781.0" stroke="#343843" stroke-width="1"/><text x="62.0" y="785.0" fill="#9ea3ad" font-family="ui-monospace, SFMono-Regular, Menlo, monospace" font-size="11" text-anchor="end">25000.0</text><line x1="70.0" y1="818.5" x2="932.0" y2="818.5" stroke="#343843" stroke-width="1"/><text x="62.0" y="822.5" fill="#9ea3ad" font-family="ui-monospace, SFMono-Regular, Menlo, monospace" font-size="11" text-anchor="end">12500.0</text><line x1="70.0" y1="856.0" x2="932.0" y2="856.0" stroke="#343843" stroke-width="1"/><text x="62.0" y="860.0" fill="#9ea3ad" font-family="ui-monospace, SFMono-Regular, Menlo, monospace" font-size="11" text-anchor="end">0.0</text><line x1="70.0" y1="706.0" x2="70.0" y2="856.0" stroke="#343843" stroke-width="1"/><text x="70.0" y="874.0" fill="#9ea3ad" font-family="ui-monospace, SFMono-Regular, Menlo, monospace" font-size="11" text-anchor="middle">0s</text><line x1="285.5" y1="706.0" x2="285.5" y2="856.0" stroke="#343843" stroke-width="1"/><text x="285.5" y="874.0" fill="#9ea3ad" font-family="ui-monospace, SFMono-Regular, Menlo, monospace" font-size="11" text-anchor="middle">14s</text><line x1="501.0" y1="706.0" x2="501.0" y2="856.0" stroke="#343843" stroke-width="1"/><text x="501.0" y="874.0" fill="#9ea3ad" font-family="ui-monospace, SFMono-Regular, Menlo, monospace" font-size="11" text-anchor="middle">29s</text><line x1="716.5" y1="706.0" x2="716.5" y2="856.0" stroke="#343843" stroke-width="1"/><text x="716.5" y="874.0" fill="#9ea3ad" font-family="ui-monospace, SFMono-Regular, Menlo, monospace" font-size="11" text-anchor="middle">44s</text><line x1="932.0" y1="706.0" x2="932.0" y2="856.0" stroke="#343843" stroke-width="1"/><text x="932.0" y="874.0" fill="#9ea3ad" font-family="ui-monospace, SFMono-Regular, Menlo, monospace" font-size="11" text-anchor="middle">58s</text><path d="M 70.0 825.1 L 114.6 799.3 L 174.0 789.9 L 233.5 808.9 L 278.1 829.6 L 322.7 819.9 L 367.2 795.1 L 426.7 789.5 L 486.1 830.9 L 545.6 822.7 L 590.2 811.8 L 634.8 838.0 L 694.2 821.9 L 738.8 816.0 L 798.2 814.1 L 842.8 820.8 L 902.3 830.6 L 932.0 854.6" fill="none" stroke="#f6c177" stroke-width="2.5" stroke-linejoin="round" stroke-linecap="round"/></svg>